<svg width="37" height="33" viewBox="0 0 37 33" fill="none" xmlns="http://www.w3.org/2000/svg">
<path d="M19.6146 0.625977H6.25871C3.35692 0.625977 1 2.95539 1 5.82332V13.6506C1 16.3683 3.12883 18.585 5.81521 18.8104C5.65048 20.9645 4.09187 22.6176 4.09187 22.6176C7.55121 22.6176 9.76874 19.9 10.5037 18.848H19.6146C22.5164 18.848 24.8733 16.5186 24.8733 13.6506V5.82332C24.8733 2.95539 22.5164 0.625977 19.6146 0.625977Z" stroke="#202945" stroke-miterlimit="10" stroke-linejoin="round"/>
<path d="M24.8731 10.3818H30.4739C33.3757 10.3818 35.7327 12.7112 35.7327 15.5792V23.4065C35.7327 26.1242 33.6038 28.3408 30.9175 28.5663C31.0822 30.7204 32.6408 32.3735 32.6408 32.3735C29.1814 32.3735 26.9639 29.6558 26.229 28.6038H17.1181C14.2163 28.6038 11.8594 26.2744 11.8594 23.4065V18.6725" stroke="#202945" stroke-miterlimit="10" stroke-linejoin="round"/>
</svg>
