<svg width="53" height="47" viewBox="0 0 53 47" fill="none" xmlns="http://www.w3.org/2000/svg">
<path d="M38.662 23.5666V18.0875C38.662 11.2007 33.0356 5.61328 26.1007 5.61328C19.1659 5.61328 13.5395 11.2007 13.5395 18.0875V23.545C13.5395 28.2012 12.8199 32.814 11.4024 37.2536L10.1157 41.2601H42.064L40.7773 37.2536C39.3816 32.8357 38.662 28.2012 38.662 23.5666Z" stroke="#202945" stroke-width="2" stroke-miterlimit="10"/>
<path d="M6.88818 17.1128C6.88818 12.3917 8.65461 8.06037 11.555 4.76855" stroke="#202945" stroke-width="2" stroke-miterlimit="10"/>
<path d="M45.3133 17.1128C45.3133 12.3917 43.5469 8.06037 40.6465 4.76855" stroke="#202945" stroke-width="2" stroke-miterlimit="10"/>
<path d="M1 17.1125C1 10.9404 3.31161 5.30967 7.10615 1" stroke="#202945" stroke-width="2" stroke-miterlimit="10"/>
<path d="M51.2009 17.1125C51.2009 10.9404 48.8893 5.30967 45.0947 1" stroke="#202945" stroke-width="2" stroke-miterlimit="10"/>
<path d="M26.1006 5.61287V1" stroke="#202945" stroke-width="2" stroke-miterlimit="10"/>
<path d="M30.6148 41.2812C30.6148 43.7501 28.5867 45.7642 26.1006 45.7642C23.6145 45.7642 21.5864 43.7501 21.5864 41.2812" stroke="#202945" stroke-width="2" stroke-miterlimit="10"/>
</svg>
