<svg width="142" height="113" viewBox="0 0 142 113" fill="none" xmlns="http://www.w3.org/2000/svg">
<path d="M83.8642 105.7L73.2896 110.092L40.3514 96.5175C32.8631 93.4234 28.0059 86.1873 28.0059 78.2026V65.7764" stroke="#E6EAEE" stroke-width="4" stroke-miterlimit="10" stroke-linejoin="round"/>
<path d="M27.957 43.4207V10.1344C27.957 5.64302 31.6506 2 36.2042 2H110.277C114.831 2 118.524 5.64302 118.524 10.1344V43.4207" stroke="#E6EAEE" stroke-width="4" stroke-miterlimit="10" stroke-linejoin="round"/>
<path d="M119.181 88.4349H91.4035C83.6117 88.4349 77.2871 82.1969 77.2871 74.5116C77.2871 66.8263 83.6117 60.5883 91.4035 60.5883H119.181C126.973 60.5883 133.297 66.8263 133.297 74.5116C133.297 82.1969 126.973 88.4349 119.181 88.4349Z" stroke="#E6EAEE" stroke-width="4" stroke-miterlimit="10" stroke-linejoin="round"/>
<path d="M105.266 97.0186V88.4351" stroke="#E6EAEE" stroke-width="4" stroke-miterlimit="10" stroke-linejoin="round"/>
<path d="M105.266 60.6378V52.0542" stroke="#E6EAEE" stroke-width="4" stroke-miterlimit="10" stroke-linejoin="round"/>
<path d="M118.219 97.0186V88.4351" stroke="#E6EAEE" stroke-width="4" stroke-miterlimit="10" stroke-linejoin="round"/>
<path d="M118.219 60.6378V52.0542" stroke="#E6EAEE" stroke-width="4" stroke-miterlimit="10" stroke-linejoin="round"/>
<path d="M68.584 74.5602H77.2866" stroke="#E6EAEE" stroke-width="4" stroke-miterlimit="10" stroke-linejoin="round"/>
<path d="M133.297 74.5602H141.999" stroke="#E6EAEE" stroke-width="4" stroke-miterlimit="10" stroke-linejoin="round"/>
<path d="M92.3145 97.0186V88.4351" stroke="#E6EAEE" stroke-width="4" stroke-miterlimit="10" stroke-linejoin="round"/>
<path d="M92.3145 60.6378V52.0542" stroke="#E6EAEE" stroke-width="4" stroke-miterlimit="10" stroke-linejoin="round"/>
<path d="M62.0578 11.7315L45.614 27.9005C42.1735 31.294 42.1735 36.8334 45.614 40.2768C49.0546 43.6704 49.0546 49.2097 45.614 52.6531L43.0336 55.1983C39.5931 58.5918 33.9769 58.5918 30.4857 55.1983C27.0452 51.8048 21.429 51.8048 17.9378 55.1983L15.7622 57.3941C12.3216 60.7876 12.3216 66.327 15.7622 69.7704C19.2027 73.1639 19.2027 78.7033 15.7622 82.1467L2 95.7207" stroke="#E6EAEE" stroke-width="4" stroke-miterlimit="10" stroke-linejoin="round"/>
</svg>
