<svg width="159" height="135" viewBox="0 0 159 135" fill="none" xmlns="http://www.w3.org/2000/svg">
<path d="M81.038 100.751L90.7306 83.9791L73.9592 54.9558H40.4708L23.7266 83.9791L40.4708 112.975H57.215" stroke="#E6EAEE" stroke-width="4" stroke-miterlimit="10" stroke-linejoin="round"/>
<path d="M121.035 18.6896L91.0313 25.9591L74.2871 54.9551L91.0313 83.9784H124.547L141.291 54.9551L118.503 40.1985" stroke="#E6EAEE" stroke-width="4" stroke-miterlimit="10" stroke-linejoin="round"/>
<path d="M40.4707 54.9553V33.3648" stroke="#E6EAEE" stroke-width="4" stroke-miterlimit="10" stroke-linejoin="round"/>
<path d="M40.4707 134.566V112.975" stroke="#E6EAEE" stroke-width="4" stroke-miterlimit="10" stroke-linejoin="round"/>
<path d="M23.7266 83.9786H2" stroke="#E6EAEE" stroke-width="4" stroke-miterlimit="10" stroke-linejoin="round"/>
<path d="M73.9589 122.503C79.2218 122.503 83.4881 118.237 83.4881 112.974C83.4881 107.711 79.2218 103.445 73.9589 103.445C68.6961 103.445 64.4297 107.711 64.4297 112.974C64.4297 118.237 68.6961 122.503 73.9589 122.503Z" stroke="#E6EAEE" stroke-width="4" stroke-miterlimit="10" stroke-linejoin="round"/>
<path d="M40.4706 34.5636C45.7335 34.5636 49.9999 30.2972 49.9999 25.0344C49.9999 19.7715 45.7335 15.5051 40.4706 15.5051C35.2078 15.5051 30.9414 19.7715 30.9414 25.0344C30.9414 30.2972 35.2078 34.5636 40.4706 34.5636Z" stroke="#E6EAEE" stroke-width="4" stroke-miterlimit="10" stroke-linejoin="round"/>
<path d="M141.289 21.0584C136.034 21.0584 131.76 16.7839 131.76 11.5292C131.76 6.27454 136.034 2 141.289 2C146.544 2 150.791 6.30176 150.791 11.5564" stroke="#E6EAEE" stroke-width="4" stroke-miterlimit="10" stroke-linejoin="round"/>
<path d="M144.012 14.9595L156.917 27.8648" stroke="#E6EAEE" stroke-width="4" stroke-miterlimit="10" stroke-linejoin="round"/>
<path d="M156.999 14.9592L144.094 27.8645" stroke="#E6EAEE" stroke-width="4" stroke-miterlimit="10" stroke-linejoin="round"/>
<path d="M2 116.052L14.9053 128.957" stroke="#E6EAEE" stroke-width="4" stroke-miterlimit="10" stroke-linejoin="round"/>
<path d="M15.0147 116.052L2.10938 128.957" stroke="#E6EAEE" stroke-width="4" stroke-miterlimit="10" stroke-linejoin="round"/>
</svg>
