<svg width="190" height="164" viewBox="0 0 190 164" fill="none" xmlns="http://www.w3.org/2000/svg">
<path d="M131.945 81.6624C126.572 61.9488 111.137 46.1133 90.8096 40.6597C89.286 40.2557 88.1234 38.9226 87.9229 37.3472C87.7224 36.5796 87.7224 35.8121 87.7224 35.0042C87.7224 25.6725 93.4958 17.7143 102.196 14.6038C103.92 14.0382 105.083 12.4628 105.083 10.9277V6.84761C105.083 5.67611 104.521 4.5046 103.559 3.73706C102.597 3.17151 101.434 2.76754 100.271 3.17151C90.0478 5.87809 81.9491 13.6747 78.3006 23.5719C76.7771 28.0559 72.3268 31.1665 67.5156 31.1665H53.7237C51.2379 31.1665 49.1932 29.1466 49.1932 26.6016V5.87809C49.1932 3.73706 47.4692 2 45.3443 2H41.4954C39.3705 2 37.6465 3.73706 37.6465 5.87809V54.4754C37.6465 56.6164 35.9225 58.3535 33.7975 58.3535H29.8684C27.7435 58.3535 26.0195 60.0905 26.0195 62.2316V66.1097C26.0195 68.2507 27.7435 69.9877 29.8684 69.9877H30.0689C33.9178 69.9877 37.1252 72.9771 37.4059 76.8148L37.7266 81.0969C37.7667 81.9048 37.8469 82.7127 37.9271 83.5207L38.0073 84.6922L38.0474 84.7326C38.6087 90.1053 39.6912 95.3569 41.1746 100.366" stroke="#E6EAEE" stroke-width="4" stroke-miterlimit="10" stroke-linejoin="round"/>
<path d="M52.3203 123.834C67.6358 146.497 93.4155 161.403 122.603 161.363C128.938 161.363 134.03 156.071 134.03 149.688V109.13" stroke="#E6EAEE" stroke-width="4" stroke-miterlimit="10" stroke-linejoin="round"/>
<path d="M49.1543 14.6027V45.9506C49.1543 51.081 53.2839 55.2823 58.4157 55.2823C66.5145 55.2823 73.0496 61.8669 73.0496 70.0271V96.3254" stroke="#E6EAEE" stroke-width="4" stroke-miterlimit="10" stroke-linejoin="round"/>
<path d="M30.0684 70.0256H52.7609C56.4094 70.0256 59.3762 73.015 59.3762 76.6911V96.3239" stroke="#E6EAEE" stroke-width="4" stroke-miterlimit="10" stroke-linejoin="round"/>
<path d="M190 96.2451H116.63L107.609 131.067L91.1711 67.5634L74.7732 131.067L69.1602 109.657H0" stroke="#E6EAEE" stroke-width="4" stroke-miterlimit="10" stroke-linejoin="round"/>
</svg>
