<svg width="145" height="123" viewBox="0 0 145 123" fill="none" xmlns="http://www.w3.org/2000/svg">
<path d="M103.217 122L101.834 112.12C101.503 109.742 103.254 107.567 105.65 107.383C116.378 106.572 125.871 99.0326 128.636 88.0648C129.116 85.8528 129.429 83.6408 129.429 81.5947C136.858 78.9035 142.056 71.8067 142.056 63.7514C142.056 61.0601 141.576 58.5347 140.47 56.1753C141.411 53.8158 142.056 51.2721 142.056 48.7467C142.056 41.7974 137.945 35.4748 131.641 32.636C130.056 22.848 122.019 15.2719 112.212 14.4793C109.521 8.94933 103.844 5.31798 97.521 5.31798C96.7284 5.31798 95.9358 5.48388 95.1616 5.48388H94.9957C94.2031 5.64978 93.263 5.79725 92.4703 6.11061C89.3183 3.58526 85.3735 2 81.2629 2C77.9449 2 74.627 2.9401 71.9541 4.83872C69.1154 3.56683 65.9633 2.9401 62.6454 2.9401C56.1753 2.9401 50.0186 5.63135 45.7421 10.5162C44.3227 10.2028 43.0508 10.0553 41.6315 10.0553C35.954 10.0553 30.7374 12.894 27.7328 17.7973C27.5669 17.7973 27.2535 17.7973 27.1061 17.7973C26.7927 17.7973 26.4793 17.7973 26.3134 17.7973C26.0001 17.7973 25.6867 17.9632 25.3733 17.9632C25.06 17.9632 24.8941 18.1291 24.5807 18.1291C24.2674 18.1291 23.954 18.295 23.6406 18.4424C23.3273 18.4424 23.1614 18.6083 22.848 18.6083C22.5346 18.7742 22.2213 18.7742 22.0554 18.9217C21.742 19.0876 21.4286 19.0876 21.2627 19.2351C21.0968 19.401 20.7835 19.401 20.636 19.5484C20.3226 19.7143 20.0093 19.8618 19.6959 20.0277C14.1659 23.0323 10.3871 28.8757 9.90786 35.4932V35.6591C4.83872 40.3596 2 47.1614 2 54.1108C2 68.1569 13.5208 79.6961 27.5853 79.6961C29.0047 79.6961 30.59 79.5302 32.0093 79.3827C33.9079 80.0095 35.954 80.3228 38.0001 80.4887C42.1107 90.5902 50.3135 95.9542 61.5209 95.9542C85.945 95.9542 85.2076 122 85.2076 122" stroke="#E6EAEE" stroke-width="4" stroke-miterlimit="10" stroke-linejoin="round"/>
<path d="M9.88867 35.6229L9.94397 47.2911C9.94397 50.7381 12.7274 53.5215 16.1744 53.5215H17.4832C22.2389 53.5215 26.0915 57.3741 26.0915 62.1299V62.4801" stroke="#E6EAEE" stroke-width="4" stroke-miterlimit="10" stroke-linejoin="round"/>
<path d="M129.411 81.5778V78.4441C129.411 70.2229 122.738 63.55 114.517 63.55H112.047" stroke="#E6EAEE" stroke-width="4" stroke-miterlimit="10" stroke-linejoin="round"/>
<path d="M23.1973 35.2737C33.6858 41.836 47.4738 38.647 54.0361 28.1585" stroke="#E6EAEE" stroke-width="4" stroke-miterlimit="10" stroke-linejoin="round"/>
<path d="M58.8848 48.618C71.7143 59.4568 90.8664 57.8347 101.705 45.0051" stroke="#E6EAEE" stroke-width="4" stroke-miterlimit="10" stroke-linejoin="round"/>
<path d="M65.7969 53.17C75.29 55.382 81.1886 64.8567 78.9766 74.3498" stroke="#E6EAEE" stroke-width="4" stroke-miterlimit="10" stroke-linejoin="round"/>
<path d="M39.2532 83.235C34.35 72.3594 39.1979 59.6036 50.0551 54.7003" stroke="#E6EAEE" stroke-width="4" stroke-miterlimit="10" stroke-linejoin="round"/>
<path d="M49.8711 22.2203C50.9955 28.1374 56.6914 32.0084 62.6085 30.884" stroke="#E6EAEE" stroke-width="4" stroke-miterlimit="10" stroke-linejoin="round"/>
<path d="M90.9043 93.9817C101.614 94.9771 111.07 87.1245 112.066 76.4148" stroke="#E6EAEE" stroke-width="4" stroke-miterlimit="10" stroke-linejoin="round"/>
<path d="M71.9531 4.83905V10.4796C71.9531 15.3644 75.9163 19.3276 80.8011 19.3276C85.6859 19.3276 89.649 23.2907 89.649 28.1755V30.1295" stroke="#E6EAEE" stroke-width="4" stroke-miterlimit="10" stroke-linejoin="round"/>
<path d="M131.622 32.6357C131.622 39.4744 126.092 45.0044 119.253 45.0044H115.77" stroke="#E6EAEE" stroke-width="4" stroke-miterlimit="10" stroke-linejoin="round"/>
</svg>
