<svg width="120" height="120" viewBox="0 0 120 120" fill="none" xmlns="http://www.w3.org/2000/svg">
<circle cx="60" cy="60" r="60" fill="#202945"/>
<rect x="34.5" y="47.5" width="50" height="37" stroke="white"/>
<rect x="32.5" y="39.5" width="54" height="8" stroke="white"/>
<rect x="52.5" y="39.5" width="15" height="45" stroke="white"/>
<path d="M47.7843 39.3727C44.2963 39.3727 41.5 36.6788 41.5 33.4226C41.5 30.1691 44.2934 27.5 47.7843 27.5C52.293 27.5 55.292 30.5351 57.1954 33.6944C58.1426 35.2666 58.8008 36.843 59.2223 38.0288C59.4162 38.5742 59.5594 39.0352 59.6572 39.3727H59.646H59.6311H59.616H59.6008H59.5854H59.5699H59.5542H59.5384H59.5225H59.5064H59.4901H59.4737H59.4572H59.4405H59.4237H59.4068H59.3897H59.3725H59.3551H59.3376H59.32H59.3022H59.2843H59.2663H59.2481H59.2298H59.2113H59.1928H59.174H59.1552H59.1362H59.1171H59.0979H59.0786H59.0591H59.0395H59.0197H58.9998H58.9799H58.9597H58.9395H58.9191H58.8986H58.878H58.8573H58.8364H58.8155H58.7944H58.7732H58.7518H58.7304H58.7088H58.6871H58.6653H58.6434H58.6214H58.5992H58.577H58.5546H58.5321H58.5095H58.4868H58.464H58.441H58.418H58.3948H58.3716H58.3482H58.3247H58.3012H58.2775H58.2537H58.2298H58.2058H58.1817H58.1575H58.1332H58.1088H58.0842H58.0596H58.0349H58.0101H57.9852H57.9602H57.9351H57.9099H57.8846H57.8592H57.8337H57.8081H57.7825H57.7567H57.7308H57.7049H57.6788H57.6527H57.6265H57.6002H57.5738H57.5473H57.5207H57.4941H57.4673H57.4405H57.4136H57.3866H57.3595H57.3323H57.3051H57.2777H57.2503H57.2228H57.1952H57.1676H57.1399H57.112H57.0842H57.0562H57.0282H57H56.9718H56.9436H56.9152H56.8868H56.8583H56.8298H56.8012H56.7725H56.7437H56.7149H56.6859H56.657H56.6279H56.5988H56.5696H56.5404H56.5111H56.4817H56.4523H56.4228H56.3932H56.3636H56.3339H56.3042H56.2744H56.2445H56.2146H56.1846H56.1546H56.1245H56.0943H56.0641H56.0339H56.0035H55.9732H55.9427H55.9123H55.8817H55.8512H55.8205H55.7898H55.7591H55.7283H55.6975H55.6666H55.6357H55.6047H55.5737H55.5427H55.5115H55.4804H55.4492H55.418H55.3867H55.3554H55.324H55.2926H55.2612H55.2297H55.1982H55.1666H55.135H55.1034H55.0717H55.04H55.0083H54.9765H54.9447H54.9129H54.881H54.8491H54.8172H54.7852H54.7532H54.7212H54.6891H54.6571H54.6249H54.5928H54.5607H54.5285H54.4963H54.464H54.4318H54.3995H54.3672H54.3349H54.3025H54.2702H54.2378H54.2054H54.1729H54.1405H54.108H54.0756H54.0431H54.0106H53.978H53.9455H53.913H53.8804H53.8478H53.8152H53.7826H53.75H53.7174H53.6848H53.6521H53.6195H53.5868H53.5542H53.5215H53.4888H53.4562H53.4235H53.3908H53.3581H53.3254H53.2927H53.26H53.2273H53.1946H53.1619H53.1292H53.0965H53.0638H53.0311H52.9985H52.9658H52.9331H52.9004H52.8678H52.8351H52.8025H52.7698H52.7372H52.7046H52.672H52.6393H52.6068H52.5742H52.5416H52.509H52.4765H52.444H52.4115H52.379H52.3465H52.314H52.2816H52.2491H52.2167H52.1843H52.1519H52.1196H52.0873H52.0549H52.0226H51.9904H51.9581H51.9259H51.8937H51.8616H51.8294H51.7973H51.7652H51.7331H51.7011H51.6691H51.6371H51.6052H51.5733H51.5414H51.5095H51.4777H51.4459H51.4142H51.3824H51.3508H51.3191H51.2875H51.2559H51.2244H51.1929H51.1614H51.13H51.0986H51.0673H51.036H51.0047H50.9735H50.9424H50.9112H50.8801H50.8491H50.8181H50.7872H50.7563H50.7254H50.6946H50.6639H50.6332H50.6025H50.5719H50.5413H50.5108H50.4804H50.45H50.4197H50.3894H50.3591H50.329H50.2988H50.2688H50.2388H50.2088H50.1789H50.1491H50.1193H50.0896H50.0599H50.0304H50.0008H49.9714H49.942H49.9126H49.8834H49.8542H49.825H49.7959H49.7669H49.738H49.7091H49.6803H49.6516H49.6229H49.5943H49.5658H49.5374H49.509H49.4807H49.4525H49.4243H49.3963H49.3683H49.3403H49.3125H49.2847H49.257H49.2294H49.2019H49.1744H49.1471H49.1198H49.0926H49.0654H49.0384H49.0114H48.9846H48.9578H48.9311H48.9045H48.8779H48.8515H48.8251H48.7989H48.7727H48.7466H48.7206H48.6947H48.6689H48.6432H48.6176H48.5921H48.5666H48.5413H48.516H48.4909H48.4658H48.4409H48.416H48.3913H48.3666H48.342H48.3176H48.2932H48.269H48.2448H48.2208H48.1968H48.173H48.1493H48.1256H48.1021H48.0787H48.0554H48.0322H48.0091H47.9861H47.9632H47.9405H47.9178H47.8953H47.8728H47.8505H47.8283H47.8062H47.7843Z" stroke="white" stroke-miterlimit="10"/>
<path d="M59.9809 39.3727H59.9669C60.0682 39.0359 60.2161 38.5769 60.4162 38.0343C60.8531 36.8491 61.5354 35.2732 62.5175 33.7013C64.4887 30.5464 67.603 27.5 72.2973 27.5C75.9444 27.5 78.8328 30.1855 78.8328 33.4226C78.8328 36.6623 75.9415 39.3727 72.2973 39.3727H72.2745H72.2516H72.2286H72.2054H72.1822H72.1588H72.1353H72.1117H72.088H72.0642H72.0402H72.0161H71.992H71.9677H71.9433H71.9188H71.8942H71.8694H71.8446H71.8197H71.7946H71.7695H71.7442H71.7189H71.6934H71.6678H71.6421H71.6164H71.5905H71.5645H71.5384H71.5123H71.486H71.4596H71.4331H71.4066H71.3799H71.3531H71.3263H71.2993H71.2722H71.2451H71.2179H71.1905H71.1631H71.1356H71.108H71.0803H71.0525H71.0247H70.9967H70.9687H70.9405H70.9123H70.884H70.8556H70.8272H70.7986H70.77H70.7413H70.7125H70.6836H70.6546H70.6256H70.5965H70.5673H70.538H70.5087H70.4793H70.4498H70.4202H70.3905H70.3608H70.331H70.3012H70.2712H70.2412H70.2111H70.181H70.1508H70.1205H70.0901H70.0597H70.0292H69.9986H69.968H69.9373H69.9066H69.8758H69.8449H69.814H69.783H69.7519H69.7208H69.6896H69.6584H69.6271H69.5957H69.5643H69.5328H69.5013H69.4697H69.4381H69.4064H69.3747H69.3429H69.3111H69.2792H69.2472H69.2152H69.1832H69.1511H69.1189H69.0868H69.0545H69.0222H68.9899H68.9576H68.9251H68.8927H68.8602H68.8276H68.7951H68.7624H68.7298H68.6971H68.6643H68.6315H68.5987H68.5659H68.533H68.5H68.4671H68.4341H68.401H68.368H68.3349H68.3018H68.2686H68.2354H68.2022H68.1689H68.1356H68.1023H68.069H68.0356H68.0023H67.9688H67.9354H67.9019H67.8685H67.8349H67.8014H67.7679H67.7343H67.7007H67.6671H67.6334H67.5998H67.5661H67.5324H67.4987H67.465H67.4313H67.3975H67.3638H67.33H67.2962H67.2624H67.2286H67.1948H67.1609H67.1271H67.0932H67.0594H67.0255H66.9916H66.9578H66.9239H66.89H66.8561H66.8222H66.7883H66.7544H66.7205H66.6866H66.6527H66.6188H66.5848H66.5509H66.517H66.4831H66.4492H66.4153H66.3815H66.3476H66.3137H66.2798H66.246H66.2121H66.1783H66.1444H66.1106H66.0768H66.043H66.0092H65.9754H65.9416H65.9079H65.8741H65.8404H65.8067H65.773H65.7393H65.7056H65.672H65.6384H65.6048H65.5712H65.5376H65.5041H65.4706H65.4371H65.4036H65.3701H65.3367H65.3033H65.2699H65.2366H65.2033H65.17H65.1367H65.1035H65.0703H65.0371H65.0039H64.9708H64.9377H64.9047H64.8717H64.8387H64.8057H64.7728H64.7399H64.7071H64.6743H64.6415H64.6088H64.5761H64.5435H64.5109H64.4783H64.4458H64.4133H64.3809H64.3485H64.3161H64.2838H64.2516H64.2194H64.1872H64.1551H64.123H64.091H64.059H64.0271H63.9952H63.9634H63.9316H63.8999H63.8683H63.8367H63.8051H63.7736H63.7422H63.7108H63.6795H63.6482H63.617H63.5858H63.5547H63.5237H63.4927H63.4618H63.431H63.4002H63.3695H63.3388H63.3082H63.2777H63.2473H63.2169H63.1865H63.1563H63.1261H63.096H63.0659H63.0359H63.006H62.9762H62.9464H62.9168H62.8871H62.8576H62.8281H62.7988H62.7694H62.7402H62.711H62.682H62.653H62.624H62.5952H62.5664H62.5378H62.5092H62.4807H62.4522H62.4239H62.3956H62.3675H62.3394H62.3114H62.2834H62.2556H62.2279H62.2002H62.1727H62.1452H62.1178H62.0905H62.0634H62.0363H62.0092H61.9823H61.9555H61.9288H61.9022H61.8756H61.8492H61.8229H61.7967H61.7705H61.7445H61.7186H61.6927H61.667H61.6414H61.6158H61.5904H61.5651H61.5399H61.5148H61.4898H61.4649H61.4401H61.4155H61.3909H61.3664H61.3421H61.3179H61.2937H61.2697H61.2458H61.2221H61.1984H61.1748H61.1514H61.1281H61.1049H61.0818H61.0588H61.036H61.0132H60.9906H60.9681H60.9458H60.9235H60.9014H60.8794H60.8575H60.8358H60.8142H60.7927H60.7713H60.75H60.7289H60.7079H60.6871H60.6663H60.6457H60.6253H60.6049H60.5847H60.5646H60.5447H60.5249H60.5052H60.4857H60.4663H60.447H60.4279H60.4089H60.39H60.3713H60.3528H60.3343H60.316H60.2979H60.2799H60.262H60.2443H60.2267H60.2093H60.192H60.1749H60.1579H60.1411H60.1244H60.1078H60.0914H60.0752H60.0591H60.0431H60.0274H60.0117H59.9962H59.9809Z" stroke="white" stroke-miterlimit="10"/>
</svg>
