<svg width="36" height="59" viewBox="0 0 36 59" fill="none" xmlns="http://www.w3.org/2000/svg">
<path d="M29.0259 10.6012V9.31592L6.75025 9.31592V10.6141C6.75025 11.3596 6.13039 11.9765 5.35226 11.9765C2.95192 11.9765 1 13.8788 1 16.2181L1 53.0296C1 55.3689 2.95192 57.2712 5.35226 57.2712H30.4107C32.811 57.2712 34.763 55.3689 34.763 53.0296V16.2052C34.763 13.8659 32.811 11.9637 30.4107 11.9637C29.6458 11.9637 29.0259 11.3596 29.0259 10.6012Z" stroke="#7B8797" stroke-width="2" stroke-miterlimit="10" stroke-linejoin="round"/>
<path d="M29.4476 9.31602L6.32784 9.31602C5.33869 9.31602 4.53418 8.53197 4.53418 7.56798V2.74803C4.53418 1.78404 5.33869 1 6.32784 1L29.4476 1C30.4367 1 31.2412 1.78404 31.2412 2.74803V7.56798C31.228 8.53197 30.4367 9.31602 29.4476 9.31602Z" stroke="#7B8797" stroke-width="2" stroke-miterlimit="10" stroke-linejoin="round"/>
</svg>
