<svg width="78" height="67" viewBox="0 0 78 67" fill="none" xmlns="http://www.w3.org/2000/svg">
<path d="M55.91 66.1L55.16 60.74C54.98 59.45 55.93 58.27 57.23 58.17C63.05 57.73 68.2 53.64 69.7 47.69C69.96 46.49 70.13 45.29 70.13 44.18C74.16 42.72 76.98 38.87 76.98 34.5C76.98 33.04 76.72 31.67 76.12 30.39C76.63 29.11 76.98 27.73 76.98 26.36C76.98 22.59 74.75 19.16 71.33 17.62C70.47 12.31 66.11 8.2 60.79 7.77C59.33 4.77 56.25 2.8 52.82 2.8C52.39 2.8 51.96 2.89 51.54 2.89H51.45C51.02 2.98 50.51 3.06 50.08 3.23C48.37 1.86 46.23 1 44 1C42.2 1 40.4 1.51 38.95 2.54C37.41 1.85 35.7 1.51 33.9 1.51C30.39 1.51 27.05 2.97 24.73 5.62C23.96 5.45 23.27 5.37 22.5 5.37C19.42 5.37 16.59 6.91 14.96 9.57C14.87 9.57 14.7 9.57 14.62 9.57C14.45 9.57 14.28 9.57 14.19 9.57C14.02 9.57 13.85 9.66 13.68 9.66C13.51 9.66 13.42 9.75 13.25 9.75C13.08 9.75 12.91 9.84 12.74 9.92C12.57 9.92 12.48 10.01 12.31 10.01C12.14 10.1 11.97 10.1 11.88 10.18C11.71 10.27 11.54 10.27 11.45 10.35C11.36 10.44 11.19 10.44 11.11 10.52C10.94 10.61 10.77 10.69 10.6 10.78C7.6 12.41 5.55 15.58 5.29 19.17V19.26C2.54 21.81 1 25.5 1 29.27C1 36.89 7.25 43.15 14.88 43.15C15.65 43.15 16.51 43.06 17.28 42.98C18.31 43.32 19.42 43.49 20.53 43.58C22.76 49.06 27.21 51.97 33.29 51.97C46.54 51.97 46.14 66.1 46.14 66.1" stroke="#202945" stroke-width="2" stroke-miterlimit="10" stroke-linejoin="round"/>
<path d="M5.2793 19.24L5.3093 25.57C5.3093 27.44 6.8193 28.95 8.6893 28.95H9.3993C11.9793 28.95 14.0693 31.04 14.0693 33.62V33.81" stroke="#202945" stroke-width="2" stroke-miterlimit="10" stroke-linejoin="round"/>
<path d="M70.1192 44.1701V42.4701C70.1192 38.0101 66.4992 34.3901 62.0392 34.3901H60.6992" stroke="#202945" stroke-width="2" stroke-miterlimit="10" stroke-linejoin="round"/>
<path d="M12.5 19.0499C18.19 22.6099 25.67 20.8799 29.23 15.1899" stroke="#202945" stroke-width="2" stroke-miterlimit="10" stroke-linejoin="round"/>
<path d="M31.8594 26.2901C38.8194 32.1701 49.2094 31.2901 55.0894 24.3301" stroke="#202945" stroke-width="2" stroke-miterlimit="10" stroke-linejoin="round"/>
<path d="M35.6094 28.76C40.7594 29.96 43.9594 35.1 42.7594 40.25" stroke="#202945" stroke-width="2" stroke-miterlimit="10" stroke-linejoin="round"/>
<path d="M21.2099 45.0701C18.5499 39.1701 21.1799 32.2501 27.0699 29.5901" stroke="#202945" stroke-width="2" stroke-miterlimit="10" stroke-linejoin="round"/>
<path d="M26.9707 11.97C27.5807 15.18 30.6707 17.28 33.8807 16.67" stroke="#202945" stroke-width="2" stroke-miterlimit="10" stroke-linejoin="round"/>
<path d="M49.2305 50.9001C55.0405 51.4401 60.1705 47.1801 60.7105 41.3701" stroke="#202945" stroke-width="2" stroke-miterlimit="10" stroke-linejoin="round"/>
<path d="M38.9492 2.54004V5.60004C38.9492 8.25004 41.0992 10.4 43.7492 10.4C46.3992 10.4 48.5492 12.55 48.5492 15.2V16.26" stroke="#202945" stroke-width="2" stroke-miterlimit="10" stroke-linejoin="round"/>
<path d="M71.3207 17.6201C71.3207 21.3301 68.3207 24.3301 64.6107 24.3301H62.7207" stroke="#202945" stroke-width="2" stroke-miterlimit="10" stroke-linejoin="round"/>
</svg>
