<svg width="362" height="165" viewBox="0 0 362 165" fill="none" xmlns="http://www.w3.org/2000/svg">
<path d="M4.6515 5.64C5.2435 5.64 5.7795 5.776 6.2595 6.048C6.7395 6.312 7.1155 6.688 7.3875 7.176C7.6595 7.664 7.7955 8.22 7.7955 8.844C7.7955 9.476 7.6595 10.036 7.3875 10.524C7.1155 11.012 6.7395 11.392 6.2595 11.664C5.7875 11.928 5.2515 12.06 4.6515 12.06C4.1395 12.06 3.6755 11.956 3.2595 11.748C2.8515 11.532 2.5155 11.22 2.2515 10.812V14.328H1.3995V5.688H2.2155V6.936C2.4715 6.52 2.8075 6.2 3.2235 5.976C3.6475 5.752 4.1235 5.64 4.6515 5.64ZM4.5915 11.304C5.0315 11.304 5.4315 11.204 5.7915 11.004C6.1515 10.796 6.4315 10.504 6.6315 10.128C6.8395 9.752 6.9435 9.324 6.9435 8.844C6.9435 8.364 6.8395 7.94 6.6315 7.572C6.4315 7.196 6.1515 6.904 5.7915 6.696C5.4315 6.488 5.0315 6.384 4.5915 6.384C4.1435 6.384 3.7395 6.488 3.3795 6.696C3.0275 6.904 2.7475 7.196 2.5395 7.572C2.3395 7.94 2.2395 8.364 2.2395 8.844C2.2395 9.324 2.3395 9.752 2.5395 10.128C2.7475 10.504 3.0275 10.796 3.3795 11.004C3.7395 11.204 4.1435 11.304 4.5915 11.304ZM12.2781 7.92C13.0701 7.928 13.6741 8.104 14.0901 8.448C14.5061 8.792 14.7141 9.288 14.7141 9.936C14.7141 10.608 14.4901 11.124 14.0421 11.484C13.5941 11.844 12.9541 12.02 12.1221 12.012L9.62606 12V5.688H10.4781V7.896L12.2781 7.92ZM15.7701 5.688H16.6221V12H15.7701V5.688ZM12.0741 11.364C12.6581 11.372 13.0981 11.256 13.3941 11.016C13.6981 10.768 13.8501 10.408 13.8501 9.936C13.8501 9.472 13.7021 9.128 13.4061 8.904C13.1101 8.68 12.6661 8.564 12.0741 8.556L10.4781 8.532V11.34L12.0741 11.364ZM22.1079 5.844C22.6919 5.844 23.2119 5.976 23.6679 6.24C24.1319 6.496 24.4919 6.86 24.7479 7.332C25.0039 7.796 25.1319 8.328 25.1319 8.928C25.1319 9.544 24.9959 10.092 24.7239 10.572C24.4599 11.044 24.0879 11.412 23.6079 11.676C23.1279 11.94 22.5759 12.072 21.9519 12.072C20.9039 12.072 20.0919 11.704 19.5159 10.968C18.9399 10.232 18.6519 9.216 18.6519 7.92C18.6519 6.568 18.9079 5.532 19.4199 4.812C19.9399 4.092 20.7479 3.604 21.8439 3.348L24.6759 2.7L24.8199 3.48L22.1559 4.092C21.2519 4.292 20.5879 4.648 20.1639 5.16C19.7399 5.664 19.5079 6.412 19.4679 7.404C19.7239 6.916 20.0799 6.536 20.5359 6.264C20.9919 5.984 21.5159 5.844 22.1079 5.844ZM21.9759 11.364C22.4159 11.364 22.8079 11.264 23.1519 11.064C23.5039 10.856 23.7759 10.568 23.9679 10.2C24.1679 9.832 24.2679 9.416 24.2679 8.952C24.2679 8.488 24.1719 8.08 23.9799 7.728C23.7879 7.376 23.5159 7.104 23.1639 6.912C22.8199 6.712 22.4239 6.612 21.9759 6.612C21.5279 6.612 21.1279 6.712 20.7759 6.912C20.4319 7.104 20.1599 7.376 19.9599 7.728C19.7679 8.08 19.6719 8.488 19.6719 8.952C19.6719 9.416 19.7679 9.832 19.9599 10.2C20.1599 10.568 20.4359 10.856 20.7879 11.064C21.1399 11.264 21.5359 11.364 21.9759 11.364ZM26.9581 5.688H27.8101V10.704L32.0221 5.688H32.7781V12H31.9261V6.984L27.7261 12H26.9581V5.688ZM35.2198 5.688H36.0718V10.704L40.2838 5.688H41.0398V12H40.1878V6.984L35.9878 12H35.2198V5.688ZM38.0878 4.776C37.5438 4.776 37.1118 4.64 36.7918 4.368C36.4718 4.096 36.3078 3.712 36.2998 3.216H36.9118C36.9198 3.528 37.0318 3.78 37.2478 3.972C37.4638 4.156 37.7438 4.248 38.0878 4.248C38.4318 4.248 38.7118 4.156 38.9278 3.972C39.1518 3.78 39.2678 3.528 39.2758 3.216H39.8878C39.8798 3.712 39.7118 4.096 39.3838 4.368C39.0638 4.64 38.6318 4.776 38.0878 4.776ZM52.1542 9.192H50.7862V12H49.9342V9.192H48.5662L46.6342 12H45.6142L47.8822 8.748L45.7942 5.688H46.7182L48.5662 8.46H49.9342V5.688H50.7862V8.46H52.1542L54.0142 5.688H54.9382L52.8502 8.76L55.1182 12H54.0982L52.1542 9.192ZM56.5362 5.688H57.3882V10.704L61.6002 5.688H62.3562V12H61.5042V6.984L57.3042 12H56.5362V5.688ZM68.0499 5.64C68.6419 5.64 69.1779 5.776 69.6579 6.048C70.1379 6.312 70.5139 6.688 70.7859 7.176C71.0579 7.664 71.1939 8.22 71.1939 8.844C71.1939 9.476 71.0579 10.036 70.7859 10.524C70.5139 11.012 70.1379 11.392 69.6579 11.664C69.1859 11.928 68.6499 12.06 68.0499 12.06C67.5379 12.06 67.0739 11.956 66.6579 11.748C66.2499 11.532 65.9139 11.22 65.6499 10.812V14.328H64.7979V5.688H65.6139V6.936C65.8699 6.52 66.2059 6.2 66.6219 5.976C67.0459 5.752 67.5219 5.64 68.0499 5.64ZM67.9899 11.304C68.4299 11.304 68.8299 11.204 69.1899 11.004C69.5499 10.796 69.8299 10.504 70.0299 10.128C70.2379 9.752 70.3419 9.324 70.3419 8.844C70.3419 8.364 70.2379 7.94 70.0299 7.572C69.8299 7.196 69.5499 6.904 69.1899 6.696C68.8299 6.488 68.4299 6.384 67.9899 6.384C67.5419 6.384 67.1379 6.488 66.7779 6.696C66.4259 6.904 66.1459 7.196 65.9379 7.572C65.7379 7.94 65.6379 8.364 65.6379 8.844C65.6379 9.324 65.7379 9.752 65.9379 10.128C66.1459 10.504 66.4259 10.796 66.7779 11.004C67.1379 11.204 67.5419 11.304 67.9899 11.304Z" fill="#7B8797"/>
<path d="M221.345 5.688H222.197V8.484H226.169V5.688H227.021V12H226.169V9.216H222.197V12H221.345V5.688ZM231.614 5.64C232.438 5.64 233.07 5.848 233.51 6.264C233.95 6.672 234.17 7.28 234.17 8.088V12H233.354V11.016C233.162 11.344 232.878 11.6 232.502 11.784C232.134 11.968 231.694 12.06 231.182 12.06C230.478 12.06 229.918 11.892 229.502 11.556C229.086 11.22 228.878 10.776 228.878 10.224C228.878 9.688 229.07 9.256 229.454 8.928C229.846 8.6 230.466 8.436 231.314 8.436H233.318V8.052C233.318 7.508 233.166 7.096 232.862 6.816C232.558 6.528 232.114 6.384 231.53 6.384C231.13 6.384 230.746 6.452 230.378 6.588C230.01 6.716 229.694 6.896 229.43 7.128L229.046 6.492C229.366 6.22 229.75 6.012 230.198 5.868C230.646 5.716 231.118 5.64 231.614 5.64ZM231.314 11.388C231.794 11.388 232.206 11.28 232.55 11.064C232.894 10.84 233.15 10.52 233.318 10.104V9.072H231.338C230.258 9.072 229.718 9.448 229.718 10.2C229.718 10.568 229.858 10.86 230.138 11.076C230.418 11.284 230.81 11.388 231.314 11.388ZM240.903 6.444H237.291V12H236.439V5.688H240.903V6.444ZM245.386 5.64C245.978 5.64 246.514 5.776 246.994 6.048C247.474 6.312 247.85 6.688 248.122 7.176C248.394 7.664 248.53 8.22 248.53 8.844C248.53 9.476 248.394 10.036 248.122 10.524C247.85 11.012 247.474 11.392 246.994 11.664C246.522 11.928 245.986 12.06 245.386 12.06C244.874 12.06 244.41 11.956 243.994 11.748C243.586 11.532 243.25 11.22 242.986 10.812V14.328H242.134V5.688H242.95V6.936C243.206 6.52 243.542 6.2 243.958 5.976C244.382 5.752 244.858 5.64 245.386 5.64ZM245.326 11.304C245.766 11.304 246.166 11.204 246.526 11.004C246.886 10.796 247.166 10.504 247.366 10.128C247.574 9.752 247.678 9.324 247.678 8.844C247.678 8.364 247.574 7.94 247.366 7.572C247.166 7.196 246.886 6.904 246.526 6.696C246.166 6.488 245.766 6.384 245.326 6.384C244.878 6.384 244.474 6.488 244.114 6.696C243.762 6.904 243.482 7.196 243.274 7.572C243.074 7.94 242.974 8.364 242.974 8.844C242.974 9.324 243.074 9.752 243.274 10.128C243.482 10.504 243.762 10.796 244.114 11.004C244.474 11.204 244.878 11.304 245.326 11.304ZM255.88 9.108H250.6C250.648 9.764 250.9 10.296 251.356 10.704C251.812 11.104 252.388 11.304 253.084 11.304C253.476 11.304 253.836 11.236 254.164 11.1C254.492 10.956 254.776 10.748 255.016 10.476L255.496 11.028C255.216 11.364 254.864 11.62 254.44 11.796C254.024 11.972 253.564 12.06 253.06 12.06C252.412 12.06 251.836 11.924 251.332 11.652C250.836 11.372 250.448 10.988 250.168 10.5C249.888 10.012 249.748 9.46 249.748 8.844C249.748 8.228 249.88 7.676 250.144 7.188C250.416 6.7 250.784 6.32 251.248 6.048C251.72 5.776 252.248 5.64 252.832 5.64C253.416 5.64 253.94 5.776 254.404 6.048C254.868 6.32 255.232 6.7 255.496 7.188C255.76 7.668 255.892 8.22 255.892 8.844L255.88 9.108ZM252.832 6.372C252.224 6.372 251.712 6.568 251.296 6.96C250.888 7.344 250.656 7.848 250.6 8.472H255.076C255.02 7.848 254.784 7.344 254.368 6.96C253.96 6.568 253.448 6.372 252.832 6.372ZM261.798 8.736C262.654 8.936 263.082 9.452 263.082 10.284C263.082 10.836 262.878 11.26 262.47 11.556C262.062 11.852 261.454 12 260.646 12H257.778V5.688H260.562C261.282 5.688 261.846 5.828 262.254 6.108C262.662 6.388 262.866 6.788 262.866 7.308C262.866 7.652 262.77 7.948 262.578 8.196C262.394 8.436 262.134 8.616 261.798 8.736ZM258.606 8.496H260.502C260.99 8.496 261.362 8.404 261.618 8.22C261.882 8.036 262.014 7.768 262.014 7.416C262.014 7.064 261.882 6.8 261.618 6.624C261.362 6.448 260.99 6.36 260.502 6.36H258.606V8.496ZM260.61 11.328C261.154 11.328 261.562 11.24 261.834 11.064C262.106 10.888 262.242 10.612 262.242 10.236C262.242 9.86 262.118 9.584 261.87 9.408C261.622 9.224 261.23 9.132 260.694 9.132H258.606V11.328H260.61Z" fill="#7B8797"/>
<path d="M280.799 141.444H277.187V147H276.335V140.688H280.799V141.444ZM284.202 140.64C285.026 140.64 285.658 140.848 286.098 141.264C286.538 141.672 286.758 142.28 286.758 143.088V147H285.942V146.016C285.75 146.344 285.466 146.6 285.09 146.784C284.722 146.968 284.282 147.06 283.77 147.06C283.066 147.06 282.506 146.892 282.09 146.556C281.674 146.22 281.466 145.776 281.466 145.224C281.466 144.688 281.658 144.256 282.042 143.928C282.434 143.6 283.054 143.436 283.902 143.436H285.906V143.052C285.906 142.508 285.754 142.096 285.45 141.816C285.146 141.528 284.702 141.384 284.118 141.384C283.718 141.384 283.334 141.452 282.966 141.588C282.598 141.716 282.282 141.896 282.018 142.128L281.634 141.492C281.954 141.22 282.338 141.012 282.786 140.868C283.234 140.716 283.706 140.64 284.202 140.64ZM283.902 146.388C284.382 146.388 284.794 146.28 285.138 146.064C285.482 145.84 285.738 145.52 285.906 145.104V144.072H283.926C282.846 144.072 282.306 144.448 282.306 145.2C282.306 145.568 282.446 145.86 282.726 146.076C283.006 146.284 283.398 146.388 283.902 146.388ZM291.97 143.712C292.418 143.816 292.762 143.996 293.002 144.252C293.25 144.508 293.374 144.82 293.374 145.188C293.374 145.556 293.246 145.884 292.99 146.172C292.742 146.46 292.402 146.684 291.97 146.844C291.538 146.996 291.062 147.072 290.542 147.072C290.086 147.072 289.638 147.008 289.198 146.88C288.758 146.744 288.374 146.548 288.046 146.292L288.334 145.656C288.622 145.872 288.958 146.04 289.342 146.16C289.726 146.28 290.114 146.34 290.506 146.34C291.09 146.34 291.566 146.232 291.934 146.016C292.31 145.792 292.498 145.492 292.498 145.116C292.498 144.78 292.346 144.52 292.042 144.336C291.738 144.144 291.322 144.048 290.794 144.048H289.714V143.424H290.746C291.218 143.424 291.598 143.336 291.886 143.16C292.174 142.976 292.318 142.732 292.318 142.428C292.318 142.092 292.154 141.828 291.826 141.636C291.506 141.444 291.086 141.348 290.566 141.348C289.886 141.348 289.214 141.52 288.55 141.864L288.31 141.204C289.062 140.812 289.842 140.616 290.65 140.616C291.13 140.616 291.562 140.688 291.946 140.832C292.338 140.968 292.642 141.164 292.858 141.42C293.082 141.676 293.194 141.972 293.194 142.308C293.194 142.628 293.082 142.912 292.858 143.16C292.642 143.408 292.346 143.592 291.97 143.712ZM297.912 147.06C297.304 147.06 296.756 146.924 296.268 146.652C295.78 146.372 295.396 145.988 295.116 145.5C294.836 145.012 294.696 144.46 294.696 143.844C294.696 143.228 294.836 142.676 295.116 142.188C295.396 141.7 295.78 141.32 296.268 141.048C296.756 140.776 297.304 140.64 297.912 140.64C298.52 140.64 299.068 140.776 299.556 141.048C300.044 141.32 300.424 141.7 300.696 142.188C300.976 142.676 301.116 143.228 301.116 143.844C301.116 144.46 300.976 145.012 300.696 145.5C300.424 145.988 300.044 146.372 299.556 146.652C299.068 146.924 298.52 147.06 297.912 147.06ZM297.912 146.304C298.36 146.304 298.76 146.204 299.112 146.004C299.472 145.796 299.752 145.504 299.952 145.128C300.152 144.752 300.252 144.324 300.252 143.844C300.252 143.364 300.152 142.936 299.952 142.56C299.752 142.184 299.472 141.896 299.112 141.696C298.76 141.488 298.36 141.384 297.912 141.384C297.464 141.384 297.06 141.488 296.7 141.696C296.348 141.896 296.068 142.184 295.86 142.56C295.66 142.936 295.56 143.364 295.56 143.844C295.56 144.324 295.66 144.752 295.86 145.128C296.068 145.504 296.348 145.796 296.7 146.004C297.06 146.204 297.464 146.304 297.912 146.304ZM305.541 147.06C304.933 147.06 304.385 146.924 303.897 146.652C303.409 146.372 303.025 145.988 302.745 145.5C302.465 145.012 302.325 144.46 302.325 143.844C302.325 143.228 302.465 142.676 302.745 142.188C303.025 141.7 303.409 141.32 303.897 141.048C304.385 140.776 304.933 140.64 305.541 140.64C306.149 140.64 306.697 140.776 307.185 141.048C307.673 141.32 308.053 141.7 308.325 142.188C308.605 142.676 308.745 143.228 308.745 143.844C308.745 144.46 308.605 145.012 308.325 145.5C308.053 145.988 307.673 146.372 307.185 146.652C306.697 146.924 306.149 147.06 305.541 147.06ZM305.541 146.304C305.989 146.304 306.389 146.204 306.741 146.004C307.101 145.796 307.381 145.504 307.581 145.128C307.781 144.752 307.881 144.324 307.881 143.844C307.881 143.364 307.781 142.936 307.581 142.56C307.381 142.184 307.101 141.896 306.741 141.696C306.389 141.488 305.989 141.384 305.541 141.384C305.093 141.384 304.689 141.488 304.329 141.696C303.977 141.896 303.697 142.184 303.489 142.56C303.289 142.936 303.189 143.364 303.189 143.844C303.189 144.324 303.289 144.752 303.489 145.128C303.697 145.504 303.977 145.796 304.329 146.004C304.689 146.204 305.093 146.304 305.541 146.304ZM313.626 140.844C314.21 140.844 314.73 140.976 315.186 141.24C315.65 141.496 316.01 141.86 316.266 142.332C316.522 142.796 316.65 143.328 316.65 143.928C316.65 144.544 316.514 145.092 316.242 145.572C315.978 146.044 315.606 146.412 315.126 146.676C314.646 146.94 314.094 147.072 313.47 147.072C312.422 147.072 311.61 146.704 311.034 145.968C310.458 145.232 310.17 144.216 310.17 142.92C310.17 141.568 310.426 140.532 310.938 139.812C311.458 139.092 312.266 138.604 313.362 138.348L316.194 137.7L316.338 138.48L313.674 139.092C312.77 139.292 312.106 139.648 311.682 140.16C311.258 140.664 311.026 141.412 310.986 142.404C311.242 141.916 311.598 141.536 312.054 141.264C312.51 140.984 313.034 140.844 313.626 140.844ZM313.494 146.364C313.934 146.364 314.326 146.264 314.67 146.064C315.022 145.856 315.294 145.568 315.486 145.2C315.686 144.832 315.786 144.416 315.786 143.952C315.786 143.488 315.69 143.08 315.498 142.728C315.306 142.376 315.034 142.104 314.682 141.912C314.338 141.712 313.942 141.612 313.494 141.612C313.046 141.612 312.646 141.712 312.294 141.912C311.95 142.104 311.678 142.376 311.478 142.728C311.286 143.08 311.19 143.488 311.19 143.952C311.19 144.416 311.286 144.832 311.478 145.2C311.678 145.568 311.954 145.856 312.306 146.064C312.658 146.264 313.054 146.364 313.494 146.364ZM321.728 140.64C322.32 140.64 322.856 140.776 323.336 141.048C323.816 141.312 324.192 141.688 324.464 142.176C324.736 142.664 324.872 143.22 324.872 143.844C324.872 144.476 324.736 145.036 324.464 145.524C324.192 146.012 323.816 146.392 323.336 146.664C322.864 146.928 322.328 147.06 321.728 147.06C321.216 147.06 320.752 146.956 320.336 146.748C319.928 146.532 319.592 146.22 319.328 145.812V149.328H318.476V140.688H319.292V141.936C319.548 141.52 319.884 141.2 320.3 140.976C320.724 140.752 321.2 140.64 321.728 140.64ZM321.668 146.304C322.108 146.304 322.508 146.204 322.868 146.004C323.228 145.796 323.508 145.504 323.708 145.128C323.916 144.752 324.02 144.324 324.02 143.844C324.02 143.364 323.916 142.94 323.708 142.572C323.508 142.196 323.228 141.904 322.868 141.696C322.508 141.488 322.108 141.384 321.668 141.384C321.22 141.384 320.816 141.488 320.456 141.696C320.104 141.904 319.824 142.196 319.616 142.572C319.416 142.94 319.316 143.364 319.316 143.844C319.316 144.324 319.416 144.752 319.616 145.128C319.824 145.504 320.104 145.796 320.456 146.004C320.816 146.204 321.22 146.304 321.668 146.304ZM328.839 140.64C329.663 140.64 330.295 140.848 330.735 141.264C331.175 141.672 331.395 142.28 331.395 143.088V147H330.579V146.016C330.387 146.344 330.103 146.6 329.727 146.784C329.359 146.968 328.919 147.06 328.407 147.06C327.703 147.06 327.143 146.892 326.727 146.556C326.311 146.22 326.103 145.776 326.103 145.224C326.103 144.688 326.295 144.256 326.679 143.928C327.071 143.6 327.691 143.436 328.539 143.436H330.543V143.052C330.543 142.508 330.391 142.096 330.087 141.816C329.783 141.528 329.339 141.384 328.755 141.384C328.355 141.384 327.971 141.452 327.603 141.588C327.235 141.716 326.919 141.896 326.655 142.128L326.271 141.492C326.591 141.22 326.975 141.012 327.423 140.868C327.871 140.716 328.343 140.64 328.839 140.64ZM328.539 146.388C329.019 146.388 329.431 146.28 329.775 146.064C330.119 145.84 330.375 145.52 330.543 145.104V144.072H328.563C327.483 144.072 326.943 144.448 326.943 145.2C326.943 145.568 327.083 145.86 327.363 146.076C327.643 146.284 328.035 146.388 328.539 146.388ZM336.606 143.712C337.054 143.816 337.398 143.996 337.638 144.252C337.886 144.508 338.01 144.82 338.01 145.188C338.01 145.556 337.882 145.884 337.626 146.172C337.378 146.46 337.038 146.684 336.606 146.844C336.174 146.996 335.698 147.072 335.178 147.072C334.722 147.072 334.274 147.008 333.834 146.88C333.394 146.744 333.01 146.548 332.682 146.292L332.97 145.656C333.258 145.872 333.594 146.04 333.978 146.16C334.362 146.28 334.75 146.34 335.142 146.34C335.726 146.34 336.202 146.232 336.57 146.016C336.946 145.792 337.134 145.492 337.134 145.116C337.134 144.78 336.982 144.52 336.678 144.336C336.374 144.144 335.958 144.048 335.43 144.048H334.35V143.424H335.382C335.854 143.424 336.234 143.336 336.522 143.16C336.81 142.976 336.954 142.732 336.954 142.428C336.954 142.092 336.79 141.828 336.462 141.636C336.142 141.444 335.722 141.348 335.202 141.348C334.522 141.348 333.85 141.52 333.186 141.864L332.946 141.204C333.698 140.812 334.478 140.616 335.286 140.616C335.766 140.616 336.198 140.688 336.582 140.832C336.974 140.968 337.278 141.164 337.494 141.42C337.718 141.676 337.83 141.972 337.83 142.308C337.83 142.628 337.718 142.912 337.494 143.16C337.278 143.408 336.982 143.592 336.606 143.712ZM339.944 140.688H340.796V143.484H344.768V140.688H345.62V147H344.768V144.216H340.796V147H339.944V140.688ZM350.646 147.06C350.038 147.06 349.49 146.924 349.002 146.652C348.514 146.372 348.13 145.988 347.85 145.5C347.57 145.012 347.43 144.46 347.43 143.844C347.43 143.228 347.57 142.676 347.85 142.188C348.13 141.7 348.514 141.32 349.002 141.048C349.49 140.776 350.038 140.64 350.646 140.64C351.254 140.64 351.802 140.776 352.29 141.048C352.778 141.32 353.158 141.7 353.43 142.188C353.71 142.676 353.85 143.228 353.85 143.844C353.85 144.46 353.71 145.012 353.43 145.5C353.158 145.988 352.778 146.372 352.29 146.652C351.802 146.924 351.254 147.06 350.646 147.06ZM350.646 146.304C351.094 146.304 351.494 146.204 351.846 146.004C352.206 145.796 352.486 145.504 352.686 145.128C352.886 144.752 352.986 144.324 352.986 143.844C352.986 143.364 352.886 142.936 352.686 142.56C352.486 142.184 352.206 141.896 351.846 141.696C351.494 141.488 351.094 141.384 350.646 141.384C350.198 141.384 349.794 141.488 349.434 141.696C349.082 141.896 348.802 142.184 348.594 142.56C348.394 142.936 348.294 143.364 348.294 143.844C348.294 144.324 348.394 144.752 348.594 145.128C348.802 145.504 349.082 145.796 349.434 146.004C349.794 146.204 350.198 146.304 350.646 146.304ZM361.191 144.108H355.911C355.959 144.764 356.211 145.296 356.667 145.704C357.123 146.104 357.699 146.304 358.395 146.304C358.787 146.304 359.147 146.236 359.475 146.1C359.803 145.956 360.087 145.748 360.327 145.476L360.807 146.028C360.527 146.364 360.175 146.62 359.751 146.796C359.335 146.972 358.875 147.06 358.371 147.06C357.723 147.06 357.147 146.924 356.643 146.652C356.147 146.372 355.759 145.988 355.479 145.5C355.199 145.012 355.059 144.46 355.059 143.844C355.059 143.228 355.191 142.676 355.455 142.188C355.727 141.7 356.095 141.32 356.559 141.048C357.031 140.776 357.559 140.64 358.143 140.64C358.727 140.64 359.251 140.776 359.715 141.048C360.179 141.32 360.543 141.7 360.807 142.188C361.071 142.668 361.203 143.22 361.203 143.844L361.191 144.108ZM358.143 141.372C357.535 141.372 357.023 141.568 356.607 141.96C356.199 142.344 355.967 142.848 355.911 143.472H360.387C360.331 142.848 360.095 142.344 359.679 141.96C359.271 141.568 358.759 141.372 358.143 141.372ZM289.967 162.06C289.343 162.06 288.783 161.924 288.287 161.652C287.799 161.38 287.415 161 287.135 160.512C286.855 160.016 286.715 159.46 286.715 158.844C286.715 158.228 286.855 157.676 287.135 157.188C287.415 156.7 287.799 156.32 288.287 156.048C288.783 155.776 289.343 155.64 289.967 155.64C290.511 155.64 290.995 155.748 291.419 155.964C291.851 156.172 292.191 156.48 292.439 156.888L291.803 157.32C291.595 157.008 291.331 156.776 291.011 156.624C290.691 156.464 290.343 156.384 289.967 156.384C289.511 156.384 289.099 156.488 288.731 156.696C288.371 156.896 288.087 157.184 287.879 157.56C287.679 157.936 287.579 158.364 287.579 158.844C287.579 159.332 287.679 159.764 287.879 160.14C288.087 160.508 288.371 160.796 288.731 161.004C289.099 161.204 289.511 161.304 289.967 161.304C290.343 161.304 290.691 161.228 291.011 161.076C291.331 160.924 291.595 160.692 291.803 160.38L292.439 160.812C292.191 161.22 291.851 161.532 291.419 161.748C290.987 161.956 290.503 162.06 289.967 162.06ZM296.587 162.06C295.979 162.06 295.431 161.924 294.943 161.652C294.455 161.372 294.071 160.988 293.791 160.5C293.511 160.012 293.371 159.46 293.371 158.844C293.371 158.228 293.511 157.676 293.791 157.188C294.071 156.7 294.455 156.32 294.943 156.048C295.431 155.776 295.979 155.64 296.587 155.64C297.195 155.64 297.743 155.776 298.231 156.048C298.719 156.32 299.099 156.7 299.371 157.188C299.651 157.676 299.791 158.228 299.791 158.844C299.791 159.46 299.651 160.012 299.371 160.5C299.099 160.988 298.719 161.372 298.231 161.652C297.743 161.924 297.195 162.06 296.587 162.06ZM296.587 161.304C297.035 161.304 297.435 161.204 297.787 161.004C298.147 160.796 298.427 160.504 298.627 160.128C298.827 159.752 298.927 159.324 298.927 158.844C298.927 158.364 298.827 157.936 298.627 157.56C298.427 157.184 298.147 156.896 297.787 156.696C297.435 156.488 297.035 156.384 296.587 156.384C296.139 156.384 295.735 156.488 295.375 156.696C295.023 156.896 294.743 157.184 294.535 157.56C294.335 157.936 294.235 158.364 294.235 158.844C294.235 159.324 294.335 159.752 294.535 160.128C294.743 160.504 295.023 160.796 295.375 161.004C295.735 161.204 296.139 161.304 296.587 161.304ZM304.252 162.06C303.628 162.06 303.068 161.924 302.572 161.652C302.084 161.38 301.7 161 301.42 160.512C301.14 160.016 301 159.46 301 158.844C301 158.228 301.14 157.676 301.42 157.188C301.7 156.7 302.084 156.32 302.572 156.048C303.068 155.776 303.628 155.64 304.252 155.64C304.796 155.64 305.28 155.748 305.704 155.964C306.136 156.172 306.476 156.48 306.724 156.888L306.088 157.32C305.88 157.008 305.616 156.776 305.296 156.624C304.976 156.464 304.628 156.384 304.252 156.384C303.796 156.384 303.384 156.488 303.016 156.696C302.656 156.896 302.372 157.184 302.164 157.56C301.964 157.936 301.864 158.364 301.864 158.844C301.864 159.332 301.964 159.764 302.164 160.14C302.372 160.508 302.656 160.796 303.016 161.004C303.384 161.204 303.796 161.304 304.252 161.304C304.628 161.304 304.976 161.228 305.296 161.076C305.616 160.924 305.88 160.692 306.088 160.38L306.724 160.812C306.476 161.22 306.136 161.532 305.704 161.748C305.272 161.956 304.788 162.06 304.252 162.06ZM312.697 156.444H310.309V162H309.457V156.444H307.069V155.688H312.697V156.444ZM316.24 162.06C315.632 162.06 315.084 161.924 314.596 161.652C314.108 161.372 313.724 160.988 313.444 160.5C313.164 160.012 313.024 159.46 313.024 158.844C313.024 158.228 313.164 157.676 313.444 157.188C313.724 156.7 314.108 156.32 314.596 156.048C315.084 155.776 315.632 155.64 316.24 155.64C316.848 155.64 317.396 155.776 317.884 156.048C318.372 156.32 318.752 156.7 319.024 157.188C319.304 157.676 319.444 158.228 319.444 158.844C319.444 159.46 319.304 160.012 319.024 160.5C318.752 160.988 318.372 161.372 317.884 161.652C317.396 161.924 316.848 162.06 316.24 162.06ZM316.24 161.304C316.688 161.304 317.088 161.204 317.44 161.004C317.8 160.796 318.08 160.504 318.28 160.128C318.48 159.752 318.58 159.324 318.58 158.844C318.58 158.364 318.48 157.936 318.28 157.56C318.08 157.184 317.8 156.896 317.44 156.696C317.088 156.488 316.688 156.384 316.24 156.384C315.792 156.384 315.388 156.488 315.028 156.696C314.676 156.896 314.396 157.184 314.188 157.56C313.988 157.936 313.888 158.364 313.888 158.844C313.888 159.324 313.988 159.752 314.188 160.128C314.396 160.504 314.676 160.796 315.028 161.004C315.388 161.204 315.792 161.304 316.24 161.304ZM325.89 155.688V162H325.11V159.912H323.13H322.89L321.426 162H320.502L322.074 159.792C321.586 159.656 321.21 159.424 320.946 159.096C320.682 158.768 320.55 158.352 320.55 157.848C320.55 157.144 320.79 156.608 321.27 156.24C321.75 155.872 322.406 155.688 323.238 155.688H325.89ZM321.414 157.872C321.414 158.808 322.01 159.276 323.202 159.276H325.11V156.444H323.262C322.03 156.444 321.414 156.92 321.414 157.872ZM328.319 155.688H329.171V158.484H333.143V155.688H333.995V162H333.143V159.216H329.171V162H328.319V155.688ZM336.417 155.688H337.269V160.704L341.481 155.688H342.237V162H341.385V156.984L337.185 162H336.417V155.688ZM350.199 159.108H344.919C344.967 159.764 345.219 160.296 345.675 160.704C346.131 161.104 346.707 161.304 347.403 161.304C347.795 161.304 348.155 161.236 348.483 161.1C348.811 160.956 349.095 160.748 349.335 160.476L349.815 161.028C349.535 161.364 349.183 161.62 348.759 161.796C348.343 161.972 347.883 162.06 347.379 162.06C346.731 162.06 346.155 161.924 345.651 161.652C345.155 161.372 344.767 160.988 344.487 160.5C344.207 160.012 344.067 159.46 344.067 158.844C344.067 158.228 344.199 157.676 344.463 157.188C344.735 156.7 345.103 156.32 345.567 156.048C346.039 155.776 346.567 155.64 347.151 155.64C347.735 155.64 348.259 155.776 348.723 156.048C349.187 156.32 349.551 156.7 349.815 157.188C350.079 157.668 350.211 158.22 350.211 158.844L350.199 159.108ZM347.151 156.372C346.543 156.372 346.031 156.568 345.615 156.96C345.207 157.344 344.975 157.848 344.919 158.472H349.395C349.339 157.848 349.103 157.344 348.687 156.96C348.279 156.568 347.767 156.372 347.151 156.372Z" fill="#7B8797"/>
<path d="M91.3765 143.736C92.2325 143.936 92.6605 144.452 92.6605 145.284C92.6605 145.836 92.4565 146.26 92.0485 146.556C91.6405 146.852 91.0325 147 90.2245 147H87.3565V140.688H90.1405C90.8605 140.688 91.4245 140.828 91.8325 141.108C92.2405 141.388 92.4445 141.788 92.4445 142.308C92.4445 142.652 92.3485 142.948 92.1565 143.196C91.9725 143.436 91.7125 143.616 91.3765 143.736ZM88.1845 143.496H90.0805C90.5685 143.496 90.9405 143.404 91.1965 143.22C91.4605 143.036 91.5925 142.768 91.5925 142.416C91.5925 142.064 91.4605 141.8 91.1965 141.624C90.9405 141.448 90.5685 141.36 90.0805 141.36H88.1845V143.496ZM90.1885 146.328C90.7325 146.328 91.1405 146.24 91.4125 146.064C91.6845 145.888 91.8205 145.612 91.8205 145.236C91.8205 144.86 91.6965 144.584 91.4485 144.408C91.2005 144.224 90.8085 144.132 90.2725 144.132H88.1845V146.328H90.1885ZM96.8293 140.64C97.6533 140.64 98.2853 140.848 98.7253 141.264C99.1653 141.672 99.3853 142.28 99.3853 143.088V147H98.5693V146.016C98.3773 146.344 98.0933 146.6 97.7173 146.784C97.3493 146.968 96.9093 147.06 96.3973 147.06C95.6933 147.06 95.1333 146.892 94.7173 146.556C94.3013 146.22 94.0933 145.776 94.0933 145.224C94.0933 144.688 94.2853 144.256 94.6693 143.928C95.0613 143.6 95.6813 143.436 96.5293 143.436H98.5333V143.052C98.5333 142.508 98.3813 142.096 98.0773 141.816C97.7733 141.528 97.3293 141.384 96.7453 141.384C96.3453 141.384 95.9613 141.452 95.5933 141.588C95.2253 141.716 94.9093 141.896 94.6453 142.128L94.2613 141.492C94.5813 141.22 94.9653 141.012 95.4133 140.868C95.8613 140.716 96.3333 140.64 96.8293 140.64ZM96.5293 146.388C97.0093 146.388 97.4213 146.28 97.7653 146.064C98.1093 145.84 98.3653 145.52 98.5333 145.104V144.072H96.5533C95.4733 144.072 94.9333 144.448 94.9333 145.2C94.9333 145.568 95.0733 145.86 95.3533 146.076C95.6333 146.284 96.0253 146.388 96.5293 146.388ZM103.945 144.192H102.505V147H101.653V140.688H102.505V143.46H103.957L106.177 140.688H107.101L104.617 143.748L107.281 147H106.273L103.945 144.192ZM113.627 140.688L110.471 147.756C110.215 148.348 109.919 148.768 109.583 149.016C109.247 149.264 108.843 149.388 108.371 149.388C108.067 149.388 107.783 149.34 107.519 149.244C107.255 149.148 107.027 149.004 106.835 148.812L107.231 148.176C107.551 148.496 107.935 148.656 108.383 148.656C108.671 148.656 108.915 148.576 109.115 148.416C109.323 148.256 109.515 147.984 109.691 147.6L109.967 146.988L107.147 140.688H108.035L110.411 146.052L112.787 140.688H113.627ZM120.26 140.688L117.104 147.756C116.848 148.348 116.552 148.768 116.216 149.016C115.88 149.264 115.476 149.388 115.004 149.388C114.7 149.388 114.416 149.34 114.152 149.244C113.888 149.148 113.66 149.004 113.468 148.812L113.864 148.176C114.184 148.496 114.568 148.656 115.016 148.656C115.304 148.656 115.548 148.576 115.748 148.416C115.956 148.256 116.148 147.984 116.324 147.6L116.6 146.988L113.78 140.688H114.668L117.044 146.052L119.42 140.688H120.26ZM128.643 140.688V147H127.863V142.008L125.307 146.232H124.923L122.367 141.996V147H121.587V140.688H122.451L125.127 145.236L127.851 140.688H128.643Z" fill="#7B8797"/>
<path d="M53 52.9C53 62.3441 45.3888 70 36 70C26.6112 70 19 62.3441 19 52.9C19 35.8 36 22 36 22C36 22 53 35.8 53 52.9Z" fill="#FFE09A"/>
<path d="M76.8419 104.842C79.486 89.199 94.2573 78.3166 109.833 80.5286C123.049 82.4174 131.942 94.6972 129.696 107.962C127.788 119.232 117.147 127.064 105.934 125.476C96.416 124.12 90.013 115.274 91.633 105.714C93.0139 97.5998 100.676 91.954 108.746 93.1017C115.605 94.0746 120.217 100.445 119.054 107.333C118.069 113.179 112.546 117.243 106.726 116.42C101.789 115.722 98.4669 111.123 99.3021 106.165C100.017 101.957 103.992 99.0267 108.181 99.6258C111.743 100.133 114.134 103.431 113.528 107.008" stroke="#202945" stroke-miterlimit="10" stroke-linejoin="round"/>
<path d="M72.6066 81.1066C72.8827 81.1066 73.1066 80.8827 73.1066 80.6066L73.1066 76.1066C73.1066 75.8305 72.8827 75.6066 72.6066 75.6066C72.3305 75.6066 72.1066 75.8305 72.1066 76.1066L72.1066 80.1066L68.1066 80.1066C67.8305 80.1066 67.6066 80.3305 67.6066 80.6066C67.6066 80.8827 67.8305 81.1066 68.1066 81.1066L72.6066 81.1066ZM61.6464 70.3536L72.253 80.9602L72.9602 80.253L62.3536 69.6464L61.6464 70.3536Z" fill="#202945"/>
<path d="M336 105.9C336 115.344 328.389 123 319 123C309.611 123 302 115.344 302 105.9C302 88.8 319 75 319 75C319 75 336 88.8 336 105.9Z" fill="#FFE09A"/>
<path d="M281.607 81.1066C281.883 81.1066 282.107 80.8827 282.107 80.6066L282.107 76.1066C282.107 75.8305 281.883 75.6066 281.607 75.6066C281.33 75.6066 281.107 75.8305 281.107 76.1066L281.107 80.1066L277.107 80.1066C276.83 80.1066 276.607 80.3305 276.607 80.6066C276.607 80.8827 276.83 81.1066 277.107 81.1066L281.607 81.1066ZM270.646 70.3536L281.253 80.9602L281.96 80.253L271.354 69.6464L270.646 70.3536Z" fill="#202945"/>
<path d="M252.629 40.5216C251.206 39.3306 249.843 38.0431 248.721 36.563C242.319 28.1028 245.632 21 245.632 21C233.751 26.0621 231.051 34.0933 230.922 40.075L230.93 40.1363C230.93 40.1363 231.034 43.6745 232.621 47.5193C233.13 48.7454 232.293 50.1204 230.999 50.3131C230.093 50.4445 229.222 49.954 228.842 49.122C228.161 47.6156 227.263 45.2335 227.522 43.5432C225.564 46.1793 224.295 49.4023 224.045 52.9843C223.415 61.8124 229.455 69.8873 237.996 71.6389C248.013 73.6971 257.496 66.7257 258.842 56.6101C259.678 50.2956 257.142 44.3051 252.629 40.5216Z" stroke="#202945" stroke-miterlimit="10" stroke-linejoin="round"/>
<path d="M302 91C302 99.05 306 99.05 306 107.09C306 115.13 302 115.14 302 123.18" stroke="#202945" stroke-miterlimit="10" stroke-linejoin="round"/>
<path d="M317.48 91C317.48 99.05 321.48 99.05 321.48 107.09C321.48 115.14 317.48 115.14 317.48 123.18" stroke="#202945" stroke-miterlimit="10" stroke-linejoin="round"/>
<path d="M332.961 91C332.961 99.05 336.961 99.05 336.961 107.09C336.961 115.13 332.961 115.14 332.961 123.18" stroke="#202945" stroke-miterlimit="10" stroke-linejoin="round"/>
</svg>
