<svg width="77" height="68" viewBox="0 0 77 68" fill="none" xmlns="http://www.w3.org/2000/svg">
<path d="M53.4725 34.0034C51.2952 26.0142 45.0397 19.5967 36.8019 17.3866C36.1845 17.2229 35.7133 16.6826 35.632 16.0441C35.5508 15.7331 35.5508 15.422 35.5508 15.0946C35.5508 11.3128 37.8905 8.08767 41.4164 6.82708C42.115 6.59789 42.5862 5.95941 42.5862 5.3373V3.68379C42.5862 3.20903 42.3588 2.73426 41.9688 2.4232C41.5789 2.19401 41.1077 2.03029 40.6365 2.19401C36.4932 3.29088 33.2111 6.45054 31.7325 10.4615C31.1151 12.2787 29.3115 13.5393 27.3617 13.5393H21.7724C20.765 13.5393 19.9363 12.7208 19.9363 11.6894V3.29088C19.9363 2.4232 19.2377 1.71924 18.3765 1.71924H16.8167C15.9556 1.71924 15.2569 2.4232 15.2569 3.29088V22.9856C15.2569 23.8532 14.5582 24.5572 13.6971 24.5572H12.1047C11.2436 24.5572 10.5449 25.2612 10.5449 26.1288V27.7005C10.5449 28.5682 11.2436 29.2721 12.1047 29.2721H12.186C13.7458 29.2721 15.0457 30.4836 15.1594 32.0389L15.2894 33.7742C15.3056 34.1017 15.3381 34.4291 15.3706 34.7565L15.4031 35.2313L15.4194 35.2477C15.6468 37.425 16.0855 39.5533 16.6867 41.5834" stroke="#202945" stroke-width="2" stroke-miterlimit="10" stroke-linejoin="round"/>
<path d="M21.2031 51.0949C27.4099 60.2792 37.8575 66.3202 49.6861 66.3038C52.2533 66.3038 54.3168 64.1592 54.3168 61.5725V45.1357" stroke="#202945" stroke-width="2" stroke-miterlimit="10" stroke-linejoin="round"/>
<path d="M19.9199 6.82666V19.5308C19.9199 21.6099 21.5935 23.3126 23.6732 23.3126C26.9554 23.3126 29.6038 25.9811 29.6038 29.2881V39.9458" stroke="#202945" stroke-width="2" stroke-miterlimit="10" stroke-linejoin="round"/>
<path d="M12.1855 29.2881H21.382C22.8606 29.2881 24.0629 30.4996 24.0629 31.9894V39.9458" stroke="#202945" stroke-width="2" stroke-miterlimit="10" stroke-linejoin="round"/>
<path d="M76.9999 39.9135H47.2658L43.61 54.0256L36.9483 28.2899L30.3028 54.0256L28.028 45.3488H0" stroke="#202945" stroke-width="2" stroke-miterlimit="10" stroke-linejoin="round"/>
</svg>
