<svg width="72" height="58" viewBox="0 0 72 58" fill="none" xmlns="http://www.w3.org/2000/svg">
<path d="M42.5481 54.3651L37.1909 56.5899L20.5043 49.7132C16.7107 48.1458 14.25 44.4799 14.25 40.4348V34.1396" stroke="#202945" stroke-width="2" stroke-miterlimit="10" stroke-linejoin="round"/>
<path d="M14.2227 22.814V5.95101C14.2227 3.67565 16.0938 1.83008 18.4007 1.83008H55.9264C58.2333 1.83008 60.1045 3.67565 60.1045 5.95101V22.814" stroke="#202945" stroke-width="2" stroke-miterlimit="10" stroke-linejoin="round"/>
<path d="M60.4384 45.6177H46.3663C42.4189 45.6177 39.2148 42.4575 39.2148 38.5641C39.2148 34.6707 42.4189 31.5105 46.3663 31.5105H60.4384C64.3858 31.5105 67.5898 34.6707 67.5898 38.5641C67.5898 42.4575 64.3858 45.6177 60.4384 45.6177Z" stroke="#202945" stroke-width="2" stroke-miterlimit="10" stroke-linejoin="round"/>
<path d="M53.3906 49.9661V45.6177" stroke="#202945" stroke-width="2" stroke-miterlimit="10" stroke-linejoin="round"/>
<path d="M53.3906 31.536V27.1875" stroke="#202945" stroke-width="2" stroke-miterlimit="10" stroke-linejoin="round"/>
<path d="M59.9512 49.9661V45.6177" stroke="#202945" stroke-width="2" stroke-miterlimit="10" stroke-linejoin="round"/>
<path d="M59.9512 31.536V27.1875" stroke="#202945" stroke-width="2" stroke-miterlimit="10" stroke-linejoin="round"/>
<path d="M34.8066 38.5894H39.2154" stroke="#202945" stroke-width="2" stroke-miterlimit="10" stroke-linejoin="round"/>
<path d="M67.5898 38.5894H71.9986" stroke="#202945" stroke-width="2" stroke-miterlimit="10" stroke-linejoin="round"/>
<path d="M46.8281 49.9661V45.6177" stroke="#202945" stroke-width="2" stroke-miterlimit="10" stroke-linejoin="round"/>
<path d="M46.8281 31.536V27.1875" stroke="#202945" stroke-width="2" stroke-miterlimit="10" stroke-linejoin="round"/>
<path d="M31.4998 6.76025L23.1693 14.9516C21.4263 16.6707 21.4263 19.477 23.1693 21.2214C24.9123 22.9406 24.9123 25.7469 23.1693 27.4913L21.862 28.7807C20.119 30.4999 17.2738 30.4999 15.5052 28.7807C13.7622 27.0615 10.917 27.0615 9.1484 28.7807L8.04621 29.8931C6.30321 31.6123 6.30321 34.4186 8.04621 36.163C9.78921 37.8822 9.78921 40.6884 8.04621 42.4329L1.07422 49.3095" stroke="#202945" stroke-width="2" stroke-miterlimit="10" stroke-linejoin="round"/>
</svg>
