<svg width="30" height="30" viewBox="0 0 30 30" fill="none" xmlns="http://www.w3.org/2000/svg">
<path d="M21.5833 0.305664H7.62553C3.41957 0.305664 0 3.7225 0 7.92298V21.8917C0 26.1032 3.41683 29.509 7.62553 29.509H21.5833C25.7893 29.509 29.2088 26.1032 29.2088 21.8917V7.92572C29.2061 3.72524 25.7893 0.305664 21.5833 0.305664ZM21.5833 25.8511H7.62553C5.44172 25.8511 3.66891 24.0728 3.66891 21.8944V7.92572C3.66891 5.74739 5.44172 3.9828 7.62553 3.9828H21.5833C23.7671 3.9828 25.5399 5.75013 25.5399 7.92572V21.8944C25.5372 24.0728 23.7644 25.8511 21.5833 25.8511Z" fill="#202945"/>
<path d="M14.6045 6.6709C10.0643 6.6709 6.36523 10.37 6.36523 14.9157C6.36523 19.4477 10.0643 23.1495 14.6045 23.1495C19.1503 23.1495 22.8438 19.4505 22.8438 14.9157C22.8438 10.37 19.1503 6.6709 14.6045 6.6709ZM14.6045 19.4751C12.081 19.4751 10.0396 17.4393 10.0396 14.9157C10.0396 12.3921 12.081 10.3453 14.6045 10.3453C17.1199 10.3453 19.1749 12.3948 19.1749 14.9157C19.1749 17.4393 17.1199 19.4751 14.6045 19.4751Z" fill="#202945"/>
<path d="M20.8566 5.7959C19.7688 5.7959 18.8838 6.69189 18.8838 7.76873C18.8838 8.85652 19.7688 9.75252 20.8566 9.75252C21.9389 9.75252 22.8294 8.85652 22.8294 7.76873C22.8267 6.69189 21.9389 5.7959 20.8566 5.7959Z" fill="#202945"/>
</svg>
