<svg width="52" height="69" viewBox="0 0 52 69" fill="none" xmlns="http://www.w3.org/2000/svg">
<path d="M25.9941 0V57.8291" stroke="#202945" stroke-width="2" stroke-miterlimit="10" stroke-linejoin="round"/>
<path d="M15.0273 37.6606H25.7324" stroke="#202945" stroke-width="2" stroke-miterlimit="10" stroke-linejoin="round"/>
<path d="M22.3105 44.061H29.6909" stroke="#202945" stroke-width="2" stroke-miterlimit="10" stroke-linejoin="round"/>
<path d="M22.3105 48.8765H29.6909" stroke="#202945" stroke-width="2" stroke-miterlimit="10" stroke-linejoin="round"/>
<path d="M22.3105 53.6772H29.6909" stroke="#202945" stroke-width="2" stroke-miterlimit="10" stroke-linejoin="round"/>
<path d="M7.97656 32.0461H26.0068" stroke="#202945" stroke-width="2" stroke-miterlimit="10" stroke-linejoin="round"/>
<path d="M7.97656 25.6313H26.0068" stroke="#202945" stroke-width="2" stroke-miterlimit="10" stroke-linejoin="round"/>
<path d="M7.97656 19.2168H26.0068" stroke="#202945" stroke-width="2" stroke-miterlimit="10" stroke-linejoin="round"/>
<path d="M10.1836 12.8159H25.9928" stroke="#202945" stroke-width="2" stroke-miterlimit="10" stroke-linejoin="round"/>
<path d="M25.9938 6.6352H14.9439C13.523 6.6352 12.378 5.49021 12.378 4.06931C12.378 2.64841 11.2331 1.50342 9.81216 1.50342H0.886719" stroke="#202945" stroke-width="2" stroke-miterlimit="10" stroke-linejoin="round"/>
<path d="M21.9527 66.1204L16.8209 60.9886C15.538 59.7056 13.4687 59.7056 12.1858 60.9886L10.8477 62.3543" stroke="#202945" stroke-width="2" stroke-miterlimit="10" stroke-linejoin="round"/>
<path d="M37.0722 37.6746H26.3672" stroke="#202945" stroke-width="2" stroke-miterlimit="10" stroke-linejoin="round"/>
<path d="M44.1201 32.0461H26.0898" stroke="#202945" stroke-width="2" stroke-miterlimit="10" stroke-linejoin="round"/>
<path d="M44.1201 25.645H26.0898" stroke="#202945" stroke-width="2" stroke-miterlimit="10" stroke-linejoin="round"/>
<path d="M44.1201 19.2305H26.0898" stroke="#202945" stroke-width="2" stroke-miterlimit="10" stroke-linejoin="round"/>
<path d="M40.3264 12.8291H26.0898" stroke="#202945" stroke-width="2" stroke-miterlimit="10" stroke-linejoin="round"/>
<path d="M26.1035 6.64936H37.1534C38.5743 6.64936 39.7193 5.50437 39.7193 4.08347C39.7193 2.66257 40.8643 1.51758 42.2852 1.51758H51.2244" stroke="#202945" stroke-width="2" stroke-miterlimit="10" stroke-linejoin="round"/>
<path d="M41.7748 68.41L46.3962 60.533C46.9342 59.6225 47.2101 58.5879 47.2101 57.5394C47.2101 54.27 44.5615 51.6075 41.2782 51.6075H36.6707C34.8497 51.6075 33.3736 53.0836 33.3736 54.9046C33.3736 56.7255 31.8975 58.2016 30.0766 58.2016L22.0202 58.1878C20.1993 58.1878 18.7232 56.7117 18.7232 54.8908C18.7232 53.0698 17.2471 51.5938 15.4262 51.5938H10.8186C7.54918 51.5938 4.88672 54.2424 4.88672 57.5256C4.88672 58.5741 5.16262 59.6087 5.70063 60.5192L10.322 68.3962" stroke="#202945" stroke-width="2" stroke-miterlimit="10" stroke-linejoin="round"/>
<path d="M30.1465 66.134L35.2783 61.0022C36.5612 59.7193 38.6305 59.7193 39.9134 61.0022L41.2653 62.3542" stroke="#202945" stroke-width="2" stroke-miterlimit="10" stroke-linejoin="round"/>
</svg>
