<svg width="25" height="26" viewBox="0 0 25 26" fill="none" xmlns="http://www.w3.org/2000/svg">
<path d="M22.153 11.376H2.74414V25.0001H22.153V11.376Z" stroke="#202945" stroke-miterlimit="10"/>
<path d="M23.8981 6.36035H1V11.3761H23.8981V6.36035Z" stroke="#202945" stroke-miterlimit="10"/>
<path d="M10.1816 25.0002V6.36035" stroke="#202945" stroke-miterlimit="10"/>
<path d="M14.7168 25.0002V6.36035" stroke="#202945" stroke-miterlimit="10"/>
<path d="M7.48462 6.36012C6.00399 6.36012 4.79883 5.15495 4.79883 3.67432C4.79883 2.19369 6.00399 1 7.48462 1C11.2608 1 12.443 6.36012 12.443 6.36012C12.443 6.36012 8.96526 6.36012 7.48462 6.36012Z" stroke="#202945" stroke-miterlimit="10"/>
<path d="M17.4135 6.36012C18.8941 6.36012 20.0993 5.15495 20.0993 3.67432C20.0993 2.19369 18.8941 1 17.4135 1C13.6373 1 12.4551 6.36012 12.4551 6.36012C12.4551 6.36012 15.9328 6.36012 17.4135 6.36012Z" stroke="#202945" stroke-miterlimit="10"/>
</svg>
