<svg width="36" height="38" viewBox="0 0 36 38" fill="none" xmlns="http://www.w3.org/2000/svg">
<rect x="2.5" y="13.5" width="11" height="24" stroke="#202945"/>
<rect x="22.5" y="13.5" width="11" height="24" stroke="#202945"/>
<rect x="0.5" y="9.5" width="13" height="4" stroke="#202945"/>
<rect x="22.5" y="9.5" width="13" height="4" stroke="#202945"/>
<rect x="13.5" y="9.5" width="9" height="28" stroke="#202945"/>
<path d="M18 9V9.5H18.6293L18.4871 8.88701L18 9ZM18 9C18.4871 8.88701 18.487 8.88681 18.487 8.88658L18.4868 8.88597L18.4864 8.88421L18.4851 8.8785L18.4803 8.85856C18.4761 8.84154 18.47 8.81714 18.462 8.78585C18.4459 8.72327 18.422 8.63309 18.3895 8.51925C18.3247 8.29166 18.2259 7.96887 18.0885 7.58253C17.8144 6.81151 17.3841 5.77885 16.7594 4.74197C15.5189 2.68311 13.4407 0.5 10.2162 0.5C7.6427 0.5 5.5 2.47924 5.5 4.99143C5.5 7.50092 7.63985 9.5 10.2162 9.5H10.2299H10.2436H10.2574H10.2713H10.2852H10.2992H10.3133H10.3274H10.3416H10.3559H10.3703H10.3847H10.3992H10.4137H10.4284H10.443H10.4578H10.4726H10.4875H10.5024H10.5174H10.5325H10.5477H10.5629H10.5781H10.5934H10.6088H10.6243H10.6398H10.6554H10.671H10.6867H10.7024H10.7182H10.7341H10.75H10.766H10.782H10.7981H10.8143H10.8305H10.8468H10.8631H10.8795H10.8959H10.9124H10.9289H10.9455H10.9622H10.9789H10.9956H11.0124H11.0293H11.0462H11.0631H11.0802H11.0972H11.1143H11.1315H11.1487H11.166H11.1833H11.2006H11.218H11.2355H11.253H11.2705H11.2881H11.3057H11.3234H11.3411H11.3589H11.3767H11.3946H11.4125H11.4304H11.4484H11.4664H11.4845H11.5026H11.5207H11.5389H11.5572H11.5754H11.5937H11.6121H11.6305H11.6489H11.6674H11.6859H11.7044H11.723H11.7416H11.7602H11.7789H11.7977H11.8164H11.8352H11.854H11.8729H11.8918H11.9107H11.9296H11.9486H11.9677H11.9867H12.0058H12.0249H12.044H12.0632H12.0824H12.1017H12.1209H12.1402H12.1595H12.1789H12.1982H12.2176H12.2371H12.2565H12.276H12.2955H12.315H12.3346H12.3541H12.3737H12.3934H12.413H12.4327H12.4524H12.4721H12.4918H12.5116H12.5313H12.5511H12.5709H12.5908H12.6106H12.6305H12.6504H12.6703H12.6902H12.7102H12.7301H12.7501H12.7701H12.7901H12.8101H12.8302H12.8502H12.8703H12.8904H12.9105H12.9306H12.9507H12.9708H12.991H13.0111H13.0313H13.0515H13.0717H13.0919H13.1121H13.1323H13.1525H13.1727H13.193H13.2132H13.2335H13.2538H13.274H13.2943H13.3146H13.3349H13.3552H13.3755H13.3958H13.4161H13.4364H13.4567H13.477H13.4973H13.5176H13.5379H13.5583H13.5786H13.5989H13.6192H13.6395H13.6599H13.6802H13.7005H13.7208H13.7411H13.7614H13.7817H13.802H13.8223H13.8426H13.8629H13.8832H13.9035H13.9237H13.944H13.9643H13.9845H14.0048H14.025H14.0452H14.0655H14.0857H14.1059H14.1261H14.1462H14.1664H14.1866H14.2067H14.2269H14.247H14.2671H14.2872H14.3073H14.3274H14.3474H14.3675H14.3875H14.4075H14.4275H14.4475H14.4675H14.4874H14.5074H14.5273H14.5472H14.5671H14.5869H14.6068H14.6266H14.6464H14.6662H14.686H14.7057H14.7254H14.7451H14.7648H14.7845H14.8041H14.8237H14.8433H14.8629H14.8824H14.9019H14.9214H14.9409H14.9603H14.9797H14.9991H15.0185H15.0378H15.0571H15.0764H15.0956H15.1149H15.134H15.1532H15.1723H15.1914H15.2105H15.2295H15.2485H15.2675H15.2865H15.3054H15.3242H15.3431H15.3619H15.3807H15.3994H15.4181H15.4368H15.4554H15.474H15.4926H15.5111H15.5296H15.548H15.5664H15.5848H15.6031H15.6214H15.6397H15.6579H15.6761H15.6942H15.7123H15.7303H15.7483H15.7663H15.7842H15.8021H15.8199H15.8377H15.8555H15.8732H15.8908H15.9084H15.926H15.9435H15.961H15.9784H15.9958H16.0131H16.0304H16.0477H16.0648H16.082H16.0991H16.1161H16.1331H16.15H16.1669H16.1837H16.2005H16.2172H16.2339H16.2505H16.2671H16.2836H16.3001H16.3165H16.3328H16.3491H16.3654H16.3816H16.3977H16.4138H16.4298H16.4457H16.4616H16.4775H16.4933H16.509H16.5246H16.5402H16.5558H16.5713H16.5867H16.602H16.6173H16.6326H16.6477H16.6628H16.6779H16.6929H16.7078H16.7226H16.7374H16.7521H16.7668H16.7814H16.7959H16.8103H16.8247H16.8391H16.8533H16.8675H16.8816H16.8957H16.9096H16.9235H16.9374H16.9511H16.9648H16.9784H16.992H17.0055H17.0189H17.0322H17.0455H17.0587H17.0718H17.0848H17.0978H17.1106H17.1235H17.1362H17.1488H17.1614H17.1739H17.1863H17.1987H17.211H17.2232H17.2353H17.2473H17.2592H17.2711H17.2829H17.2946H17.3062H17.3178H17.3292H17.3406H17.3519H17.3631H17.3743H17.3853H17.3963H17.4071H17.4179H17.4286H17.4392H17.4498H17.4602H17.4706H17.4809H17.491H17.5011H17.5111H17.521H17.5309H17.5406H17.5503H17.5598H17.5693H17.5786H17.5879H17.5971H17.6062H17.6152H17.6241H17.6329H17.6416H17.6503H17.6588H17.6672H17.6756H17.6838H17.692H17.7H17.708H17.7158H17.7236H17.7312H17.7388H17.7463H17.7536H17.7609H17.768H17.7751H17.7821H17.7889H17.7957H17.8023H17.8089H17.8153H17.8217H17.8279H17.834H17.8401H17.846H17.8518H17.8575H17.8631H17.8686H17.874H17.8793H17.8845H17.8896H17.8945H17.8994H17.9041H17.9088H17.9133H17.9177H17.922H17.9262H17.9303H17.9343H17.9381H17.9419H17.9455H17.949H17.9524H17.9557H17.9589H17.962H17.9649H17.9677H17.9704H17.973H17.9755H17.9779H17.9801H17.9823H17.9843H17.9862H17.9879H17.9896H17.9911H17.9925H17.9938H17.995H17.996H17.997H17.9978H17.9984H17.999H17.9994H17.9998H17.9999L18 9Z" stroke="#202945" stroke-miterlimit="10"/>
<path d="M18 9L17.5129 8.88701L17.3707 9.5H18V9ZM18 9L18.0001 9.5H18.0002H18.0006H18.001H18.0016H18.0022H18.003H18.004H18.005H18.0062H18.0075H18.0089H18.0104H18.0121H18.0138H18.0157H18.0177H18.0199H18.0221H18.0245H18.027H18.0296H18.0323H18.0351H18.038H18.0411H18.0443H18.0476H18.051H18.0545H18.0581H18.0619H18.0657H18.0697H18.0738H18.078H18.0823H18.0867H18.0912H18.0959H18.1006H18.1055H18.1104H18.1155H18.1207H18.126H18.1314H18.1369H18.1425H18.1482H18.154H18.1599H18.166H18.1721H18.1783H18.1847H18.1911H18.1977H18.2043H18.2111H18.2179H18.2249H18.232H18.2391H18.2464H18.2537H18.2612H18.2688H18.2764H18.2842H18.292H18.3H18.308H18.3162H18.3244H18.3328H18.3412H18.3497H18.3584H18.3671H18.3759H18.3848H18.3938H18.4029H18.4121H18.4214H18.4307H18.4402H18.4498H18.4594H18.4691H18.479H18.4889H18.4989H18.509H18.5191H18.5294H18.5398H18.5502H18.5608H18.5714H18.5821H18.5929H18.6037H18.6147H18.6257H18.6369H18.6481H18.6594H18.6708H18.6822H18.6938H18.7054H18.7171H18.7289H18.7408H18.7527H18.7647H18.7769H18.789H18.8013H18.8137H18.8261H18.8386H18.8512H18.8638H18.8765H18.8894H18.9022H18.9152H18.9282H18.9413H18.9545H18.9678H18.9811H18.9945H19.008H19.0216H19.0352H19.0489H19.0626H19.0765H19.0904H19.1043H19.1184H19.1325H19.1467H19.1609H19.1753H19.1897H19.2041H19.2186H19.2332H19.2479H19.2626H19.2774H19.2922H19.3071H19.3221H19.3372H19.3523H19.3674H19.3827H19.398H19.4133H19.4287H19.4442H19.4598H19.4754H19.491H19.5067H19.5225H19.5384H19.5543H19.5702H19.5862H19.6023H19.6184H19.6346H19.6509H19.6672H19.6835H19.6999H19.7164H19.7329H19.7495H19.7661H19.7828H19.7995H19.8163H19.8331H19.85H19.8669H19.8839H19.9009H19.918H19.9352H19.9523H19.9696H19.9869H20.0042H20.0216H20.039H20.0565H20.074H20.0916H20.1092H20.1268H20.1445H20.1623H20.1801H20.1979H20.2158H20.2337H20.2517H20.2697H20.2877H20.3058H20.3239H20.3421H20.3603H20.3786H20.3969H20.4152H20.4336H20.452H20.4704H20.4889H20.5074H20.526H20.5446H20.5632H20.5819H20.6006H20.6193H20.6381H20.6569H20.6758H20.6946H20.7135H20.7325H20.7515H20.7705H20.7895H20.8086H20.8277H20.8468H20.866H20.8851H20.9044H20.9236H20.9429H20.9622H20.9815H21.0009H21.0203H21.0397H21.0591H21.0786H21.0981H21.1176H21.1371H21.1567H21.1763H21.1959H21.2155H21.2352H21.2549H21.2746H21.2943H21.314H21.3338H21.3536H21.3734H21.3932H21.4131H21.4329H21.4528H21.4727H21.4926H21.5126H21.5325H21.5525H21.5725H21.5925H21.6125H21.6325H21.6526H21.6726H21.6927H21.7128H21.7329H21.753H21.7731H21.7933H21.8134H21.8336H21.8538H21.8739H21.8941H21.9143H21.9345H21.9548H21.975H21.9952H22.0155H22.0357H22.056H22.0763H22.0965H22.1168H22.1371H22.1574H22.1777H22.198H22.2183H22.2386H22.2589H22.2792H22.2995H22.3198H22.3401H22.3605H22.3808H22.4011H22.4214H22.4417H22.4621H22.4824H22.5027H22.523H22.5433H22.5636H22.5839H22.6042H22.6245H22.6448H22.6651H22.6854H22.7057H22.726H22.7462H22.7665H22.7868H22.807H22.8273H22.8475H22.8677H22.8879H22.9081H22.9283H22.9485H22.9687H22.9889H23.009H23.0292H23.0493H23.0694H23.0895H23.1096H23.1297H23.1498H23.1698H23.1899H23.2099H23.2299H23.2499H23.2699H23.2898H23.3098H23.3297H23.3496H23.3695H23.3894H23.4092H23.4291H23.4489H23.4687H23.4884H23.5082H23.5279H23.5476H23.5673H23.587H23.6066H23.6263H23.6459H23.6654H23.685H23.7045H23.724H23.7435H23.7629H23.7824H23.8018H23.8211H23.8405H23.8598H23.8791H23.8983H23.9176H23.9368H23.956H23.9751H23.9942H24.0133H24.0323H24.0514H24.0704H24.0893H24.1082H24.1271H24.146H24.1648H24.1836H24.2023H24.2211H24.2398H24.2584H24.277H24.2956H24.3141H24.3326H24.3511H24.3695H24.3879H24.4063H24.4246H24.4428H24.4611H24.4793H24.4974H24.5155H24.5336H24.5516H24.5696H24.5875H24.6054H24.6233H24.6411H24.6589H24.6766H24.6943H24.7119H24.7295H24.747H24.7645H24.782H24.7994H24.8167H24.8341H24.8513H24.8685H24.8857H24.9028H24.9198H24.9369H24.9538H24.9707H24.9876H25.0044H25.0211H25.0378H25.0545H25.0711H25.0876H25.1041H25.1205H25.1369H25.1532H25.1695H25.1857H25.2019H25.218H25.234H25.25H25.2659H25.2818H25.2976H25.3133H25.329H25.3447H25.3602H25.3757H25.3912H25.4066H25.4219H25.4371H25.4523H25.4675H25.4826H25.4976H25.5125H25.5274H25.5422H25.557H25.5716H25.5863H25.6008H25.6153H25.6297H25.6441H25.6584H25.6726H25.6867H25.7008H25.7148H25.7287H25.7426H25.7564H25.7701H25.7838C28.3602 9.5 30.5 7.50092 30.5 4.99143C30.5 2.47924 28.3573 0.5 25.7838 0.5C22.5593 0.5 20.4811 2.68311 19.2406 4.74197C18.6159 5.77885 18.1856 6.81151 17.9115 7.58253C17.7741 7.96887 17.6753 8.29166 17.6105 8.51925C17.578 8.63309 17.5541 8.72327 17.538 8.78585C17.53 8.81714 17.5239 8.84154 17.5197 8.85856L17.5149 8.8785L17.5136 8.88421L17.5132 8.88597L17.513 8.88658C17.513 8.88681 17.5129 8.88701 18 9Z" stroke="#202945" stroke-miterlimit="10"/>
</svg>
