<svg width="87" height="82" viewBox="0 0 87 82" fill="none" xmlns="http://www.w3.org/2000/svg">
<path d="M18.6809 40.4276C20.5748 41.5495 22.0847 43.0736 23.2104 45C24.3361 46.9264 24.8952 49.0346 24.8952 51.3208V70.5076H20.5862V51.3208C20.5862 49.8392 20.2211 48.4737 19.4947 47.2243C18.7646 45.9748 17.7757 44.9806 16.5283 44.2379C15.2809 43.4991 13.927 43.1277 12.4666 43.1277C11.0062 43.1277 9.6561 43.4991 8.40868 44.2379C7.16126 44.9806 6.16864 45.9748 5.44225 47.2243C4.71205 48.4737 4.35076 49.8392 4.35076 51.3208V70.5076H0.098877V39.5728H4.34695V42.3695C5.38901 41.1858 6.606 40.2845 8.00174 39.6695C9.39749 39.0544 10.8845 38.7488 12.4666 38.7488C14.7142 38.7449 16.7831 39.3058 18.6809 40.4276Z" fill="#202945"/>
<path d="M40.4157 34.1378C39.0618 35.3873 38.2822 36.923 38.073 38.745H45.1925V43.0659H38.0122V70.5115H33.7641V43.0659H30.5162V38.745H33.7641C33.8896 36.7528 34.4829 34.9347 35.544 33.2829C36.605 31.6311 37.9817 30.3275 39.6665 29.3759C41.3551 28.4243 43.1958 27.9446 45.1963 27.9446V32.2655C43.3632 32.2655 41.7696 32.8883 40.4157 34.1378Z" fill="#202945"/>
<path d="M54.9702 68.6702C52.5362 67.2312 50.6081 65.27 49.1933 62.7943C47.7785 60.3147 47.0712 57.6378 47.0712 54.7559C47.0712 51.8315 47.7785 49.1314 49.1933 46.6557C50.6081 44.1761 52.5362 42.2071 54.9702 40.7488C57.408 39.2865 60.0398 38.5554 62.8731 38.5554C65.7445 38.5554 68.4028 39.2865 70.8368 40.7488C73.2746 42.211 75.2104 44.1799 76.6442 46.6557C78.0818 49.1314 78.8005 51.8315 78.8005 54.7559C78.8005 57.6378 78.0818 60.3147 76.6442 62.7943C75.2066 65.27 73.2708 67.2312 70.8368 68.6702C68.4028 70.1092 65.7483 70.8287 62.8731 70.8287C60.0398 70.8287 57.408 70.1092 54.9702 68.6702ZM68.7109 64.9837C70.4793 63.9238 71.8865 62.4848 72.9285 60.6628C73.9706 58.8408 74.4916 56.8719 74.4916 54.7559C74.4916 52.5974 73.9706 50.6052 72.9285 48.7832C71.8865 46.9613 70.4831 45.5222 68.7109 44.4623C66.9386 43.4024 64.9952 42.8725 62.8693 42.8725C60.7852 42.8725 58.8608 43.4024 57.0924 44.4623C55.3201 45.5222 53.9168 46.9613 52.8747 48.7832C51.8327 50.6052 51.3116 52.5935 51.3116 54.7559C51.3116 56.8757 51.8327 58.8447 52.8747 60.6628C53.9168 62.4848 55.3201 63.9238 57.0924 64.9837C58.8608 66.0436 60.789 66.5736 62.8693 66.5736C64.9952 66.5736 66.9424 66.0436 68.7109 64.9837Z" fill="#202945"/>
<path d="M0 81.014V76.9407H1.30827C1.74183 76.9407 2.06889 77.0335 2.28947 77.2153C2.51005 77.3971 2.61654 77.6679 2.61654 78.0277C2.61654 78.2172 2.5633 78.3874 2.45681 78.5344C2.35032 78.6814 2.20581 78.7936 2.02326 78.8748C2.24003 78.9367 2.41117 79.0528 2.53668 79.2268C2.66218 79.397 2.72683 79.6059 2.72683 79.8419C2.72683 80.2055 2.60894 80.4957 2.37695 80.7045C2.14496 80.9134 1.81408 81.0179 1.38814 81.0179H0V81.014ZM0.528633 78.6775H1.32729C1.55928 78.6775 1.74183 78.6195 1.88254 78.4996C2.01945 78.3836 2.09171 78.2211 2.09171 78.0199C2.09171 77.7956 2.02706 77.6331 1.89775 77.5287C1.76845 77.4281 1.57449 77.3778 1.31207 77.3778H0.528633V78.6775ZM0.528633 79.1069V80.573H1.39955C1.64675 80.573 1.84071 80.5073 1.98142 80.3796C2.12594 80.2519 2.1944 80.0701 2.1944 79.8458C2.1944 79.3545 1.93198 79.1108 1.40715 79.1108H0.528633V79.1069Z" fill="#202945"/>
<path d="M5.33575 78.987L6.38161 76.9407H6.9825L5.60197 79.4938V81.014H5.07334V79.4938L3.69281 76.9407H4.29751L5.33575 78.987Z" fill="#202945"/>
<path d="M13.4896 81.014H12.9572L10.9415 77.8768V81.014H10.4129V76.9407H10.9415L12.9648 80.0933V76.9407H13.4896V81.014Z" fill="#202945"/>
<path d="M18.2664 79.1069C18.2664 79.5053 18.2017 79.8535 18.0686 80.1513C17.9355 80.4492 17.7492 80.6774 17.5058 80.8321C17.2624 80.9869 16.981 81.0681 16.6577 81.0681C16.342 81.0681 16.0644 80.9907 15.821 80.8321C15.5776 80.6735 15.3874 80.4492 15.2543 80.1591C15.1212 79.8689 15.049 79.5285 15.0452 79.1456V78.8516C15.0452 78.4609 15.1136 78.1127 15.2467 77.8149C15.3798 77.5131 15.57 77.2849 15.8134 77.1263C16.0568 76.9677 16.3382 76.8865 16.6539 76.8865C16.9733 76.8865 17.2586 76.9638 17.502 77.1224C17.7454 77.281 17.9355 77.5093 18.0686 77.8071C18.2017 78.105 18.2664 78.4531 18.2664 78.8516V79.1069ZM17.7416 78.8477C17.7416 78.3642 17.6465 77.9928 17.4563 77.7336C17.2662 77.4745 17 77.3468 16.6577 77.3468C16.323 77.3468 16.0606 77.4745 15.8704 77.7336C15.6803 77.9928 15.5814 78.3487 15.5738 78.809V79.1069C15.5738 79.5749 15.6689 79.9424 15.8628 80.2094C16.0568 80.4763 16.323 80.6117 16.6615 80.6117C17.0038 80.6117 17.2662 80.484 17.4525 80.2326C17.6389 79.9811 17.734 79.6175 17.7416 79.1456V78.8477Z" fill="#202945"/>
<path d="M21.286 79.3661H20.3466V81.014H19.8142V76.9407H21.1415C21.5941 76.9407 21.9402 77.0451 22.1835 77.254C22.4269 77.4629 22.5486 77.7685 22.5486 78.1669C22.5486 78.4222 22.4802 78.6427 22.3471 78.8284C22.214 79.018 22.0238 79.1572 21.7842 79.2501L22.7236 80.9792V81.014H22.1569L21.286 79.3661ZM20.3466 78.9251H21.1567C21.4191 78.9251 21.6283 78.8555 21.7804 78.7162C21.9363 78.577 22.0124 78.3952 22.0124 78.1631C22.0124 77.9116 21.9401 77.7182 21.7918 77.5828C21.6435 77.4474 21.4305 77.3817 21.1529 77.3778H20.3466V78.9251Z" fill="#202945"/>
<path d="M24.9104 79.7297L24.9865 80.2674L25.1006 79.7839L25.8916 76.9407H26.3366L27.1124 79.7839L27.2227 80.2752L27.3064 79.7259L27.9263 76.9407H28.4587L27.4889 81.014H27.006L26.1807 78.047L26.1198 77.7337L26.0552 78.047L25.1995 81.014H24.7203L23.7505 76.9407H24.2791L24.9104 79.7297Z" fill="#202945"/>
<path d="M32.0678 79.1301H30.3336V80.573H32.3493V81.014H29.805V76.9407H32.3188V77.3817H30.3336V78.693H32.0678V79.1301Z" fill="#202945"/>
<path d="M36.7228 80.4801C36.5859 80.6774 36.3995 80.8244 36.1561 80.925C35.9127 81.0217 35.6313 81.072 35.3081 81.072C34.981 81.072 34.692 80.9946 34.4371 80.8399C34.1861 80.6851 33.9884 80.4608 33.8515 80.1745C33.7146 79.8883 33.6423 79.5556 33.6385 79.1765V78.8206C33.6385 78.2056 33.7792 77.7336 34.0606 77.3932C34.3421 77.0567 34.7376 76.8865 35.2472 76.8865C35.6655 76.8865 36.0002 76.9948 36.255 77.2114C36.5098 77.428 36.6658 77.7375 36.7228 78.1359H36.1942C36.0953 77.5944 35.7796 77.3236 35.2472 77.3236C34.8935 77.3236 34.6235 77.4512 34.4409 77.7027C34.2584 77.958 34.1671 78.3216 34.1633 78.8013V79.134C34.1633 79.5904 34.266 79.954 34.4714 80.2248C34.6767 80.4956 34.9544 80.631 35.3043 80.631C35.502 80.631 35.677 80.6078 35.8253 80.5652C35.9736 80.5227 36.0953 80.4453 36.1942 80.3409V79.428H35.2662V78.987H36.719V80.4801H36.7228Z" fill="#202945"/>
<path d="M38.9287 76.9407H38.4V81.014H38.9287V76.9407Z" fill="#202945"/>
<path d="M42.9143 79.9464H41.2371L40.8606 81.014H40.3168L41.8456 76.9407H42.3096L43.8423 81.014H43.2984L42.9143 79.9464ZM41.3969 79.5092H42.7584L42.0776 77.606L41.3969 79.5092Z" fill="#202945"/>
<path d="M48.2159 81.014H47.6834L45.6678 77.8768V81.014H45.1392V76.9407H45.6678L47.691 80.0933V76.9407H48.2159V81.014Z" fill="#202945"/>
<path d="M54.2742 79.2152H52.5971V81.014H52.0684V76.9407H54.548V77.3817H52.5971V78.7743H54.2742V79.2152Z" fill="#202945"/>
<path d="M56.5067 76.9407H55.978V81.014H56.5067V76.9407Z" fill="#202945"/>
<path d="M59.4123 79.1997C58.9597 79.0682 58.6288 78.9057 58.4235 78.7123C58.2181 78.5189 58.1154 78.2829 58.1154 77.9967C58.1154 77.6756 58.2409 77.4087 58.4919 77.1998C58.7429 76.9909 59.0738 76.8865 59.4769 76.8865C59.7508 76.8865 59.998 76.9406 60.2147 77.0489C60.4315 77.1573 60.595 77.3081 60.7167 77.4977C60.8346 77.6872 60.8955 77.8961 60.8955 78.1205H60.3631C60.3631 77.8729 60.287 77.6795 60.1311 77.5364C59.9751 77.3971 59.7584 77.3236 59.4807 77.3236C59.2221 77.3236 59.0168 77.3816 58.8722 77.4977C58.7277 77.6137 58.6555 77.7762 58.6555 77.9851C58.6555 78.1514 58.7239 78.2907 58.8646 78.4067C59.0015 78.5228 59.2373 78.6272 59.572 78.7201C59.9067 78.8168 60.1653 78.9212 60.3517 79.0334C60.538 79.1494 60.6787 79.281 60.77 79.4357C60.8613 79.5866 60.9069 79.7684 60.9069 79.9734C60.9069 80.3022 60.7814 80.5691 60.5266 80.7664C60.2718 80.9637 59.9333 81.0643 59.5112 81.0643C59.2373 81.0643 58.9787 81.0101 58.7429 80.9018C58.5033 80.7935 58.3208 80.6465 58.1915 80.4608C58.0622 80.2751 57.9975 80.0624 57.9975 79.8264H58.5262C58.5262 80.074 58.6174 80.2674 58.7962 80.4105C58.9749 80.5536 59.2145 80.6233 59.5112 80.6233C59.7888 80.6233 60.0018 80.5652 60.1501 80.4492C60.2984 80.3331 60.3745 80.1745 60.3745 79.9773C60.3745 79.7761 60.306 79.6214 60.1691 79.5131C60.0208 79.4125 59.7736 79.3042 59.4123 79.1997Z" fill="#202945"/>
<path d="M65.4097 81.014H64.8811V79.1301H62.8616V81.014H62.333V76.9407H62.8616V78.693H64.8811V76.9407H65.4097V81.014Z" fill="#202945"/>
<path d="M72.3428 79.1069C72.3428 79.5053 72.2782 79.8535 72.1451 80.1513C72.0119 80.4492 71.8256 80.6774 71.586 80.8321C71.3426 80.9869 71.0612 81.0681 70.7379 81.0681C70.4222 81.0681 70.1446 80.9907 69.8974 80.8321C69.654 80.6735 69.4639 80.4492 69.3308 80.1591C69.1976 79.8689 69.1254 79.5285 69.1216 79.1456V78.8516C69.1216 78.4609 69.19 78.1127 69.3231 77.8149C69.4563 77.5131 69.6464 77.2849 69.8898 77.1263C70.137 76.9677 70.4146 76.8865 70.7303 76.8865C71.0498 76.8865 71.335 76.9638 71.5784 77.1224C71.8256 77.281 72.0119 77.5093 72.1451 77.8071C72.2782 78.105 72.3428 78.4531 72.3428 78.8516V79.1069ZM71.818 78.8477C71.818 78.3642 71.7229 77.9928 71.5328 77.7336C71.3426 77.4745 71.0764 77.3468 70.7303 77.3468C70.3956 77.3468 70.1332 77.4745 69.9431 77.7336C69.7529 77.9928 69.654 78.3487 69.6464 78.809V79.1069C69.6464 79.5749 69.7415 79.9424 69.9354 80.2094C70.1294 80.4763 70.3956 80.6117 70.7341 80.6117C71.0764 80.6117 71.3388 80.484 71.5252 80.2326C71.7115 79.9811 71.8066 79.6175 71.8142 79.1456V78.8477H71.818Z" fill="#202945"/>
<path d="M74.4611 76.9407H73.9325V81.014H74.4611V76.9407Z" fill="#202945"/>
<path d="M76.7164 80.573H78.6142V81.014H76.1878V76.9407H76.7164V80.573Z" fill="#202945"/>
<path d="M63.1621 33.0817C62.7134 32.9425 62.3863 32.7761 62.1847 32.5788C61.9832 32.3854 61.8843 32.1456 61.8881 31.8632C61.8919 31.5421 62.0212 31.283 62.276 31.0779C62.5308 30.8729 62.8579 30.7762 63.261 30.7801C63.5348 30.7839 63.7782 30.842 63.9912 30.9542C64.2042 31.0663 64.3677 31.2172 64.4818 31.4067C64.5959 31.6002 64.6529 31.8052 64.6491 32.0295L64.1205 32.0218C64.1243 31.7742 64.0521 31.5808 63.8999 31.4377C63.7478 31.2946 63.5348 31.2211 63.2534 31.2172C62.9948 31.2133 62.7894 31.2675 62.6449 31.3797C62.4966 31.4957 62.4243 31.6543 62.4205 31.8593C62.4167 32.0257 62.4852 32.1649 62.6221 32.281C62.759 32.397 62.991 32.5053 63.3219 32.6059C63.6527 32.7065 63.9113 32.8148 64.0939 32.9309C64.2802 33.0469 64.4172 33.1823 64.5046 33.337C64.5921 33.4918 64.6339 33.6697 64.6301 33.8747C64.6263 34.2035 64.4932 34.4627 64.2384 34.66C63.9836 34.8534 63.6451 34.9462 63.223 34.9385C62.9492 34.9346 62.6943 34.8766 62.4586 34.7644C62.2228 34.6523 62.044 34.5053 61.9147 34.3157C61.7892 34.1262 61.7284 33.9173 61.7322 33.6813L62.2608 33.689C62.257 33.9328 62.3445 34.13 62.5194 34.2732C62.6943 34.4163 62.9301 34.4937 63.2306 34.4975C63.5082 34.5014 63.7212 34.4472 63.8695 34.3351C64.0178 34.2229 64.0977 34.0681 64.0977 33.867C64.1015 33.6697 64.033 33.515 63.8999 33.4028C63.7668 33.3061 63.5196 33.1939 63.1621 33.0817Z" fill="#202945"/>
<path d="M66.5779 31.1123L65.9362 35.1136L66.4543 35.1995L67.0959 31.1982L66.5779 31.1123Z" fill="#202945"/>
<path d="M70.8862 36.4897L70.3842 36.3156L69.4829 32.6987L68.4865 35.6541L67.9883 35.48L69.2813 31.6465L69.7795 31.8168L70.6809 35.453L71.6849 32.4821L72.1793 32.6562L70.8862 36.4897Z" fill="#202945"/>
<path d="M75.3815 37.6077C75.1191 37.9481 74.8148 38.1454 74.4726 38.2073C74.1303 38.2653 73.7728 38.1802 73.4001 37.9519C72.997 37.7005 72.765 37.3562 72.7003 36.9114C72.6357 36.4665 72.7497 36.0023 73.0426 35.511L73.2442 35.1784C73.4381 34.8573 73.6625 34.6097 73.9249 34.4357C74.1835 34.2616 74.4573 34.1726 74.7426 34.1726C75.0278 34.1726 75.3092 34.2538 75.5793 34.424C75.9406 34.6484 76.1688 34.9308 76.2638 35.2712C76.3589 35.6116 76.3133 35.9752 76.1307 36.3582L75.682 36.0797C75.8075 35.778 75.8455 35.5265 75.7884 35.3215C75.7314 35.1165 75.5869 34.9424 75.3549 34.7954C75.0696 34.6175 74.7806 34.5865 74.4878 34.6987C74.1949 34.8147 73.9287 35.0701 73.6891 35.4685L73.4876 35.805C73.2594 36.1803 73.1605 36.5284 73.1795 36.8456C73.2023 37.1628 73.3506 37.4104 73.6245 37.5806C73.8755 37.7353 74.0999 37.7972 74.3014 37.7663C74.503 37.7353 74.7122 37.5883 74.9289 37.333L75.3815 37.6077Z" fill="#202945"/>
<path d="M78.6294 39.7121L77.3591 38.5206L76.4007 39.5767L77.8763 40.9615L77.5835 41.2826L75.7238 39.5341L78.4316 36.5555L80.2685 38.2885L79.9795 38.6096L78.5267 37.2402L77.652 38.1996L78.9222 39.391L78.6294 39.7121Z" fill="#202945"/>
<path d="M80.4016 45.2476L80.1392 44.8027L83.041 43.0465L82.1967 42.3463L82.5922 42.1104L83.8016 43.0929L83.8435 43.1625L80.4016 45.2476Z" fill="#202945"/>
<path d="M83.6647 48.3461C83.5088 48.288 83.3719 48.2029 83.2502 48.0908C83.1285 47.9786 83.0372 47.8355 82.9763 47.6691C82.8965 47.4486 82.8813 47.2397 82.9307 47.0347C82.9802 46.8336 83.0828 46.6518 83.2426 46.4893C83.4023 46.3268 83.6001 46.2069 83.832 46.1179C84.0831 46.0251 84.3265 45.9903 84.5623 46.0096C84.798 46.0328 84.9996 46.1141 85.1707 46.2494C85.3419 46.3887 85.4674 46.5744 85.5549 46.8142C85.6918 47.1894 85.6575 47.5376 85.4598 47.8587C85.262 48.1797 84.9197 48.4273 84.4443 48.6053L84.3036 48.6555C83.5734 48.9263 82.9916 48.9766 82.5504 48.8103C82.1092 48.6401 81.7784 48.2648 81.5578 47.6769L81.5236 47.584L81.9267 47.4332L81.9647 47.5337C82.113 47.9322 82.326 48.1991 82.6036 48.3422C82.8775 48.4853 83.2312 48.4853 83.6647 48.3461ZM83.3985 47.6034C83.4555 47.7658 83.5582 47.8973 83.7065 47.9979C83.8549 48.0985 84.0108 48.1527 84.1781 48.1643L84.3683 48.0946C84.6801 47.9786 84.9083 47.8161 85.0567 47.6034C85.2012 47.3906 85.2354 47.1817 85.1631 46.9728C85.0871 46.7601 84.9464 46.6169 84.7372 46.5512C84.5318 46.4815 84.296 46.497 84.0336 46.5937C83.7788 46.6904 83.5886 46.8297 83.4708 47.0154C83.3453 47.1933 83.3224 47.3945 83.3985 47.6034Z" fill="#202945"/>
<path d="M85.8249 52.6438C85.6271 52.6786 85.4446 52.6515 85.2734 52.5741C85.1023 52.4929 84.9616 52.373 84.8437 52.2067C84.7904 52.431 84.6877 52.6167 84.5394 52.7676C84.3911 52.9184 84.2086 53.0113 83.9918 53.0461C83.6533 53.1041 83.3605 53.0306 83.1209 52.8295C82.8813 52.6283 82.7291 52.3382 82.6683 51.9591C82.6074 51.5761 82.6569 51.2512 82.8204 50.9843C82.9878 50.7173 83.2388 50.5587 83.5772 50.5007C83.7902 50.4659 83.9918 50.493 84.1819 50.582C84.3721 50.6709 84.528 50.8141 84.6497 51.0075C84.7068 50.8141 84.8056 50.6555 84.9426 50.5278C85.0795 50.4001 85.243 50.3189 85.4408 50.288C85.7716 50.2338 86.0531 50.2957 86.2812 50.4814C86.5094 50.6632 86.6539 50.934 86.711 51.286C86.768 51.638 86.7186 51.9397 86.5589 52.1873C86.3991 52.4349 86.1557 52.5896 85.8249 52.6438ZM83.9195 52.5355C84.1401 52.5006 84.3074 52.3962 84.4215 52.2337C84.5356 52.0674 84.5774 51.8701 84.5394 51.6419C84.5014 51.4136 84.4025 51.2396 84.2466 51.1274C84.0869 51.0113 83.8967 50.9727 83.6723 51.0113C83.4479 51.05 83.2844 51.1467 83.1779 51.3015C83.0714 51.4562 83.0372 51.6573 83.0752 51.8972C83.1133 52.1332 83.2083 52.3111 83.3605 52.4271C83.5126 52.5355 83.6989 52.5741 83.9195 52.5355ZM86.3003 51.3517C86.2698 51.1506 86.1824 50.9997 86.0378 50.8992C85.8971 50.7947 85.7222 50.7638 85.513 50.7947C85.3115 50.8295 85.1631 50.9146 85.0566 51.0578C84.954 51.2009 84.9159 51.375 84.9502 51.5761C84.9844 51.7811 85.0719 51.932 85.2126 52.0326C85.3571 52.1331 85.5282 52.168 85.726 52.1332C85.9276 52.0983 86.0797 52.0094 86.1862 51.8624C86.2965 51.7192 86.3345 51.5452 86.3003 51.3517Z" fill="#202945"/>
<path d="M86.6615 57.1543L82.9953 55.398L83.0067 54.8603L86.5398 56.6088L86.5855 54.4116L87 54.4232L86.9468 57.162L86.6615 57.1543Z" fill="#202945"/>
<path d="M6.86081 0H0.098877V6.87786H6.86081V0Z" fill="#CF3B2C"/>
<path d="M24.899 0H11.3713V6.87786H24.899V0Z" fill="#CF3B2C"/>
<path d="M6.86081 11.4656H0.098877V18.3435H6.86081V11.4656Z" fill="#CF3B2C"/>
<path d="M24.899 11.4656H11.3713V18.3435H24.899V11.4656Z" fill="#CF3B2C"/>
<path d="M24.8952 8.02674H10.2418V0H7.98653V8.02674H0.098877V10.3168H7.98653V18.3435H10.2418V10.3168H24.8952V8.02674Z" fill="#202945"/>
<path d="M11.3713 0V6.87786H24.8952V8.02674H11.3713H10.2418V0H11.3713Z" fill="white"/>
<path d="M24.8952 11.4657H11.3713V18.3435H10.2418V11.4657V11.0788V10.3168H24.8952V11.4657Z" fill="white"/>
<path d="M6.82658 0V6.87786H0.098877V8.02674H6.82658H7.95611V0H6.82658Z" fill="white"/>
<path d="M0.098877 11.4657H6.82658V18.3435H7.95611V11.4657V11.0788V10.3168H0.098877V11.4657Z" fill="white"/>
</svg>
