<svg width="87" height="82" viewBox="0 0 87 82" fill="none" xmlns="http://www.w3.org/2000/svg">
<path d="M18.6811 40.4279C20.5751 41.5497 22.0849 43.0738 23.2106 45.0002C24.3364 46.9267 24.8954 49.0349 24.8954 51.3211V70.5079H20.5865V51.3211C20.5865 49.8395 20.2214 48.474 19.495 47.2245C18.7648 45.975 17.776 44.9809 16.5286 44.2382C15.2811 43.4993 13.9272 43.128 12.4668 43.128C11.0064 43.128 9.65634 43.4993 8.40892 44.2382C7.1615 44.9809 6.16889 45.975 5.44249 47.2245C4.7123 48.474 4.351 49.8395 4.351 51.3211V70.5079H0.0991211V39.573H4.3472V42.3698C5.38925 41.1861 6.60625 40.2848 8.00199 39.6697C9.39773 39.0546 10.8847 38.749 12.4668 38.749C14.7145 38.7452 16.7834 39.3061 18.6811 40.4279Z" fill="#202945"/>
<path d="M40.4156 34.138C39.0617 35.3875 38.2821 36.9232 38.0729 38.7451H45.1923V43.0661H38.012V70.5117H33.764V43.0661H30.5161V38.7451H33.764C33.8895 36.753 34.4828 34.9349 35.5438 33.2831C36.6049 31.6313 37.9816 30.3277 39.6664 29.3761C41.355 28.4245 43.1957 27.9448 45.1961 27.9448V32.2657C43.363 32.2657 41.7695 32.8885 40.4156 34.138Z" fill="#202945"/>
<path d="M54.9704 68.6705C52.5364 67.2315 50.6082 65.2702 49.1934 62.7945C47.7787 60.3149 47.0713 57.638 47.0713 54.7562C47.0713 51.8317 47.7787 49.1316 49.1934 46.6559C50.6082 44.1763 52.5364 42.2073 54.9704 40.749C57.4082 39.2868 60.0399 38.5557 62.8732 38.5557C65.7446 38.5557 68.403 39.2868 70.8369 40.749C73.2747 42.2112 75.2105 44.1802 76.6443 46.6559C78.0819 49.1316 78.8007 51.8317 78.8007 54.7562C78.8007 57.638 78.0819 60.3149 76.6443 62.7945C75.2067 65.2702 73.2709 67.2315 70.8369 68.6705C68.403 70.1095 65.7484 70.829 62.8732 70.829C60.0399 70.829 57.4082 70.1095 54.9704 68.6705ZM68.711 64.984C70.4795 63.924 71.8866 62.485 72.9287 60.6631C73.9707 58.8411 74.4917 56.8721 74.4917 54.7562C74.4917 52.5976 73.9707 50.6055 72.9287 48.7835C71.8866 46.9615 70.4833 45.5225 68.711 44.4626C66.9388 43.4027 64.9954 42.8727 62.8694 42.8727C60.7853 42.8727 58.8609 43.4027 57.0925 44.4626C55.3202 45.5225 53.9169 46.9615 52.8748 48.7835C51.8328 50.6055 51.3118 52.5938 51.3118 54.7562C51.3118 56.876 51.8328 58.845 52.8748 60.6631C53.9169 62.485 55.3202 63.924 57.0925 64.984C58.8609 66.0439 60.7891 66.5738 62.8694 66.5738C64.9954 66.5738 66.9426 66.0439 68.711 64.984Z" fill="#202945"/>
<path d="M0 81.0142V76.9409H1.30827C1.74183 76.9409 2.06889 77.0338 2.28947 77.2156C2.51005 77.3974 2.61654 77.6682 2.61654 78.0279C2.61654 78.2175 2.5633 78.3877 2.45681 78.5347C2.35032 78.6817 2.20581 78.7938 2.02326 78.8751C2.24003 78.937 2.41117 79.053 2.53668 79.2271C2.66218 79.3973 2.72683 79.6062 2.72683 79.8421C2.72683 80.2058 2.60894 80.4959 2.37695 80.7048C2.14496 80.9137 1.81408 81.0181 1.38814 81.0181H0V81.0142ZM0.528633 78.6778H1.32729C1.55928 78.6778 1.74183 78.6198 1.88254 78.4998C2.01945 78.3838 2.09171 78.2213 2.09171 78.0202C2.09171 77.7958 2.02706 77.6333 1.89775 77.5289C1.76845 77.4283 1.57449 77.378 1.31207 77.378H0.528633V78.6778ZM0.528633 79.1072V80.5733H1.39955C1.64675 80.5733 1.84071 80.5075 1.98142 80.3798C2.12594 80.2522 2.1944 80.0704 2.1944 79.846C2.1944 79.3547 1.93198 79.111 1.40715 79.111H0.528633V79.1072Z" fill="#202945"/>
<path d="M5.33582 78.9873L6.38167 76.9409H6.98256L5.60203 79.494V81.0142H5.0734V79.494L3.69287 76.9409H4.29757L5.33582 78.9873Z" fill="#202945"/>
<path d="M13.4898 81.0142H12.9574L10.9417 77.8771V81.0142H10.4131V76.9409H10.9417L12.965 80.0936V76.9409H13.4898V81.0142Z" fill="#202945"/>
<path d="M18.2662 79.1071C18.2662 79.5056 18.2015 79.8537 18.0684 80.1516C17.9353 80.4494 17.7489 80.6777 17.5055 80.8324C17.2621 80.9871 16.9807 81.0684 16.6574 81.0684C16.3418 81.0684 16.0642 80.991 15.8208 80.8324C15.5774 80.6738 15.3872 80.4494 15.2541 80.1593C15.121 79.8692 15.0487 79.5288 15.0449 79.1458V78.8518C15.0449 78.4611 15.1134 78.113 15.2465 77.8151C15.3796 77.5134 15.5698 77.2852 15.8132 77.1266C16.0566 76.968 16.338 76.8867 16.6536 76.8867C16.9731 76.8867 17.2583 76.9641 17.5017 77.1227C17.7451 77.2813 17.9353 77.5095 18.0684 77.8074C18.2015 78.1052 18.2662 78.4534 18.2662 78.8518V79.1071ZM17.7413 78.848C17.7413 78.3644 17.6463 77.9931 17.4561 77.7339C17.2659 77.4747 16.9997 77.347 16.6574 77.347C16.3228 77.347 16.0604 77.4747 15.8702 77.7339C15.68 77.9931 15.5812 78.3489 15.5736 78.8093V79.1071C15.5736 79.5752 15.6686 79.9427 15.8626 80.2096C16.0565 80.4765 16.3228 80.6119 16.6612 80.6119C17.0035 80.6119 17.2659 80.4842 17.4523 80.2328C17.6386 79.9814 17.7337 79.6177 17.7413 79.1458V78.848Z" fill="#202945"/>
<path d="M21.2858 79.3663H20.3464V81.0142H19.814V76.9409H21.1413C21.5938 76.9409 21.9399 77.0454 22.1833 77.2543C22.4267 77.4631 22.5484 77.7687 22.5484 78.1672C22.5484 78.4225 22.4799 78.643 22.3468 78.8287C22.2137 79.0182 22.0236 79.1575 21.784 79.2503L22.7233 80.9794V81.0142H22.1567L21.2858 79.3663ZM20.3464 78.9254H21.1565C21.4189 78.9254 21.6281 78.8557 21.7802 78.7165C21.9361 78.5772 22.0122 78.3954 22.0122 78.1633C22.0122 77.9119 21.9399 77.7184 21.7916 77.5831C21.6433 77.4477 21.4303 77.3819 21.1527 77.378H20.3464V78.9254Z" fill="#202945"/>
<path d="M24.9104 79.73L24.9865 80.2677L25.1006 79.7841L25.8916 76.9409H26.3366L27.1124 79.7841L27.2227 80.2754L27.3064 79.7261L27.9263 76.9409H28.4587L27.4889 81.0142H27.006L26.1807 78.0473L26.1198 77.7339L26.0552 78.0473L25.1995 81.0142H24.7203L23.7505 76.9409H24.2791L24.9104 79.73Z" fill="#202945"/>
<path d="M32.068 79.1304H30.3338V80.5733H32.3495V81.0142H29.8052V76.9409H32.319V77.3819H30.3338V78.6933H32.068V79.1304Z" fill="#202945"/>
<path d="M36.723 80.4804C36.5861 80.6777 36.3997 80.8246 36.1563 80.9252C35.9129 81.0219 35.6315 81.0722 35.3082 81.0722C34.9812 81.0722 34.6921 80.9949 34.4373 80.8401C34.1863 80.6854 33.9886 80.461 33.8516 80.1748C33.7147 79.8885 33.6425 79.5558 33.6387 79.1768V78.8209C33.6387 78.2058 33.7794 77.7339 34.0608 77.3935C34.3422 77.0569 34.7378 76.8867 35.2474 76.8867C35.6657 76.8867 36.0004 76.995 36.2552 77.2117C36.51 77.4283 36.6659 77.7377 36.723 78.1362H36.1944C36.0955 77.5946 35.7798 77.3238 35.2474 77.3238C34.8937 77.3238 34.6237 77.4515 34.4411 77.7029C34.2586 77.9582 34.1673 78.3219 34.1635 78.8015V79.1342C34.1635 79.5907 34.2662 79.9543 34.4716 80.2251C34.6769 80.4958 34.9545 80.6312 35.3044 80.6312C35.5022 80.6312 35.6771 80.608 35.8255 80.5655C35.9738 80.5229 36.0955 80.4456 36.1944 80.3411V79.4282H35.2664V78.9872H36.7192V80.4804H36.723Z" fill="#202945"/>
<path d="M38.9285 76.9409H38.3999V81.0142H38.9285V76.9409Z" fill="#202945"/>
<path d="M42.9144 79.9466H41.2372L40.8607 81.0142H40.3169L41.8457 76.9409H42.3097L43.8424 81.0142H43.2985L42.9144 79.9466ZM41.397 79.5095H42.7585L42.0777 77.6063L41.397 79.5095Z" fill="#202945"/>
<path d="M48.2159 81.0142H47.6834L45.6678 77.8771V81.0142H45.1392V76.9409H45.6678L47.691 80.0936V76.9409H48.2159V81.0142Z" fill="#202945"/>
<path d="M54.2742 79.2155H52.597V81.0142H52.0684V76.9409H54.548V77.3819H52.597V78.7745H54.2742V79.2155Z" fill="#202945"/>
<path d="M56.5067 76.9409H55.978V81.0142H56.5067V76.9409Z" fill="#202945"/>
<path d="M59.4123 79.2C58.9597 79.0685 58.6289 78.906 58.4235 78.7126C58.2181 78.5191 58.1155 78.2832 58.1155 77.9969C58.1155 77.6759 58.241 77.4089 58.492 77.2001C58.743 76.9912 59.0738 76.8867 59.477 76.8867C59.7508 76.8867 59.998 76.9409 60.2148 77.0492C60.4315 77.1575 60.5951 77.3084 60.7168 77.4979C60.8347 77.6875 60.8955 77.8963 60.8955 78.1207H60.3631C60.3631 77.8731 60.287 77.6797 60.1311 77.5366C59.9752 77.3973 59.7584 77.3238 59.4808 77.3238C59.2222 77.3238 59.0168 77.3819 58.8723 77.4979C58.7278 77.614 58.6555 77.7764 58.6555 77.9853C58.6555 78.1517 58.724 78.2909 58.8647 78.407C59.0016 78.523 59.2374 78.6275 59.572 78.7203C59.9067 78.817 60.1653 78.9215 60.3517 79.0336C60.538 79.1497 60.6787 79.2812 60.77 79.4359C60.8613 79.5868 60.9069 79.7686 60.9069 79.9736C60.9069 80.3024 60.7814 80.5694 60.5266 80.7666C60.2718 80.9639 59.9333 81.0645 59.5112 81.0645C59.2374 81.0645 58.9788 81.0103 58.743 80.902C58.5034 80.7937 58.3208 80.6467 58.1915 80.461C58.0622 80.2754 57.9976 80.0626 57.9976 79.8266H58.5262C58.5262 80.0742 58.6175 80.2676 58.7962 80.4108C58.975 80.5539 59.2146 80.6235 59.5112 80.6235C59.7888 80.6235 60.0018 80.5655 60.1501 80.4494C60.2984 80.3334 60.3745 80.1748 60.3745 79.9775C60.3745 79.7764 60.306 79.6216 60.1691 79.5133C60.0208 79.4127 59.7736 79.3044 59.4123 79.2Z" fill="#202945"/>
<path d="M65.4097 81.0142H64.8811V79.1304H62.8616V81.0142H62.333V76.9409H62.8616V78.6933H64.8811V76.9409H65.4097V81.0142Z" fill="#202945"/>
<path d="M72.3428 79.1071C72.3428 79.5056 72.2782 79.8537 72.1451 80.1516C72.0119 80.4494 71.8256 80.6777 71.586 80.8324C71.3426 80.9871 71.0612 81.0684 70.7379 81.0684C70.4222 81.0684 70.1446 80.991 69.8974 80.8324C69.654 80.6738 69.4639 80.4494 69.3308 80.1593C69.1976 79.8692 69.1254 79.5288 69.1216 79.1458V78.8518C69.1216 78.4611 69.19 78.113 69.3231 77.8151C69.4563 77.5134 69.6464 77.2852 69.8898 77.1266C70.137 76.968 70.4146 76.8867 70.7303 76.8867C71.0498 76.8867 71.335 76.9641 71.5784 77.1227C71.8256 77.2813 72.0119 77.5095 72.1451 77.8074C72.2782 78.1052 72.3428 78.4534 72.3428 78.8518V79.1071ZM71.818 78.848C71.818 78.3644 71.7229 77.9931 71.5328 77.7339C71.3426 77.4747 71.0764 77.347 70.7303 77.347C70.3956 77.347 70.1332 77.4747 69.9431 77.7339C69.7529 77.9931 69.654 78.3489 69.6464 78.8093V79.1071C69.6464 79.5752 69.7415 79.9427 69.9354 80.2096C70.1294 80.4765 70.3956 80.6119 70.7341 80.6119C71.0764 80.6119 71.3388 80.4842 71.5252 80.2328C71.7115 79.9814 71.8066 79.6177 71.8142 79.1458V78.848H71.818Z" fill="#202945"/>
<path d="M74.4613 76.9409H73.9326V81.0142H74.4613V76.9409Z" fill="#202945"/>
<path d="M76.7166 80.5733H78.6144V81.0142H76.188V76.9409H76.7166V80.5733Z" fill="#202945"/>
<path d="M63.1621 33.082C62.7133 32.9428 62.3862 32.7764 62.1847 32.5791C61.9831 32.3857 61.8842 32.1459 61.888 31.8635C61.8918 31.5424 62.0211 31.2833 62.2759 31.0782C62.5308 30.8732 62.8578 30.7765 63.2609 30.7804C63.5348 30.7843 63.7782 30.8423 63.9911 30.9545C64.2041 31.0666 64.3677 31.2175 64.4817 31.4071C64.5958 31.6005 64.6529 31.8055 64.6491 32.0299L64.1205 32.0221C64.1243 31.7745 64.052 31.5811 63.8999 31.438C63.7477 31.2949 63.5348 31.2214 63.2533 31.2175C62.9947 31.2136 62.7894 31.2678 62.6448 31.38C62.4965 31.496 62.4243 31.6546 62.4205 31.8596C62.4167 32.026 62.4851 32.1652 62.622 32.2813C62.7589 32.3973 62.9909 32.5057 63.3218 32.6062C63.6527 32.7068 63.9113 32.8151 64.0938 32.9312C64.2802 33.0472 64.4171 33.1826 64.5046 33.3373C64.592 33.4921 64.6339 33.67 64.6301 33.875C64.6263 34.2038 64.4932 34.463 64.2383 34.6603C63.9835 34.8537 63.6451 34.9466 63.2229 34.9388C62.9491 34.9349 62.6943 34.8769 62.4585 34.7647C62.2227 34.6526 62.044 34.5056 61.9146 34.316C61.7891 34.1265 61.7283 33.9176 61.7321 33.6816L62.2607 33.6894C62.2569 33.9331 62.3444 34.1303 62.5193 34.2735C62.6943 34.4166 62.9301 34.494 63.2305 34.4978C63.5081 34.5017 63.7211 34.4475 63.8694 34.3354C64.0178 34.2232 64.0976 34.0684 64.0976 33.8673C64.1014 33.67 64.033 33.5153 63.8999 33.4031C63.7668 33.3064 63.5196 33.1942 63.1621 33.082Z" fill="#202945"/>
<path d="M66.5777 31.1125L65.936 35.1138L66.454 35.1997L67.0957 31.1984L66.5777 31.1125Z" fill="#202945"/>
<path d="M70.8863 36.4901L70.3842 36.316L69.4829 32.6992L68.4865 35.6545L67.9883 35.4805L69.2813 31.647L69.7795 31.8172L70.6809 35.4534L71.6849 32.4825L72.1793 32.6566L70.8863 36.4901Z" fill="#202945"/>
<path d="M75.3814 37.6079C75.1189 37.9483 74.8147 38.1456 74.4724 38.2075C74.1301 38.2655 73.7726 38.1804 73.3999 37.9522C72.9968 37.7008 72.7648 37.3565 72.7002 36.9116C72.6355 36.4668 72.7496 36.0026 73.0424 35.5113L73.244 35.1786C73.438 34.8575 73.6623 34.61 73.9248 34.4359C74.1834 34.2618 74.4572 34.1729 74.7424 34.1729C75.0277 34.1729 75.3091 34.2541 75.5791 34.4243C75.9404 34.6487 76.1686 34.931 76.2637 35.2715C76.3588 35.6119 76.3131 35.9755 76.1306 36.3584L75.6818 36.0799C75.8073 35.7782 75.8453 35.5268 75.7883 35.3217C75.7312 35.1167 75.5867 34.9426 75.3547 34.7956C75.0695 34.6177 74.7805 34.5868 74.4876 34.6989C74.1948 34.815 73.9286 35.0703 73.689 35.4687L73.4874 35.8053C73.2592 36.1805 73.1603 36.5287 73.1793 36.8459C73.2022 37.1631 73.3505 37.4106 73.6243 37.5808C73.8753 37.7356 74.0997 37.7975 74.3013 37.7665C74.5028 37.7356 74.712 37.5886 74.9288 37.3333L75.3814 37.6079Z" fill="#202945"/>
<path d="M78.6292 39.7122L77.359 38.5208L76.4006 39.5768L77.8762 40.9617L77.5834 41.2827L75.7236 39.5343L78.4314 36.5557L80.2683 38.2887L79.9793 38.6097L78.5265 37.2404L77.6518 38.1997L78.922 39.3911L78.6292 39.7122Z" fill="#202945"/>
<path d="M80.4016 45.2476L80.1392 44.8027L83.0409 43.0465L82.1966 42.3463L82.5922 42.1104L83.8016 43.0929L83.8434 43.1625L80.4016 45.2476Z" fill="#202945"/>
<path d="M83.6646 48.3465C83.5087 48.2885 83.3717 48.2034 83.25 48.0912C83.1283 47.979 83.0371 47.8359 82.9762 47.6695C82.8964 47.4491 82.8811 47.2402 82.9306 47.0351C82.98 46.834 83.0827 46.6522 83.2424 46.4897C83.4022 46.3272 83.5999 46.2073 83.8319 46.1184C84.0829 46.0255 84.3263 45.9907 84.5621 46.01C84.7979 46.0333 84.9995 46.1145 85.1706 46.2499C85.3418 46.3891 85.4673 46.5748 85.5547 46.8146C85.6917 47.1899 85.6574 47.538 85.4597 47.8591C85.2619 48.1802 84.9196 48.4277 84.4442 48.6057L84.3035 48.656C83.5733 48.9267 82.9914 48.977 82.5503 48.8107C82.1091 48.6405 81.7782 48.2653 81.5577 47.6773L81.5234 47.5844L81.9266 47.4336L81.9646 47.5342C82.1129 47.9326 82.3259 48.1995 82.6035 48.3426C82.8773 48.4858 83.231 48.4858 83.6646 48.3465ZM83.3984 47.6038C83.4554 47.7663 83.5581 47.8978 83.7064 47.9984C83.8547 48.0989 84.0107 48.1531 84.178 48.1647L84.3682 48.0951C84.68 47.979 84.9082 47.8165 85.0565 47.6038C85.201 47.391 85.2353 47.1821 85.163 46.9733C85.087 46.7605 84.9462 46.6174 84.7371 46.5516C84.5317 46.482 84.2959 46.4974 84.0335 46.5942C83.7787 46.6909 83.5885 46.8301 83.4706 47.0158C83.3451 47.1937 83.3223 47.3949 83.3984 47.6038Z" fill="#202945"/>
<path d="M85.8247 52.6442C85.627 52.679 85.4444 52.6519 85.2733 52.5746C85.1022 52.4933 84.9614 52.3734 84.8435 52.2071C84.7903 52.4314 84.6876 52.6171 84.5393 52.768C84.391 52.9188 84.2084 53.0117 83.9917 53.0465C83.6532 53.1045 83.3603 53.031 83.1207 52.8299C82.8811 52.6287 82.729 52.3386 82.6682 51.9595C82.6073 51.5765 82.6568 51.2516 82.8203 50.9847C82.9876 50.7178 83.2386 50.5592 83.5771 50.5011C83.7901 50.4663 83.9917 50.4934 84.1818 50.5824C84.372 50.6714 84.5279 50.8145 84.6496 51.0079C84.7066 50.8145 84.8055 50.6559 84.9424 50.5282C85.0793 50.4006 85.2429 50.3193 85.4406 50.2884C85.7715 50.2342 86.0529 50.2961 86.2811 50.4818C86.5093 50.6636 86.6538 50.9344 86.7109 51.2864C86.7679 51.6384 86.7185 51.9402 86.5587 52.1877C86.399 52.4353 86.1556 52.59 85.8247 52.6442ZM83.9194 52.5359C84.14 52.5011 84.3073 52.3966 84.4214 52.2342C84.5355 52.0678 84.5773 51.8705 84.5393 51.6423C84.5013 51.4141 84.4024 51.24 84.2465 51.1278C84.0867 51.0118 83.8966 50.9731 83.6722 51.0118C83.4478 51.0504 83.2843 51.1472 83.1778 51.3019C83.0713 51.4566 83.0371 51.6578 83.0751 51.8976C83.1131 52.1336 83.2082 52.3115 83.3603 52.4276C83.5125 52.5359 83.6988 52.5746 83.9194 52.5359ZM86.3001 51.3522C86.2697 51.151 86.1822 51.0002 86.0377 50.8996C85.897 50.7951 85.7221 50.7642 85.5129 50.7951C85.3113 50.83 85.163 50.9151 85.0565 51.0582C84.9538 51.2013 84.9158 51.3754 84.95 51.5765C84.9843 51.7816 85.0717 51.9324 85.2124 52.033C85.357 52.1336 85.5281 52.1684 85.7259 52.1336C85.9274 52.0988 86.0796 52.0098 86.186 51.8628C86.2963 51.7197 86.3344 51.5456 86.3001 51.3522Z" fill="#202945"/>
<path d="M86.6613 57.1543L82.9951 55.398L83.0065 54.8603L86.5396 56.6088L86.5853 54.4116L86.9998 54.4232L86.9465 57.162L86.6613 57.1543Z" fill="#202945"/>
<path d="M6.86105 0H0.0991211V6.87786H6.86105V0Z" fill="#CF3B2C"/>
<path d="M24.8988 0H11.3711V6.87786H24.8988V0Z" fill="#CF3B2C"/>
<path d="M6.86105 11.4658H0.0991211V18.3437H6.86105V11.4658Z" fill="#CF3B2C"/>
<path d="M24.8988 11.4658H11.3711V18.3437H24.8988V11.4658Z" fill="#CF3B2C"/>
<path d="M24.8954 8.02674H10.242V0H7.98678V8.02674H0.0991211V10.3168H7.98678V18.3435H10.242V10.3168H24.8954V8.02674Z" fill="#202945"/>
<path d="M11.3712 0V6.87786H24.8951V8.02674H11.3712H10.2417V0H11.3712Z" fill="white"/>
<path d="M24.8951 11.4658H11.3712V18.3436H10.2417V11.4658V11.079V10.3169H24.8951V11.4658Z" fill="white"/>
<path d="M6.82683 0V6.87786H0.0991211V8.02674H6.82683H7.95635V0H6.82683Z" fill="white"/>
<path d="M0.0991211 11.4658H6.82683V18.3436H7.95635V11.4658V11.079V10.3169H0.0991211V11.4658Z" fill="white"/>
</svg>
