<svg width="60" height="78" viewBox="0 0 60 78" fill="none" xmlns="http://www.w3.org/2000/svg">
<path d="M14.1665 53.8627C15.6104 54.7197 16.7614 55.8841 17.6196 57.3559C18.4779 58.8276 18.9041 60.4383 18.9041 62.1849V76.8432H15.6191V62.1849C15.6191 61.053 15.3407 60.0097 14.7869 59.0552C14.2302 58.1006 13.4764 57.3411 12.5254 56.7737C11.5744 56.2092 10.5422 55.9255 9.42884 55.9255C8.31547 55.9255 7.28618 56.2092 6.33518 56.7737C5.38418 57.3411 4.62744 58.1006 4.07365 59.0552C3.51697 60.0097 3.24153 61.053 3.24153 62.1849V76.8432H0V53.2096H3.23863V55.3463C4.03306 54.4419 4.96087 53.7534 6.02495 53.2835C7.08903 52.8136 8.22269 52.5801 9.42884 52.5801C11.1424 52.5771 12.7197 53.0057 14.1665 53.8627Z" fill="#202945"/>
<path d="M30.7366 49.0576C29.7044 50.0122 29.11 51.1855 28.9506 52.5774H34.3782V55.8785H28.9042V76.8464H25.6655V55.8785H23.1895V52.5774H25.6655C25.7612 51.0554 26.2135 49.6664 27.0225 48.4045C27.8314 47.1426 28.881 46.1466 30.1654 45.4196C31.4527 44.6926 32.856 44.3262 34.3811 44.3262V47.6273C32.9836 47.6273 31.7688 48.1031 30.7366 49.0576Z" fill="#202945"/>
<path d="M41.8324 75.4397C39.9768 74.3403 38.5068 72.842 37.4282 70.9506C36.3496 69.0562 35.8103 67.0112 35.8103 64.8095C35.8103 62.5752 36.3496 60.5124 37.4282 58.621C38.5068 56.7267 39.9768 55.2224 41.8324 54.1083C43.6909 52.9912 45.6973 52.4326 47.8573 52.4326C50.0464 52.4326 52.0731 52.9912 53.9287 54.1083C55.7872 55.2254 57.263 56.7296 58.3561 58.621C59.452 60.5124 60 62.5752 60 64.8095C60 67.0112 59.452 69.0562 58.3561 70.9506C57.2601 72.842 55.7843 74.3403 53.9287 75.4397C52.0731 76.5391 50.0493 77.0888 47.8573 77.0888C45.6973 77.0888 43.6909 76.5391 41.8324 75.4397ZM52.3079 72.6233C53.6561 71.8136 54.7289 70.7142 55.5233 69.3222C56.3178 67.9303 56.715 66.426 56.715 64.8095C56.715 63.1604 56.3178 61.6384 55.5233 60.2465C54.7289 58.8545 53.659 57.7551 52.3079 56.9454C50.9568 56.1356 49.4752 55.7307 47.8544 55.7307C46.2656 55.7307 44.7985 56.1356 43.4502 56.9454C42.0991 57.7551 41.0293 58.8545 40.2348 60.2465C39.4404 61.6384 39.0432 63.1574 39.0432 64.8095C39.0432 66.429 39.4404 67.9332 40.2348 69.3222C41.0293 70.7142 42.0991 71.8136 43.4502 72.6233C44.7985 73.4331 46.2685 73.8379 47.8544 73.8379C49.4752 73.8379 50.9597 73.4331 52.3079 72.6233Z" fill="#202945"/>
<path d="M13.1092 0H0V13.362H13.1092V0Z" fill="#CF3B2C"/>
<path d="M48.0791 0H21.8534V13.362H48.0791V0Z" fill="#CF3B2C"/>
<path d="M13.1092 22.2744H0V35.6364H13.1092V22.2744Z" fill="#CF3B2C"/>
<path d="M48.0791 22.2744H21.8534V35.6364H48.0791V22.2744Z" fill="#CF3B2C"/>
<path d="M48.0718 15.594H19.6637V0H15.2916V15.594H0V20.043H15.2916V35.6369H19.6637V20.043H48.0718V15.594Z" fill="#202945"/>
<path d="M21.8544 0V13.362H48.0727V15.594H21.8544H19.6646V0H21.8544Z" fill="white"/>
<path d="M48.0727 22.275H21.8544V35.6369H19.6646V22.275V21.5235V20.043H48.0727V22.275Z" fill="white"/>
<path d="M13.0428 0V13.362H0V15.594H13.0428H15.2326V0H13.0428Z" fill="white"/>
<path d="M0 22.275H13.0428V35.6369H15.2326V22.275V21.5235V20.043H0V22.275Z" fill="white"/>
</svg>
