<svg width="60" height="60" viewBox="0 0 60 60" fill="none" xmlns="http://www.w3.org/2000/svg">
<circle cx="30" cy="30" r="30" fill="#E6EAEE"/>
<path d="M27.895 25.7878H42.7396C42.8576 25.7878 42.952 25.8822 42.952 26.0002V44.7861C42.952 44.9041 42.8576 44.9985 42.7396 44.9985H19.2219C18.1834 44.9985 17.3574 44.1607 17.3574 43.134V24.2773" stroke="#202945" stroke-miterlimit="10"/>
<path d="M42.9514 35.0996H39.6592" stroke="#202945" stroke-miterlimit="10"/>
<path d="M29.4526 21.9884L41.2764 21.127V25.788H18.8678C18.03 25.788 17.3574 25.1036 17.3574 24.2776C17.3574 23.487 17.971 22.8262 18.7616 22.7672L21.9477 22.5312" stroke="#202945" stroke-miterlimit="10" stroke-linejoin="round"/>
<path d="M22.9621 25.7886C22.3367 25.1042 21.9473 24.1956 21.9473 23.1926C21.9473 21.0685 23.6701 19.3457 25.7941 19.3457C27.9182 19.3457 29.641 21.0685 29.641 23.1926C29.641 24.1956 29.2516 25.1042 28.6262 25.7886" stroke="#202945" stroke-miterlimit="10"/>
<path d="M35.1281 19.7113C37.2527 19.7113 38.975 17.989 38.975 15.8644C38.975 13.7399 37.2527 12.0176 35.1281 12.0176C33.0035 12.0176 31.2812 13.7399 31.2812 15.8644C31.2812 17.989 33.0035 19.7113 35.1281 19.7113Z" stroke="#202945" stroke-miterlimit="10"/>
</svg>
