<svg width="56" height="60" viewBox="0 0 56 60" fill="none" xmlns="http://www.w3.org/2000/svg">
<path d="M0 51.7695H55.8074" stroke="#202945" stroke-width="2" stroke-miterlimit="10" stroke-linejoin="round"/>
<path d="M0 58.1604H55.8074" stroke="#202945" stroke-width="2" stroke-miterlimit="10" stroke-linejoin="round"/>
<path d="M0 23.6008H19.9746C19.9746 27.6389 23.2482 30.9124 27.2863 30.9124C31.3243 30.9124 34.5979 27.6389 34.5979 23.6008H54.5725" stroke="#202945" stroke-width="2" stroke-miterlimit="10" stroke-linejoin="round"/>
<path d="M21.6016 1C28.0115 6.72384 30.4029 19.9945 26.9726 30.6581" stroke="#202945" stroke-width="2" stroke-miterlimit="10" stroke-linejoin="round"/>
<path d="M39.5176 1C43.7124 5.70453 45.9471 14.9764 45.6139 24.2678" stroke="#202945" stroke-width="2" stroke-miterlimit="10" stroke-linejoin="round"/>
<path d="M2.25391 1C8.64422 5.70453 12.0942 14.9764 11.5846 24.2678" stroke="#202945" stroke-width="2" stroke-miterlimit="10" stroke-linejoin="round"/>
<path d="M16.0927 51.7692V45.4769C16.0927 43.7715 14.701 42.3798 12.9956 42.3798C11.2902 42.3798 9.89844 40.988 9.89844 39.2826V33.4412" stroke="#202945" stroke-width="2" stroke-miterlimit="10" stroke-linejoin="round"/>
<path d="M45.3992 35.813V38.2045C45.3992 39.5962 44.2622 40.7331 42.8705 40.7331C41.4787 40.7331 40.3418 41.8701 40.3418 43.2618V51.7692" stroke="#202945" stroke-width="2" stroke-miterlimit="10" stroke-linejoin="round"/>
<path d="M40.3421 45.6538C36.7157 45.6538 33.7754 42.7135 33.7754 39.0871V38.1658" stroke="#202945" stroke-width="2" stroke-miterlimit="10" stroke-linejoin="round"/>
</svg>
