<svg width="150" height="158" viewBox="0 0 150 158" fill="none" xmlns="http://www.w3.org/2000/svg">
<path d="M0.529297 137.978H149.999" stroke="#E6EAEE" stroke-width="4" stroke-miterlimit="10" stroke-linejoin="round"/>
<path d="M0.529297 155.092H149.999" stroke="#E6EAEE" stroke-width="4" stroke-miterlimit="10" stroke-linejoin="round"/>
<path d="M0.529297 62.5314H54.0277C54.0277 73.3466 62.7953 82.1142 73.6105 82.1142C84.4256 82.1142 93.1933 73.3466 93.1933 62.5314H146.692" stroke="#E6EAEE" stroke-width="4" stroke-miterlimit="10" stroke-linejoin="round"/>
<path d="M58.3848 2C75.5525 17.3302 81.9576 52.8733 72.77 81.4338" stroke="#E6EAEE" stroke-width="4" stroke-miterlimit="10" stroke-linejoin="round"/>
<path d="M106.371 2C117.606 14.6002 123.591 39.4331 122.699 64.3185" stroke="#E6EAEE" stroke-width="4" stroke-miterlimit="10" stroke-linejoin="round"/>
<path d="M6.56641 2C23.6817 14.6002 32.9218 39.4331 31.5568 64.3185" stroke="#E6EAEE" stroke-width="4" stroke-miterlimit="10" stroke-linejoin="round"/>
<path d="M43.6332 137.977V121.124C43.6332 116.556 39.9057 112.829 35.3381 112.829C30.7705 112.829 27.043 109.101 27.043 104.534V88.8885" stroke="#E6EAEE" stroke-width="4" stroke-miterlimit="10" stroke-linejoin="round"/>
<path d="M122.121 95.2382V101.643C122.121 105.371 119.076 108.416 115.349 108.416C111.621 108.416 108.576 111.461 108.576 115.188V137.974" stroke="#E6EAEE" stroke-width="4" stroke-miterlimit="10" stroke-linejoin="round"/>
<path d="M108.576 121.599C98.8634 121.599 90.9883 113.723 90.9883 104.011V101.543" stroke="#E6EAEE" stroke-width="4" stroke-miterlimit="10" stroke-linejoin="round"/>
</svg>
