<svg width="82" height="70" viewBox="0 0 82 70" fill="none" xmlns="http://www.w3.org/2000/svg">
<path d="M41.7399 51.9001L46.7359 43.2555L38.0912 28.2957H20.8299L12.1992 43.2555L20.8299 58.2012H29.4605" stroke="#202945" stroke-width="2" stroke-miterlimit="10" stroke-linejoin="round"/>
<path d="M62.3554 9.60254L46.8904 13.3495L38.2598 28.2953L46.8904 43.2551H64.1658L72.7964 28.2953L61.0503 20.6891" stroke="#202945" stroke-width="2" stroke-miterlimit="10" stroke-linejoin="round"/>
<path d="M20.8301 28.2954V17.1667" stroke="#202945" stroke-width="2" stroke-miterlimit="10" stroke-linejoin="round"/>
<path d="M20.8301 69.3293V58.2007" stroke="#202945" stroke-width="2" stroke-miterlimit="10" stroke-linejoin="round"/>
<path d="M12.1988 43.2549H1" stroke="#202945" stroke-width="2" stroke-miterlimit="10" stroke-linejoin="round"/>
<path d="M38.0914 63.1123C40.8041 63.1123 43.0032 60.9133 43.0032 58.2006C43.0032 55.4879 40.8041 53.2888 38.0914 53.2888C35.3788 53.2888 33.1797 55.4879 33.1797 58.2006C33.1797 60.9133 35.3788 63.1123 38.0914 63.1123Z" stroke="#202945" stroke-width="2" stroke-miterlimit="10" stroke-linejoin="round"/>
<path d="M20.8297 17.7842C23.5424 17.7842 25.7415 15.5851 25.7415 12.8724C25.7415 10.1598 23.5424 7.96069 20.8297 7.96069C18.117 7.96069 15.918 10.1598 15.918 12.8724C15.918 15.5851 18.117 17.7842 20.8297 17.7842Z" stroke="#202945" stroke-width="2" stroke-miterlimit="10" stroke-linejoin="round"/>
<path d="M72.7965 10.8235C70.088 10.8235 67.8848 8.62024 67.8848 5.91176C67.8848 3.20327 70.088 1 72.7965 1C75.505 1 77.6942 3.21731 77.6942 5.92579" stroke="#202945" stroke-width="2" stroke-miterlimit="10" stroke-linejoin="round"/>
<path d="M74.1992 7.67969L80.8511 14.3316" stroke="#202945" stroke-width="2" stroke-miterlimit="10" stroke-linejoin="round"/>
<path d="M80.8941 7.67969L74.2422 14.3316" stroke="#202945" stroke-width="2" stroke-miterlimit="10" stroke-linejoin="round"/>
<path d="M1 59.7871L7.65192 66.439" stroke="#202945" stroke-width="2" stroke-miterlimit="10" stroke-linejoin="round"/>
<path d="M7.70856 59.7869L1.05664 66.4388" stroke="#202945" stroke-width="2" stroke-miterlimit="10" stroke-linejoin="round"/>
</svg>
