<svg width="15" height="15" viewBox="0 0 15 15" fill="none" xmlns="http://www.w3.org/2000/svg">
<circle cx="7.5" cy="7.5" r="7.5" fill="#7B8797"/>
<path d="M7.06178 8.61C7.06178 8.364 7.10078 8.148 7.17878 7.962C7.26278 7.776 7.36478 7.617 7.48478 7.485C7.60478 7.353 7.76078 7.203 7.95278 7.035C8.21078 6.807 8.39978 6.609 8.51978 6.441C8.64578 6.267 8.70878 6.057 8.70878 5.811C8.70878 5.481 8.57978 5.217 8.32178 5.019C8.06378 4.815 7.70978 4.713 7.25978 4.713C6.51578 4.713 5.94278 4.956 5.54078 5.442L5.06378 5.082C5.57378 4.458 6.32078 4.146 7.30478 4.146C7.93478 4.146 8.43578 4.287 8.80778 4.569C9.18578 4.851 9.37478 5.232 9.37478 5.712C9.37478 5.958 9.33278 6.177 9.24878 6.369C9.17078 6.555 9.07178 6.714 8.95178 6.846C8.83778 6.978 8.68478 7.131 8.49278 7.305C8.23478 7.539 8.04278 7.749 7.91678 7.935C7.79078 8.115 7.72778 8.34 7.72778 8.61H7.06178ZM7.39478 10.545C7.26278 10.545 7.15178 10.5 7.06178 10.41C6.97178 10.314 6.92678 10.203 6.92678 10.077C6.92678 9.945 6.97178 9.837 7.06178 9.753C7.15178 9.663 7.26278 9.618 7.39478 9.618C7.53278 9.618 7.64678 9.663 7.73678 9.753C7.82678 9.837 7.87178 9.945 7.87178 10.077C7.87178 10.203 7.82378 10.314 7.72778 10.41C7.63778 10.5 7.52678 10.545 7.39478 10.545Z" fill="white"/>
</svg>
