<svg width="117" height="161" viewBox="0 0 117 161" fill="none" xmlns="http://www.w3.org/2000/svg">
<path d="M58.3555 0V134.408" stroke="#E6EAEE" stroke-width="4" stroke-miterlimit="10" stroke-linejoin="round"/>
<path d="M32.8652 87.5311H57.746" stroke="#E6EAEE" stroke-width="4" stroke-miterlimit="10" stroke-linejoin="round"/>
<path d="M49.793 102.409H66.9466" stroke="#E6EAEE" stroke-width="4" stroke-miterlimit="10" stroke-linejoin="round"/>
<path d="M49.793 113.601H66.9466" stroke="#E6EAEE" stroke-width="4" stroke-miterlimit="10" stroke-linejoin="round"/>
<path d="M49.793 124.756H66.9466" stroke="#E6EAEE" stroke-width="4" stroke-miterlimit="10" stroke-linejoin="round"/>
<path d="M16.4805 74.4814H58.3867" stroke="#E6EAEE" stroke-width="4" stroke-miterlimit="10" stroke-linejoin="round"/>
<path d="M16.4805 59.5742H58.3867" stroke="#E6EAEE" stroke-width="4" stroke-miterlimit="10" stroke-linejoin="round"/>
<path d="M16.4805 44.6641H58.3867" stroke="#E6EAEE" stroke-width="4" stroke-miterlimit="10" stroke-linejoin="round"/>
<path d="M21.6094 29.7856H58.3535" stroke="#E6EAEE" stroke-width="4" stroke-miterlimit="10" stroke-linejoin="round"/>
<path d="M58.3545 15.4229H32.6721C29.3696 15.4229 26.7084 12.7617 26.7084 9.45924C26.7084 6.15677 24.0472 3.49554 20.7447 3.49554H0" stroke="#E6EAEE" stroke-width="4" stroke-miterlimit="10" stroke-linejoin="round"/>
<path d="M48.9591 153.678L37.0317 141.751C34.0498 138.769 29.2404 138.769 26.2585 141.751L23.1484 144.925" stroke="#E6EAEE" stroke-width="4" stroke-miterlimit="10" stroke-linejoin="round"/>
<path d="M84.1015 87.5646H59.2207" stroke="#E6EAEE" stroke-width="4" stroke-miterlimit="10" stroke-linejoin="round"/>
<path d="M100.484 74.4814H58.5781" stroke="#E6EAEE" stroke-width="4" stroke-miterlimit="10" stroke-linejoin="round"/>
<path d="M100.484 59.6039H58.5781" stroke="#E6EAEE" stroke-width="4" stroke-miterlimit="10" stroke-linejoin="round"/>
<path d="M100.484 44.6957H58.5781" stroke="#E6EAEE" stroke-width="4" stroke-miterlimit="10" stroke-linejoin="round"/>
<path d="M91.667 29.8182H58.5781" stroke="#E6EAEE" stroke-width="4" stroke-miterlimit="10" stroke-linejoin="round"/>
<path d="M58.6113 15.4546H84.2937C87.5962 15.4546 90.2574 12.7934 90.2574 9.49092C90.2574 6.18844 92.9186 3.52722 96.2211 3.52722H116.998" stroke="#E6EAEE" stroke-width="4" stroke-miterlimit="10" stroke-linejoin="round"/>
<path d="M95.035 159L105.776 140.692C107.027 138.576 107.668 136.171 107.668 133.734C107.668 126.135 101.512 119.947 93.8808 119.947H83.1717C78.9394 119.947 75.5087 123.378 75.5087 127.61C75.5087 131.843 72.078 135.273 67.8457 135.273L49.1209 135.241C44.8886 135.241 41.4579 131.811 41.4579 127.578C41.4579 123.346 38.0272 119.915 33.7949 119.915H23.0859C15.487 119.915 9.29883 126.071 9.29883 133.702C9.29883 136.139 9.94009 138.544 11.1905 140.66L21.9316 158.968" stroke="#E6EAEE" stroke-width="4" stroke-miterlimit="10" stroke-linejoin="round"/>
<path d="M68.0059 153.711L79.9333 141.783C82.9151 138.801 87.7246 138.801 90.7064 141.783L93.8486 144.925" stroke="#E6EAEE" stroke-width="4" stroke-miterlimit="10" stroke-linejoin="round"/>
</svg>
