<svg width="258" height="197" viewBox="0 0 258 197" fill="none" xmlns="http://www.w3.org/2000/svg">
<path d="M215.345 145.688H216.197V148.484H220.169V145.688H221.021V152H220.169V149.216H216.197V152H215.345V145.688ZM225.614 145.64C226.438 145.64 227.07 145.848 227.51 146.264C227.95 146.672 228.17 147.28 228.17 148.088V152H227.354V151.016C227.162 151.344 226.878 151.6 226.502 151.784C226.134 151.968 225.694 152.06 225.182 152.06C224.478 152.06 223.918 151.892 223.502 151.556C223.086 151.22 222.878 150.776 222.878 150.224C222.878 149.688 223.07 149.256 223.454 148.928C223.846 148.6 224.466 148.436 225.314 148.436H227.318V148.052C227.318 147.508 227.166 147.096 226.862 146.816C226.558 146.528 226.114 146.384 225.53 146.384C225.13 146.384 224.746 146.452 224.378 146.588C224.01 146.716 223.694 146.896 223.43 147.128L223.046 146.492C223.366 146.22 223.75 146.012 224.198 145.868C224.646 145.716 225.118 145.64 225.614 145.64ZM225.314 151.388C225.794 151.388 226.206 151.28 226.55 151.064C226.894 150.84 227.15 150.52 227.318 150.104V149.072H225.338C224.258 149.072 223.718 149.448 223.718 150.2C223.718 150.568 223.858 150.86 224.138 151.076C224.418 151.284 224.81 151.388 225.314 151.388ZM234.903 146.444H231.291V152H230.439V145.688H234.903V146.444ZM239.386 145.64C239.978 145.64 240.514 145.776 240.994 146.048C241.474 146.312 241.85 146.688 242.122 147.176C242.394 147.664 242.53 148.22 242.53 148.844C242.53 149.476 242.394 150.036 242.122 150.524C241.85 151.012 241.474 151.392 240.994 151.664C240.522 151.928 239.986 152.06 239.386 152.06C238.874 152.06 238.41 151.956 237.994 151.748C237.586 151.532 237.25 151.22 236.986 150.812V154.328H236.134V145.688H236.95V146.936C237.206 146.52 237.542 146.2 237.958 145.976C238.382 145.752 238.858 145.64 239.386 145.64ZM239.326 151.304C239.766 151.304 240.166 151.204 240.526 151.004C240.886 150.796 241.166 150.504 241.366 150.128C241.574 149.752 241.678 149.324 241.678 148.844C241.678 148.364 241.574 147.94 241.366 147.572C241.166 147.196 240.886 146.904 240.526 146.696C240.166 146.488 239.766 146.384 239.326 146.384C238.878 146.384 238.474 146.488 238.114 146.696C237.762 146.904 237.482 147.196 237.274 147.572C237.074 147.94 236.974 148.364 236.974 148.844C236.974 149.324 237.074 149.752 237.274 150.128C237.482 150.504 237.762 150.796 238.114 151.004C238.474 151.204 238.878 151.304 239.326 151.304ZM249.88 149.108H244.6C244.648 149.764 244.9 150.296 245.356 150.704C245.812 151.104 246.388 151.304 247.084 151.304C247.476 151.304 247.836 151.236 248.164 151.1C248.492 150.956 248.776 150.748 249.016 150.476L249.496 151.028C249.216 151.364 248.864 151.62 248.44 151.796C248.024 151.972 247.564 152.06 247.06 152.06C246.412 152.06 245.836 151.924 245.332 151.652C244.836 151.372 244.448 150.988 244.168 150.5C243.888 150.012 243.748 149.46 243.748 148.844C243.748 148.228 243.88 147.676 244.144 147.188C244.416 146.7 244.784 146.32 245.248 146.048C245.72 145.776 246.248 145.64 246.832 145.64C247.416 145.64 247.94 145.776 248.404 146.048C248.868 146.32 249.232 146.7 249.496 147.188C249.76 147.668 249.892 148.22 249.892 148.844L249.88 149.108ZM246.832 146.372C246.224 146.372 245.712 146.568 245.296 146.96C244.888 147.344 244.656 147.848 244.6 148.472H249.076C249.02 147.848 248.784 147.344 248.368 146.96C247.96 146.568 247.448 146.372 246.832 146.372ZM255.798 148.736C256.654 148.936 257.082 149.452 257.082 150.284C257.082 150.836 256.878 151.26 256.47 151.556C256.062 151.852 255.454 152 254.646 152H251.778V145.688H254.562C255.282 145.688 255.846 145.828 256.254 146.108C256.662 146.388 256.866 146.788 256.866 147.308C256.866 147.652 256.77 147.948 256.578 148.196C256.394 148.436 256.134 148.616 255.798 148.736ZM252.606 148.496H254.502C254.99 148.496 255.362 148.404 255.618 148.22C255.882 148.036 256.014 147.768 256.014 147.416C256.014 147.064 255.882 146.8 255.618 146.624C255.362 146.448 254.99 146.36 254.502 146.36H252.606V148.496ZM254.61 151.328C255.154 151.328 255.562 151.24 255.834 151.064C256.106 150.888 256.242 150.612 256.242 150.236C256.242 149.86 256.118 149.584 255.87 149.408C255.622 149.224 255.23 149.132 254.694 149.132H252.606V151.328H254.61Z" fill="#7B8797"/>
<path d="M5.63461 12L3.63061 9.36L1.61461 12H0.654609L3.15061 8.76L0.774609 5.688H1.73461L3.63061 8.16L5.52661 5.688H6.46261L4.08661 8.76L6.60661 12H5.63461ZM10.3844 12.06C9.77636 12.06 9.22836 11.924 8.74036 11.652C8.25236 11.372 7.86836 10.988 7.58836 10.5C7.30836 10.012 7.16836 9.46 7.16836 8.844C7.16836 8.228 7.30836 7.676 7.58836 7.188C7.86836 6.7 8.25236 6.32 8.74036 6.048C9.22836 5.776 9.77636 5.64 10.3844 5.64C10.9924 5.64 11.5404 5.776 12.0284 6.048C12.5164 6.32 12.8964 6.7 13.1684 7.188C13.4484 7.676 13.5884 8.228 13.5884 8.844C13.5884 9.46 13.4484 10.012 13.1684 10.5C12.8964 10.988 12.5164 11.372 12.0284 11.652C11.5404 11.924 10.9924 12.06 10.3844 12.06ZM10.3844 11.304C10.8324 11.304 11.2324 11.204 11.5844 11.004C11.9444 10.796 12.2244 10.504 12.4244 10.128C12.6244 9.752 12.7244 9.324 12.7244 8.844C12.7244 8.364 12.6244 7.936 12.4244 7.56C12.2244 7.184 11.9444 6.896 11.5844 6.696C11.2324 6.488 10.8324 6.384 10.3844 6.384C9.93636 6.384 9.53236 6.488 9.17236 6.696C8.82036 6.896 8.54036 7.184 8.33236 7.56C8.13236 7.936 8.03236 8.364 8.03236 8.844C8.03236 9.324 8.13236 9.752 8.33236 10.128C8.54036 10.504 8.82036 10.796 9.17236 11.004C9.53236 11.204 9.93636 11.304 10.3844 11.304ZM20.5341 5.688V12H19.6821V6.444H16.6581L16.5741 8.004C16.5101 9.316 16.3581 10.324 16.1181 11.028C15.8781 11.732 15.4501 12.084 14.8341 12.084C14.6661 12.084 14.4621 12.052 14.2221 11.988L14.2821 11.256C14.4261 11.288 14.5261 11.304 14.5821 11.304C14.9101 11.304 15.1581 11.152 15.3261 10.848C15.4941 10.544 15.6061 10.168 15.6621 9.72C15.7181 9.272 15.7661 8.68 15.8061 7.944L15.9141 5.688H20.5341ZM25.5601 12.06C24.9521 12.06 24.4041 11.924 23.9161 11.652C23.4281 11.372 23.0441 10.988 22.7641 10.5C22.4841 10.012 22.3441 9.46 22.3441 8.844C22.3441 8.228 22.4841 7.676 22.7641 7.188C23.0441 6.7 23.4281 6.32 23.9161 6.048C24.4041 5.776 24.9521 5.64 25.5601 5.64C26.1681 5.64 26.7161 5.776 27.2041 6.048C27.6921 6.32 28.0721 6.7 28.3441 7.188C28.6241 7.676 28.7641 8.228 28.7641 8.844C28.7641 9.46 28.6241 10.012 28.3441 10.5C28.0721 10.988 27.6921 11.372 27.2041 11.652C26.7161 11.924 26.1681 12.06 25.5601 12.06ZM25.5601 11.304C26.0081 11.304 26.4081 11.204 26.7601 11.004C27.1201 10.796 27.4001 10.504 27.6001 10.128C27.8001 9.752 27.9001 9.324 27.9001 8.844C27.9001 8.364 27.8001 7.936 27.6001 7.56C27.4001 7.184 27.1201 6.896 26.7601 6.696C26.4081 6.488 26.0081 6.384 25.5601 6.384C25.1121 6.384 24.7081 6.488 24.3481 6.696C23.9961 6.896 23.7161 7.184 23.5081 7.56C23.3081 7.936 23.2081 8.364 23.2081 8.844C23.2081 9.324 23.3081 9.752 23.5081 10.128C23.7161 10.504 23.9961 10.796 24.3481 11.004C24.7081 11.204 25.1121 11.304 25.5601 11.304ZM36.7059 11.256V13.524H35.9019V12H30.2499V13.524H29.4459V11.256H29.8059C30.2299 11.232 30.5179 10.92 30.6699 10.32C30.8219 9.72 30.9259 8.88 30.9819 7.8L31.0659 5.688H35.7219V11.256H36.7059ZM31.7619 7.848C31.7219 8.744 31.6459 9.484 31.5339 10.068C31.4219 10.644 31.2219 11.04 30.9339 11.256H34.8699V6.444H31.8339L31.7619 7.848ZM38.3663 5.688H39.2183V8.484H43.1903V5.688H44.0423V12H43.1903V9.216H39.2183V12H38.3663V5.688ZM48.636 5.64C49.46 5.64 50.092 5.848 50.532 6.264C50.972 6.672 51.192 7.28 51.192 8.088V12H50.376V11.016C50.184 11.344 49.9 11.6 49.524 11.784C49.156 11.968 48.716 12.06 48.204 12.06C47.5 12.06 46.94 11.892 46.524 11.556C46.108 11.22 45.9 10.776 45.9 10.224C45.9 9.688 46.092 9.256 46.476 8.928C46.868 8.6 47.488 8.436 48.336 8.436H50.34V8.052C50.34 7.508 50.188 7.096 49.884 6.816C49.58 6.528 49.136 6.384 48.552 6.384C48.152 6.384 47.768 6.452 47.4 6.588C47.032 6.716 46.716 6.896 46.452 7.128L46.068 6.492C46.388 6.22 46.772 6.012 47.22 5.868C47.668 5.716 48.14 5.64 48.636 5.64ZM48.336 11.388C48.816 11.388 49.228 11.28 49.572 11.064C49.916 10.84 50.172 10.52 50.34 10.104V9.072H48.36C47.28 9.072 46.74 9.448 46.74 10.2C46.74 10.568 46.88 10.86 47.16 11.076C47.44 11.284 47.832 11.388 48.336 11.388ZM58.308 5.688V12H57.528V9.912H55.548H55.308L53.844 12H52.92L54.492 9.792C54.004 9.656 53.628 9.424 53.364 9.096C53.1 8.768 52.968 8.352 52.968 7.848C52.968 7.144 53.208 6.608 53.688 6.24C54.168 5.872 54.824 5.688 55.656 5.688H58.308ZM53.832 7.872C53.832 8.808 54.428 9.276 55.62 9.276H57.528V6.444H55.68C54.448 6.444 53.832 6.92 53.832 7.872ZM7.01939 24.192H5.65139V27H4.79939V24.192H3.43139L1.49939 27H0.479391L2.74739 23.748L0.659391 20.688H1.58339L3.43139 23.46H4.79939V20.688H5.65139V23.46H7.01939L8.87939 20.688H9.80339L7.71539 23.76L9.98339 27H8.96339L7.01939 24.192ZM11.4015 20.688H12.2535V25.704L16.4655 20.688H17.2215V27H16.3695V21.984L12.1695 27H11.4015V20.688ZM25.8192 26.256V28.524H25.0152V27H19.3632V28.524H18.5592V26.256H18.9192C19.3432 26.232 19.6312 25.92 19.7832 25.32C19.9352 24.72 20.0392 23.88 20.0952 22.8L20.1792 20.688H24.8352V26.256H25.8192ZM20.8752 22.848C20.8352 23.744 20.7592 24.484 20.6472 25.068C20.5352 25.644 20.3352 26.04 20.0472 26.256H23.9832V21.444H20.9472L20.8752 22.848ZM29.7716 24.192H28.3316V27H27.4796V20.688H28.3316V23.46H29.7836L32.0036 20.688H32.9276L30.4436 23.748L33.1076 27H32.0996L29.7716 24.192ZM36.8336 27.06C36.2256 27.06 35.6776 26.924 35.1896 26.652C34.7016 26.372 34.3176 25.988 34.0376 25.5C33.7576 25.012 33.6176 24.46 33.6176 23.844C33.6176 23.228 33.7576 22.676 34.0376 22.188C34.3176 21.7 34.7016 21.32 35.1896 21.048C35.6776 20.776 36.2256 20.64 36.8336 20.64C37.4416 20.64 37.9896 20.776 38.4776 21.048C38.9656 21.32 39.3456 21.7 39.6176 22.188C39.8976 22.676 40.0376 23.228 40.0376 23.844C40.0376 24.46 39.8976 25.012 39.6176 25.5C39.3456 25.988 38.9656 26.372 38.4776 26.652C37.9896 26.924 37.4416 27.06 36.8336 27.06ZM36.8336 26.304C37.2816 26.304 37.6816 26.204 38.0336 26.004C38.3936 25.796 38.6736 25.504 38.8736 25.128C39.0736 24.752 39.1736 24.324 39.1736 23.844C39.1736 23.364 39.0736 22.936 38.8736 22.56C38.6736 22.184 38.3936 21.896 38.0336 21.696C37.6816 21.488 37.2816 21.384 36.8336 21.384C36.3856 21.384 35.9816 21.488 35.6216 21.696C35.2696 21.896 34.9896 22.184 34.7816 22.56C34.5816 22.936 34.4816 23.364 34.4816 23.844C34.4816 24.324 34.5816 24.752 34.7816 25.128C34.9896 25.504 35.2696 25.796 35.6216 26.004C35.9816 26.204 36.3856 26.304 36.8336 26.304ZM44.4985 27.06C43.8745 27.06 43.3145 26.924 42.8185 26.652C42.3305 26.38 41.9465 26 41.6665 25.512C41.3865 25.016 41.2465 24.46 41.2465 23.844C41.2465 23.228 41.3865 22.676 41.6665 22.188C41.9465 21.7 42.3305 21.32 42.8185 21.048C43.3145 20.776 43.8745 20.64 44.4985 20.64C45.0425 20.64 45.5265 20.748 45.9505 20.964C46.3825 21.172 46.7225 21.48 46.9705 21.888L46.3345 22.32C46.1265 22.008 45.8625 21.776 45.5425 21.624C45.2225 21.464 44.8745 21.384 44.4985 21.384C44.0425 21.384 43.6305 21.488 43.2625 21.696C42.9025 21.896 42.6185 22.184 42.4105 22.56C42.2105 22.936 42.1105 23.364 42.1105 23.844C42.1105 24.332 42.2105 24.764 42.4105 25.14C42.6185 25.508 42.9025 25.796 43.2625 26.004C43.6305 26.204 44.0425 26.304 44.4985 26.304C44.8745 26.304 45.2225 26.228 45.5425 26.076C45.8625 25.924 46.1265 25.692 46.3345 25.38L46.9705 25.812C46.7225 26.22 46.3825 26.532 45.9505 26.748C45.5185 26.956 45.0345 27.06 44.4985 27.06ZM52.943 21.444H50.555V27H49.703V21.444H47.315V20.688H52.943V21.444ZM56.8869 22.92C57.6789 22.928 58.2789 23.104 58.6869 23.448C59.1029 23.792 59.3109 24.288 59.3109 24.936C59.3109 25.608 59.0869 26.124 58.6389 26.484C58.1989 26.844 57.5589 27.02 56.7189 27.012L54.1749 27V20.688H55.0269V22.896L56.8869 22.92ZM56.6709 26.364C57.2549 26.372 57.6949 26.256 57.9909 26.016C58.2949 25.768 58.4469 25.408 58.4469 24.936C58.4469 24.472 58.2989 24.128 58.0029 23.904C57.7069 23.68 57.2629 23.564 56.6709 23.556L55.0269 23.532V26.34L56.6709 26.364Z" fill="#7B8797"/>
<path d="M177.657 12.06C177.033 12.06 176.473 11.924 175.977 11.652C175.489 11.38 175.105 11 174.825 10.512C174.545 10.016 174.405 9.46 174.405 8.844C174.405 8.228 174.545 7.676 174.825 7.188C175.105 6.7 175.489 6.32 175.977 6.048C176.473 5.776 177.033 5.64 177.657 5.64C178.201 5.64 178.685 5.748 179.109 5.964C179.541 6.172 179.881 6.48 180.129 6.888L179.493 7.32C179.285 7.008 179.021 6.776 178.701 6.624C178.381 6.464 178.033 6.384 177.657 6.384C177.201 6.384 176.789 6.488 176.421 6.696C176.061 6.896 175.777 7.184 175.569 7.56C175.369 7.936 175.269 8.364 175.269 8.844C175.269 9.332 175.369 9.764 175.569 10.14C175.777 10.508 176.061 10.796 176.421 11.004C176.789 11.204 177.201 11.304 177.657 11.304C178.033 11.304 178.381 11.228 178.701 11.076C179.021 10.924 179.285 10.692 179.493 10.38L180.129 10.812C179.881 11.22 179.541 11.532 179.109 11.748C178.677 11.956 178.193 12.06 177.657 12.06ZM186.101 6.444H183.713V12H182.861V6.444H180.473V5.688H186.101V6.444ZM192.56 9.108H187.28C187.328 9.764 187.58 10.296 188.036 10.704C188.492 11.104 189.068 11.304 189.764 11.304C190.156 11.304 190.516 11.236 190.844 11.1C191.172 10.956 191.456 10.748 191.696 10.476L192.176 11.028C191.896 11.364 191.544 11.62 191.12 11.796C190.704 11.972 190.244 12.06 189.74 12.06C189.092 12.06 188.516 11.924 188.012 11.652C187.516 11.372 187.128 10.988 186.848 10.5C186.568 10.012 186.428 9.46 186.428 8.844C186.428 8.228 186.56 7.676 186.824 7.188C187.096 6.7 187.464 6.32 187.928 6.048C188.4 5.776 188.928 5.64 189.512 5.64C190.096 5.64 190.62 5.776 191.084 6.048C191.548 6.32 191.912 6.7 192.176 7.188C192.44 7.668 192.572 8.22 192.572 8.844L192.56 9.108ZM189.512 6.372C188.904 6.372 188.392 6.568 187.976 6.96C187.568 7.344 187.336 7.848 187.28 8.472H191.756C191.7 7.848 191.464 7.344 191.048 6.96C190.64 6.568 190.128 6.372 189.512 6.372ZM194.458 5.688H195.31V8.484H199.282V5.688H200.134V12H199.282V9.216H195.31V12H194.458V5.688ZM204.848 9.192H203.408V12H202.556V5.688H203.408V8.46H204.86L207.08 5.688H208.004L205.52 8.748L208.184 12H207.176L204.848 9.192ZM211.583 5.64C212.407 5.64 213.039 5.848 213.479 6.264C213.919 6.672 214.139 7.28 214.139 8.088V12H213.323V11.016C213.131 11.344 212.847 11.6 212.471 11.784C212.103 11.968 211.663 12.06 211.151 12.06C210.447 12.06 209.887 11.892 209.471 11.556C209.055 11.22 208.847 10.776 208.847 10.224C208.847 9.688 209.039 9.256 209.423 8.928C209.815 8.6 210.435 8.436 211.283 8.436H213.287V8.052C213.287 7.508 213.135 7.096 212.831 6.816C212.527 6.528 212.083 6.384 211.499 6.384C211.099 6.384 210.715 6.452 210.347 6.588C209.979 6.716 209.663 6.896 209.399 7.128L209.015 6.492C209.335 6.22 209.719 6.012 210.167 5.868C210.615 5.716 211.087 5.64 211.583 5.64ZM211.283 11.388C211.763 11.388 212.175 11.28 212.519 11.064C212.863 10.84 213.119 10.52 213.287 10.104V9.072H211.307C210.227 9.072 209.687 9.448 209.687 10.2C209.687 10.568 209.827 10.86 210.107 11.076C210.387 11.284 210.779 11.388 211.283 11.388ZM172.522 24.192H171.082V27H170.23V20.688H171.082V23.46H172.534L174.754 20.688H175.678L173.194 23.748L175.858 27H174.85L172.522 24.192ZM179.584 27.06C178.976 27.06 178.428 26.924 177.94 26.652C177.452 26.372 177.068 25.988 176.788 25.5C176.508 25.012 176.368 24.46 176.368 23.844C176.368 23.228 176.508 22.676 176.788 22.188C177.068 21.7 177.452 21.32 177.94 21.048C178.428 20.776 178.976 20.64 179.584 20.64C180.192 20.64 180.74 20.776 181.228 21.048C181.716 21.32 182.096 21.7 182.368 22.188C182.648 22.676 182.788 23.228 182.788 23.844C182.788 24.46 182.648 25.012 182.368 25.5C182.096 25.988 181.716 26.372 181.228 26.652C180.74 26.924 180.192 27.06 179.584 27.06ZM179.584 26.304C180.032 26.304 180.432 26.204 180.784 26.004C181.144 25.796 181.424 25.504 181.624 25.128C181.824 24.752 181.924 24.324 181.924 23.844C181.924 23.364 181.824 22.936 181.624 22.56C181.424 22.184 181.144 21.896 180.784 21.696C180.432 21.488 180.032 21.384 179.584 21.384C179.136 21.384 178.732 21.488 178.372 21.696C178.02 21.896 177.74 22.184 177.532 22.56C177.332 22.936 177.232 23.364 177.232 23.844C177.232 24.324 177.332 24.752 177.532 25.128C177.74 25.504 178.02 25.796 178.372 26.004C178.732 26.204 179.136 26.304 179.584 26.304ZM187.86 20.64C188.452 20.64 188.988 20.776 189.468 21.048C189.948 21.312 190.324 21.688 190.596 22.176C190.868 22.664 191.004 23.22 191.004 23.844C191.004 24.476 190.868 25.036 190.596 25.524C190.324 26.012 189.948 26.392 189.468 26.664C188.996 26.928 188.46 27.06 187.86 27.06C187.348 27.06 186.884 26.956 186.468 26.748C186.06 26.532 185.724 26.22 185.46 25.812V29.328H184.608V20.688H185.424V21.936C185.68 21.52 186.016 21.2 186.432 20.976C186.856 20.752 187.332 20.64 187.86 20.64ZM187.8 26.304C188.24 26.304 188.64 26.204 189 26.004C189.36 25.796 189.64 25.504 189.84 25.128C190.048 24.752 190.152 24.324 190.152 23.844C190.152 23.364 190.048 22.94 189.84 22.572C189.64 22.196 189.36 21.904 189 21.696C188.64 21.488 188.24 21.384 187.8 21.384C187.352 21.384 186.948 21.488 186.588 21.696C186.236 21.904 185.956 22.196 185.748 22.572C185.548 22.94 185.448 23.364 185.448 23.844C185.448 24.324 185.548 24.752 185.748 25.128C185.956 25.504 186.236 25.796 186.588 26.004C186.948 26.204 187.352 26.304 187.8 26.304ZM198.499 20.688V27H197.647V21.444H193.687V27H192.835V20.688H198.499ZM206.285 20.688L203.129 27.756C202.873 28.348 202.577 28.768 202.241 29.016C201.905 29.264 201.501 29.388 201.029 29.388C200.725 29.388 200.441 29.34 200.177 29.244C199.913 29.148 199.685 29.004 199.493 28.812L199.889 28.176C200.209 28.496 200.593 28.656 201.041 28.656C201.329 28.656 201.573 28.576 201.773 28.416C201.981 28.256 202.173 27.984 202.349 27.6L202.625 26.988L199.805 20.688H200.693L203.069 26.052L205.445 20.688H206.285ZM210.077 27.06C209.453 27.06 208.893 26.924 208.397 26.652C207.909 26.38 207.525 26 207.245 25.512C206.965 25.016 206.825 24.46 206.825 23.844C206.825 23.228 206.965 22.676 207.245 22.188C207.525 21.7 207.909 21.32 208.397 21.048C208.893 20.776 209.453 20.64 210.077 20.64C210.621 20.64 211.105 20.748 211.529 20.964C211.961 21.172 212.301 21.48 212.549 21.888L211.913 22.32C211.705 22.008 211.441 21.776 211.121 21.624C210.801 21.464 210.453 21.384 210.077 21.384C209.621 21.384 209.209 21.488 208.841 21.696C208.481 21.896 208.197 22.184 207.989 22.56C207.789 22.936 207.689 23.364 207.689 23.844C207.689 24.332 207.789 24.764 207.989 25.14C208.197 25.508 208.481 25.796 208.841 26.004C209.209 26.204 209.621 26.304 210.077 26.304C210.453 26.304 210.801 26.228 211.121 26.076C211.441 25.924 211.705 25.692 211.913 25.38L212.549 25.812C212.301 26.22 211.961 26.532 211.529 26.748C211.097 26.956 210.613 27.06 210.077 27.06ZM216.37 20.64C217.194 20.64 217.826 20.848 218.266 21.264C218.706 21.672 218.926 22.28 218.926 23.088V27H218.11V26.016C217.918 26.344 217.634 26.6 217.258 26.784C216.89 26.968 216.45 27.06 215.938 27.06C215.234 27.06 214.674 26.892 214.258 26.556C213.842 26.22 213.634 25.776 213.634 25.224C213.634 24.688 213.826 24.256 214.21 23.928C214.602 23.6 215.222 23.436 216.07 23.436H218.074V23.052C218.074 22.508 217.922 22.096 217.618 21.816C217.314 21.528 216.87 21.384 216.286 21.384C215.886 21.384 215.502 21.452 215.134 21.588C214.766 21.716 214.45 21.896 214.186 22.128L213.802 21.492C214.122 21.22 214.506 21.012 214.954 20.868C215.402 20.716 215.874 20.64 216.37 20.64ZM216.07 26.388C216.55 26.388 216.962 26.28 217.306 26.064C217.65 25.84 217.906 25.52 218.074 25.104V24.072H216.094C215.014 24.072 214.474 24.448 214.474 25.2C214.474 25.568 214.614 25.86 214.894 26.076C215.174 26.284 215.566 26.388 216.07 26.388Z" fill="#7B8797"/>
<path d="M72 75.3125C72 81.215 66.8513 86 60.5 86C54.1487 86 49 81.215 49 75.3125C49 64.625 60.5 56 60.5 56C60.5 56 72 64.625 72 75.3125Z" fill="#FFE09A"/>
<path d="M70 129.312C70 135.215 65.299 140 59.5 140C53.701 140 49 135.215 49 129.312C49 118.625 59.5 110 59.5 110C59.5 110 70 118.625 70 129.312Z" fill="#FFE09A"/>
<path d="M72 180.312C72 186.215 66.8513 191 60.5 191C54.1487 191 49 186.215 49 180.312C49 169.625 60.5 161 60.5 161C60.5 161 72 169.625 72 180.312Z" fill="#FFE09A"/>
<path d="M82 105.312C82 111.215 77.299 116 71.5 116C65.701 116 61 111.215 61 105.312C61 94.625 71.5 86 71.5 86C71.5 86 82 94.625 82 105.312Z" fill="#FFE09A"/>
<path d="M82 154.312C82 160.215 77.299 165 71.5 165C65.701 165 61 160.215 61 154.312C61 143.625 71.5 135 71.5 135C71.5 135 82 143.625 82 154.312Z" fill="#FFE09A"/>
<path d="M242.996 111.249C242.101 110.502 241.244 109.694 240.539 108.765C236.515 103.457 238.597 99 238.597 99C231.13 102.176 229.432 107.215 229.351 110.969L229.356 111.007C229.356 111.007 229.421 113.227 230.419 115.64C230.739 116.409 230.213 117.272 229.399 117.393C228.83 117.475 228.282 117.167 228.044 116.645C227.615 115.7 227.051 114.205 227.214 113.145C225.983 114.799 225.186 116.821 225.028 119.069C224.632 124.608 228.429 129.674 233.798 130.773C240.094 132.065 246.054 127.691 246.9 121.344C247.426 117.382 245.832 113.623 242.996 111.249Z" stroke="#202945" stroke-miterlimit="10" stroke-linejoin="round"/>
<path d="M5.5 69.1927C5.5 57.2122 15.2122 47.5 27.1927 47.5C39.1733 47.5 48.8855 57.2122 48.8855 69.1927V195.76H5.5V69.1927Z" stroke="#202945"/>
<path d="M18.8145 72.1271C18.8145 67.5006 22.565 63.75 27.1915 63.75C31.8181 63.75 35.5686 67.5006 35.5686 72.1271V195.76H18.8145V72.1271Z" stroke="#202945"/>
<line x1="195.5" y1="47" x2="195.5" y2="195" stroke="#202945"/>
<circle cx="184.5" cy="106.5" r="10.5" fill="#C4C4C4"/>
<ellipse cx="184.5" cy="71" rx="10.5" ry="11" fill="#C4C4C4"/>
<circle cx="184.5" cy="141.5" r="10.5" fill="#C4C4C4"/>
<circle cx="184.5" cy="175.5" r="10.5" fill="#C4C4C4"/>
</svg>
