<svg width="36" height="33" viewBox="0 0 36 33" fill="none" xmlns="http://www.w3.org/2000/svg">
<path d="M34.1517 0.0586764L0.700539 13.9835C0.0635682 14.2494 0.0398562 15.1942 0.663275 15.4924L8.05959 19.0527C8.25949 19.1497 8.41196 19.3329 8.47633 19.5556L11.651 30.2616C11.8103 30.8004 12.4269 31.0124 12.8538 30.6711L18.3765 26.2594C18.6408 26.0475 18.9999 26.0403 19.2743 26.2343L28.5375 32.859C28.9983 33.1895 29.6285 32.9093 29.7301 32.3273L35.1952 0.967601C35.307 0.338898 34.7175 -0.178434 34.1517 0.0586764ZM13.8804 20.5723L12.8809 26.5863L10.3059 17.9713L27.9683 6.3457L13.8804 20.5723Z" fill="#202945"/>
</svg>
