<svg width="411" height="618" viewBox="0 0 411 618" fill="none" xmlns="http://www.w3.org/2000/svg">
<path d="M5.232 98.6061C6.088 98.8061 6.516 99.3221 6.516 100.154C6.516 100.706 6.312 101.13 5.904 101.426C5.496 101.722 4.888 101.87 4.08 101.87H1.212V95.5581H3.996C4.716 95.5581 5.28 95.6981 5.688 95.9781C6.096 96.2581 6.3 96.6581 6.3 97.1781C6.3 97.5221 6.204 97.8181 6.012 98.0661C5.828 98.3061 5.568 98.4861 5.232 98.6061ZM2.04 98.3661H3.936C4.424 98.3661 4.796 98.2741 5.052 98.0901C5.316 97.9061 5.448 97.6381 5.448 97.2861C5.448 96.9341 5.316 96.6701 5.052 96.4941C4.796 96.3181 4.424 96.2301 3.936 96.2301H2.04V98.3661ZM4.044 101.198C4.588 101.198 4.996 101.11 5.268 100.934C5.54 100.758 5.676 100.482 5.676 100.106C5.676 99.7301 5.552 99.4541 5.304 99.2781C5.056 99.0941 4.664 99.0021 4.128 99.0021H2.04V101.198H4.044ZM11.1168 101.93C10.5088 101.93 9.96078 101.794 9.47278 101.522C8.98478 101.242 8.60078 100.858 8.32078 100.37C8.04078 99.8821 7.90078 99.3301 7.90078 98.7141C7.90078 98.0981 8.04078 97.5461 8.32078 97.0581C8.60078 96.5701 8.98478 96.1901 9.47278 95.9181C9.96078 95.6461 10.5088 95.5101 11.1168 95.5101C11.7248 95.5101 12.2728 95.6461 12.7608 95.9181C13.2488 96.1901 13.6288 96.5701 13.9008 97.0581C14.1808 97.5461 14.3208 98.0981 14.3208 98.7141C14.3208 99.3301 14.1808 99.8821 13.9008 100.37C13.6288 100.858 13.2488 101.242 12.7608 101.522C12.2728 101.794 11.7248 101.93 11.1168 101.93ZM11.1168 101.174C11.5648 101.174 11.9648 101.074 12.3168 100.874C12.6768 100.666 12.9568 100.374 13.1568 99.9981C13.3568 99.6221 13.4568 99.1941 13.4568 98.7141C13.4568 98.2341 13.3568 97.8061 13.1568 97.4301C12.9568 97.0541 12.6768 96.7661 12.3168 96.5661C11.9648 96.3581 11.5648 96.2541 11.1168 96.2541C10.6688 96.2541 10.2648 96.3581 9.90478 96.5661C9.55278 96.7661 9.27278 97.0541 9.06478 97.4301C8.86478 97.8061 8.76478 98.2341 8.76478 98.7141C8.76478 99.1941 8.86478 99.6221 9.06478 99.9981C9.27278 100.374 9.55278 100.666 9.90478 100.874C10.2648 101.074 10.6688 101.174 11.1168 101.174ZM19.3937 95.5101C19.9857 95.5101 20.5217 95.6461 21.0017 95.9181C21.4817 96.1821 21.8577 96.5581 22.1297 97.0461C22.4017 97.5341 22.5377 98.0901 22.5377 98.7141C22.5377 99.3461 22.4017 99.9061 22.1297 100.394C21.8577 100.882 21.4817 101.262 21.0017 101.534C20.5297 101.798 19.9937 101.93 19.3937 101.93C18.8817 101.93 18.4177 101.826 18.0017 101.618C17.5937 101.402 17.2577 101.09 16.9937 100.682V104.198H16.1417V95.5581H16.9577V96.8061C17.2137 96.3901 17.5497 96.0701 17.9657 95.8461C18.3897 95.6221 18.8657 95.5101 19.3937 95.5101ZM19.3337 101.174C19.7737 101.174 20.1737 101.074 20.5337 100.874C20.8937 100.666 21.1737 100.374 21.3737 99.9981C21.5817 99.6221 21.6857 99.1941 21.6857 98.7141C21.6857 98.2341 21.5817 97.8101 21.3737 97.4421C21.1737 97.0661 20.8937 96.7741 20.5337 96.5661C20.1737 96.3581 19.7737 96.2541 19.3337 96.2541C18.8857 96.2541 18.4817 96.3581 18.1217 96.5661C17.7697 96.7741 17.4897 97.0661 17.2817 97.4421C17.0817 97.8101 16.9817 98.2341 16.9817 98.7141C16.9817 99.1941 17.0817 99.6221 17.2817 99.9981C17.4897 100.374 17.7697 100.666 18.1217 100.874C18.4817 101.074 18.8857 101.174 19.3337 101.174ZM26.9723 101.93C26.3643 101.93 25.8163 101.794 25.3283 101.522C24.8403 101.242 24.4563 100.858 24.1763 100.37C23.8963 99.8821 23.7563 99.3301 23.7563 98.7141C23.7563 98.0981 23.8963 97.5461 24.1763 97.0581C24.4563 96.5701 24.8403 96.1901 25.3283 95.9181C25.8163 95.6461 26.3643 95.5101 26.9723 95.5101C27.5803 95.5101 28.1283 95.6461 28.6163 95.9181C29.1043 96.1901 29.4843 96.5701 29.7563 97.0581C30.0363 97.5461 30.1763 98.0981 30.1763 98.7141C30.1763 99.3301 30.0363 99.8821 29.7563 100.37C29.4843 100.858 29.1043 101.242 28.6163 101.522C28.1283 101.794 27.5803 101.93 26.9723 101.93ZM26.9723 101.174C27.4203 101.174 27.8203 101.074 28.1723 100.874C28.5323 100.666 28.8123 100.374 29.0123 99.9981C29.2123 99.6221 29.3123 99.1941 29.3123 98.7141C29.3123 98.2341 29.2123 97.8061 29.0123 97.4301C28.8123 97.0541 28.5323 96.7661 28.1723 96.5661C27.8203 96.3581 27.4203 96.2541 26.9723 96.2541C26.5243 96.2541 26.1203 96.3581 25.7603 96.5661C25.4083 96.7661 25.1283 97.0541 24.9202 97.4301C24.7203 97.8061 24.6203 98.2341 24.6203 98.7141C24.6203 99.1941 24.7203 99.6221 24.9202 99.9981C25.1283 100.374 25.4083 100.666 25.7603 100.874C26.1203 101.074 26.5243 101.174 26.9723 101.174ZM31.9972 95.5581H32.8492V98.3541H36.8212V95.5581H37.6732V101.87H36.8212V99.0861H32.8492V101.87H31.9972V95.5581ZM42.3868 99.0621H40.9468V101.87H40.0948V95.5581H40.9468V98.3301H42.3988L44.6188 95.5581H45.5428L43.0588 98.6181L45.7228 101.87H44.7148L42.3868 99.0621ZM49.1223 95.5101C49.9463 95.5101 50.5783 95.7181 51.0183 96.1341C51.4583 96.5421 51.6783 97.1501 51.6783 97.9581V101.87H50.8623V100.886C50.6703 101.214 50.3863 101.47 50.0103 101.654C49.6423 101.838 49.2023 101.93 48.6903 101.93C47.9863 101.93 47.4263 101.762 47.0103 101.426C46.5943 101.09 46.3863 100.646 46.3863 100.094C46.3863 99.5581 46.5783 99.1261 46.9623 98.7981C47.3543 98.4701 47.9743 98.3061 48.8223 98.3061H50.8263V97.9221C50.8263 97.3781 50.6743 96.9661 50.3703 96.6861C50.0663 96.3981 49.6223 96.2541 49.0383 96.2541C48.6383 96.2541 48.2543 96.3221 47.8863 96.4581C47.5183 96.5861 47.2023 96.7661 46.9383 96.9981L46.5543 96.3621C46.8743 96.0901 47.2583 95.8821 47.7063 95.7381C48.1543 95.5861 48.6263 95.5101 49.1223 95.5101ZM48.8223 101.258C49.3023 101.258 49.7143 101.15 50.0583 100.934C50.4023 100.71 50.6583 100.39 50.8263 99.9741V98.9421H48.8463C47.7663 98.9421 47.2263 99.3181 47.2263 100.07C47.2263 100.438 47.3663 100.73 47.6463 100.946C47.9263 101.154 48.3183 101.258 48.8223 101.258ZM63.243 101.126V103.394H62.439V101.87H56.787V103.394H55.983V101.126H56.343C56.767 101.102 57.055 100.79 57.207 100.19C57.359 99.5901 57.463 98.7501 57.519 97.6701L57.603 95.5581H62.259V101.126H63.243ZM58.299 97.7181C58.259 98.6141 58.183 99.3541 58.071 99.9381C57.959 100.514 57.759 100.91 57.471 101.126H61.407V96.3141H58.371L58.299 97.7181ZM70.0634 95.5581V101.87H69.2114V96.3141H66.1874L66.1034 97.8741C66.0394 99.1861 65.8874 100.194 65.6474 100.898C65.4074 101.602 64.9794 101.954 64.3634 101.954C64.1954 101.954 63.9914 101.922 63.7514 101.858L63.8114 101.126C63.9554 101.158 64.0554 101.174 64.1114 101.174C64.4394 101.174 64.6874 101.022 64.8554 100.718C65.0234 100.414 65.1354 100.038 65.1914 99.5901C65.2474 99.1421 65.2954 98.5501 65.3354 97.8141L65.4434 95.5581H70.0634ZM77.3334 95.5581V101.87H76.5534V99.7821H74.5734H74.3334L72.8694 101.87H71.9454L73.5174 99.6621C73.0294 99.5261 72.6534 99.2941 72.3894 98.9661C72.1254 98.6381 71.9934 98.2221 71.9934 97.7181C71.9934 97.0141 72.2334 96.4781 72.7134 96.1101C73.1934 95.7421 73.8494 95.5581 74.6814 95.5581H77.3334ZM72.8574 97.7421C72.8574 98.6781 73.4534 99.1461 74.6454 99.1461H76.5534V96.3141H74.7054C73.4734 96.3141 72.8574 96.7901 72.8574 97.7421ZM85.5434 101.93C84.9194 101.93 84.3594 101.794 83.8634 101.522C83.3754 101.25 82.9914 100.87 82.7114 100.382C82.4314 99.8861 82.2914 99.3301 82.2914 98.7141C82.2914 98.0981 82.4314 97.5461 82.7114 97.0581C82.9914 96.5701 83.3754 96.1901 83.8634 95.9181C84.3594 95.6461 84.9194 95.5101 85.5434 95.5101C86.0874 95.5101 86.5714 95.6181 86.9954 95.8341C87.4274 96.0421 87.7674 96.3501 88.0154 96.7581L87.3794 97.1901C87.1714 96.8781 86.9074 96.6461 86.5874 96.4941C86.2674 96.3341 85.9194 96.2541 85.5434 96.2541C85.0874 96.2541 84.6754 96.3581 84.3074 96.5661C83.9474 96.7661 83.6634 97.0541 83.4554 97.4301C83.2554 97.8061 83.1554 98.2341 83.1554 98.7141C83.1554 99.2021 83.2554 99.6341 83.4554 100.01C83.6634 100.378 83.9474 100.666 84.3074 100.874C84.6754 101.074 85.0874 101.174 85.5434 101.174C85.9194 101.174 86.2674 101.098 86.5874 100.946C86.9074 100.794 87.1714 100.562 87.3794 100.25L88.0154 100.682C87.7674 101.09 87.4274 101.402 86.9954 101.618C86.5634 101.826 86.0794 101.93 85.5434 101.93ZM92.3171 97.7901C93.1091 97.7981 93.7131 97.9741 94.1291 98.3181C94.5451 98.6621 94.7531 99.1581 94.7531 99.8061C94.7531 100.478 94.5291 100.994 94.0811 101.354C93.6331 101.714 92.9931 101.89 92.1611 101.882L89.6651 101.87V95.5581H90.5171V97.7661L92.3171 97.7901ZM95.8091 95.5581H96.6611V101.87H95.8091V95.5581ZM92.1131 101.234C92.6971 101.242 93.1371 101.126 93.4331 100.886C93.7371 100.638 93.8891 100.278 93.8891 99.8061C93.8891 99.3421 93.7411 98.9981 93.4451 98.7741C93.1491 98.5501 92.7051 98.4341 92.1131 98.4261L90.5171 98.4021V101.21L92.1131 101.234ZM102.339 95.5101C102.931 95.5101 103.467 95.6461 103.947 95.9181C104.427 96.1821 104.803 96.5581 105.075 97.0461C105.347 97.5341 105.483 98.0901 105.483 98.7141C105.483 99.3461 105.347 99.9061 105.075 100.394C104.803 100.882 104.427 101.262 103.947 101.534C103.475 101.798 102.939 101.93 102.339 101.93C101.827 101.93 101.363 101.826 100.947 101.618C100.539 101.402 100.203 101.09 99.939 100.682V104.198H99.087V95.5581H99.903V96.8061C100.159 96.3901 100.495 96.0701 100.911 95.8461C101.335 95.6221 101.811 95.5101 102.339 95.5101ZM102.279 101.174C102.719 101.174 103.119 101.074 103.479 100.874C103.839 100.666 104.119 100.374 104.319 99.9981C104.527 99.6221 104.631 99.1941 104.631 98.7141C104.631 98.2341 104.527 97.8101 104.319 97.4421C104.119 97.0661 103.839 96.7741 103.479 96.5661C103.119 96.3581 102.719 96.2541 102.279 96.2541C101.831 96.2541 101.427 96.3581 101.067 96.5661C100.715 96.7741 100.435 97.0661 100.227 97.4421C100.027 97.8101 99.927 98.2341 99.927 98.7141C99.927 99.1941 100.027 99.6221 100.227 99.9981C100.435 100.374 100.715 100.666 101.067 100.874C101.427 101.074 101.831 101.174 102.279 101.174ZM110.026 97.7901C110.818 97.7981 111.418 97.9741 111.826 98.3181C112.242 98.6621 112.45 99.1581 112.45 99.8061C112.45 100.478 112.226 100.994 111.778 101.354C111.338 101.714 110.698 101.89 109.858 101.882L107.314 101.87V95.5581H108.166V97.7661L110.026 97.7901ZM109.81 101.234C110.394 101.242 110.834 101.126 111.13 100.886C111.434 100.638 111.586 100.278 111.586 99.8061C111.586 99.3421 111.438 98.9981 111.142 98.7741C110.846 98.5501 110.402 98.4341 109.81 98.4261L108.166 98.4021V101.21L109.81 101.234ZM118.455 95.5581V101.87H117.675V99.7821H115.695H115.455L113.991 101.87H113.067L114.639 99.6621C114.151 99.5261 113.775 99.2941 113.511 98.9661C113.247 98.6381 113.115 98.2221 113.115 97.7181C113.115 97.0141 113.355 96.4781 113.835 96.1101C114.315 95.7421 114.971 95.5581 115.803 95.5581H118.455ZM113.979 97.7421C113.979 98.6781 114.575 99.1461 115.767 99.1461H117.675V96.3141H115.827C114.595 96.3141 113.979 96.7901 113.979 97.7421ZM3.852 116.93C3.228 116.93 2.668 116.794 2.172 116.522C1.684 116.25 1.3 115.87 1.02 115.382C0.74 114.886 0.6 114.33 0.6 113.714C0.6 113.098 0.74 112.546 1.02 112.058C1.3 111.57 1.684 111.19 2.172 110.918C2.668 110.646 3.228 110.51 3.852 110.51C4.396 110.51 4.88 110.618 5.304 110.834C5.736 111.042 6.076 111.35 6.324 111.758L5.688 112.19C5.48 111.878 5.216 111.646 4.896 111.494C4.576 111.334 4.228 111.254 3.852 111.254C3.396 111.254 2.984 111.358 2.616 111.566C2.256 111.766 1.972 112.054 1.764 112.43C1.564 112.806 1.464 113.234 1.464 113.714C1.464 114.202 1.564 114.634 1.764 115.01C1.972 115.378 2.256 115.666 2.616 115.874C2.984 116.074 3.396 116.174 3.852 116.174C4.228 116.174 4.576 116.098 4.896 115.946C5.216 115.794 5.48 115.562 5.688 115.25L6.324 115.682C6.076 116.09 5.736 116.402 5.304 116.618C4.872 116.826 4.388 116.93 3.852 116.93ZM13.7543 116.93C13.1303 116.93 12.5703 116.794 12.0743 116.522C11.5863 116.25 11.2023 115.87 10.9223 115.382C10.6423 114.886 10.5023 114.33 10.5023 113.714C10.5023 113.098 10.6423 112.546 10.9223 112.058C11.2023 111.57 11.5863 111.19 12.0743 110.918C12.5703 110.646 13.1303 110.51 13.7543 110.51C14.2983 110.51 14.7823 110.618 15.2063 110.834C15.6383 111.042 15.9783 111.35 16.2263 111.758L15.5903 112.19C15.3823 111.878 15.1183 111.646 14.7983 111.494C14.4783 111.334 14.1303 111.254 13.7543 111.254C13.2983 111.254 12.8863 111.358 12.5183 111.566C12.1583 111.766 11.8743 112.054 11.6663 112.43C11.4663 112.806 11.3663 113.234 11.3663 113.714C11.3663 114.202 11.4663 114.634 11.6663 115.01C11.8743 115.378 12.1583 115.666 12.5183 115.874C12.8863 116.074 13.2983 116.174 13.7543 116.174C14.1303 116.174 14.4783 116.098 14.7983 115.946C15.1183 115.794 15.3823 115.562 15.5903 115.25L16.2263 115.682C15.9783 116.09 15.6383 116.402 15.2063 116.618C14.7743 116.826 14.2903 116.93 13.7543 116.93ZM17.8761 110.558H18.7281V115.574L22.9401 110.558H23.6961V116.87H22.8441V111.854L18.6441 116.87H17.8761V110.558ZM28.7778 116.93C28.1538 116.93 27.5938 116.794 27.0978 116.522C26.6098 116.25 26.2258 115.87 25.9458 115.382C25.6658 114.886 25.5258 114.33 25.5258 113.714C25.5258 113.098 25.6658 112.546 25.9458 112.058C26.2258 111.57 26.6098 111.19 27.0978 110.918C27.5938 110.646 28.1538 110.51 28.7778 110.51C29.3218 110.51 29.8058 110.618 30.2298 110.834C30.6618 111.042 31.0018 111.35 31.2498 111.758L30.6138 112.19C30.4058 111.878 30.1418 111.646 29.8218 111.494C29.5018 111.334 29.1538 111.254 28.7778 111.254C28.3218 111.254 27.9098 111.358 27.5418 111.566C27.1818 111.766 26.8978 112.054 26.6898 112.43C26.4898 112.806 26.3898 113.234 26.3898 113.714C26.3898 114.202 26.4898 114.634 26.6898 115.01C26.8978 115.378 27.1818 115.666 27.5418 115.874C27.9098 116.074 28.3218 116.174 28.7778 116.174C29.1538 116.174 29.5018 116.098 29.8218 115.946C30.1418 115.794 30.4058 115.562 30.6138 115.25L31.2498 115.682C31.0018 116.09 30.6618 116.402 30.2298 116.618C29.7978 116.826 29.3138 116.93 28.7778 116.93ZM37.2223 111.314H34.8343V116.87H33.9823V111.314H31.5943V110.558H37.2223V111.314ZM43.6812 113.978H38.4012C38.4492 114.634 38.7012 115.166 39.1572 115.574C39.6132 115.974 40.1892 116.174 40.8852 116.174C41.2772 116.174 41.6372 116.106 41.9652 115.97C42.2932 115.826 42.5772 115.618 42.8172 115.346L43.2972 115.898C43.0172 116.234 42.6652 116.49 42.2412 116.666C41.8252 116.842 41.3652 116.93 40.8612 116.93C40.2132 116.93 39.6372 116.794 39.1332 116.522C38.6372 116.242 38.2492 115.858 37.9692 115.37C37.6892 114.882 37.5492 114.33 37.5492 113.714C37.5492 113.098 37.6812 112.546 37.9452 112.058C38.2172 111.57 38.5852 111.19 39.0492 110.918C39.5212 110.646 40.0492 110.51 40.6332 110.51C41.2172 110.51 41.7412 110.646 42.2052 110.918C42.6692 111.19 43.0332 111.57 43.2972 112.058C43.5612 112.538 43.6932 113.09 43.6932 113.714L43.6812 113.978ZM40.6332 111.242C40.0252 111.242 39.5132 111.438 39.0972 111.83C38.6892 112.214 38.4572 112.718 38.4012 113.342H42.8772C42.8212 112.718 42.5852 112.214 42.1692 111.83C41.7612 111.438 41.2492 111.242 40.6332 111.242ZM52.6352 110.558V116.87H51.8552V111.878L49.2992 116.102H48.9152L46.3592 111.866V116.87H45.5792V110.558H46.4432L49.1192 115.106L51.8432 110.558H52.6352ZM57.6637 116.93C57.0557 116.93 56.5077 116.794 56.0197 116.522C55.5317 116.242 55.1477 115.858 54.8677 115.37C54.5877 114.882 54.4477 114.33 54.4477 113.714C54.4477 113.098 54.5877 112.546 54.8677 112.058C55.1477 111.57 55.5317 111.19 56.0197 110.918C56.5077 110.646 57.0557 110.51 57.6637 110.51C58.2717 110.51 58.8197 110.646 59.3077 110.918C59.7957 111.19 60.1757 111.57 60.4477 112.058C60.7277 112.546 60.8677 113.098 60.8677 113.714C60.8677 114.33 60.7277 114.882 60.4477 115.37C60.1757 115.858 59.7957 116.242 59.3077 116.522C58.8197 116.794 58.2717 116.93 57.6637 116.93ZM57.6637 116.174C58.1117 116.174 58.5117 116.074 58.8637 115.874C59.2237 115.666 59.5037 115.374 59.7037 114.998C59.9037 114.622 60.0037 114.194 60.0037 113.714C60.0037 113.234 59.9037 112.806 59.7037 112.43C59.5037 112.054 59.2237 111.766 58.8637 111.566C58.5117 111.358 58.1117 111.254 57.6637 111.254C57.2157 111.254 56.8117 111.358 56.4517 111.566C56.0997 111.766 55.8197 112.054 55.6117 112.43C55.4117 112.806 55.3117 113.234 55.3117 113.714C55.3117 114.194 55.4117 114.622 55.6117 114.998C55.8197 115.374 56.0997 115.666 56.4517 115.874C56.8117 116.074 57.2157 116.174 57.6637 116.174ZM62.6886 110.558H63.5406V115.574L67.7526 110.558H68.5086V116.87H67.6566V111.854L63.4566 116.87H62.6886V110.558ZM65.5566 109.646C65.0126 109.646 64.5806 109.51 64.2606 109.238C63.9406 108.966 63.7766 108.582 63.7686 108.086H64.3806C64.3886 108.398 64.5006 108.65 64.7166 108.842C64.9326 109.026 65.2126 109.118 65.5566 109.118C65.9006 109.118 66.1806 109.026 66.3966 108.842C66.6206 108.65 66.7366 108.398 66.7446 108.086H67.3566C67.3486 108.582 67.1806 108.966 66.8526 109.238C66.5326 109.51 66.1006 109.646 65.5566 109.646ZM80.2469 116.126V118.394H79.4429V116.87H73.7909V118.394H72.9869V116.126H73.3469C73.7709 116.102 74.0589 115.79 74.2109 115.19C74.3629 114.59 74.4669 113.75 74.5229 112.67L74.6069 110.558H79.2629V116.126H80.2469ZM75.3029 112.718C75.2629 113.614 75.1869 114.354 75.0749 114.938C74.9629 115.514 74.7629 115.91 74.4749 116.126H78.4109V111.314H75.3749L75.3029 112.718ZM87.4273 113.978H82.1473C82.1953 114.634 82.4473 115.166 82.9033 115.574C83.3593 115.974 83.9353 116.174 84.6313 116.174C85.0233 116.174 85.3833 116.106 85.7113 115.97C86.0393 115.826 86.3233 115.618 86.5633 115.346L87.0433 115.898C86.7633 116.234 86.4113 116.49 85.9873 116.666C85.5713 116.842 85.1113 116.93 84.6073 116.93C83.9593 116.93 83.3833 116.794 82.8793 116.522C82.3833 116.242 81.9953 115.858 81.7153 115.37C81.4353 114.882 81.2953 114.33 81.2953 113.714C81.2953 113.098 81.4273 112.546 81.6913 112.058C81.9633 111.57 82.3313 111.19 82.7953 110.918C83.2673 110.646 83.7953 110.51 84.3793 110.51C84.9633 110.51 85.4873 110.646 85.9513 110.918C86.4153 111.19 86.7793 111.57 87.0433 112.058C87.3073 112.538 87.4393 113.09 87.4393 113.714L87.4273 113.978ZM84.3793 111.242C83.7713 111.242 83.2593 111.438 82.8433 111.83C82.4353 112.214 82.2033 112.718 82.1473 113.342H86.6233C86.5673 112.718 86.3313 112.214 85.9153 111.83C85.5073 111.438 84.9953 111.242 84.3793 111.242ZM93.7893 111.314H90.1773V116.87H89.3253V110.558H93.7893V111.314ZM97.1926 110.51C98.0166 110.51 98.6486 110.718 99.0886 111.134C99.5286 111.542 99.7486 112.15 99.7486 112.958V116.87H98.9326V115.886C98.7406 116.214 98.4566 116.47 98.0806 116.654C97.7126 116.838 97.2726 116.93 96.7606 116.93C96.0566 116.93 95.4966 116.762 95.0806 116.426C94.6646 116.09 94.4566 115.646 94.4566 115.094C94.4566 114.558 94.6486 114.126 95.0326 113.798C95.4246 113.47 96.0446 113.306 96.8926 113.306H98.8966V112.922C98.8966 112.378 98.7446 111.966 98.4406 111.686C98.1366 111.398 97.6926 111.254 97.1086 111.254C96.7086 111.254 96.3246 111.322 95.9566 111.458C95.5886 111.586 95.2726 111.766 95.0086 111.998L94.6246 111.362C94.9446 111.09 95.3286 110.882 95.7766 110.738C96.2246 110.586 96.6966 110.51 97.1926 110.51ZM96.8926 116.258C97.3726 116.258 97.7846 116.15 98.1286 115.934C98.4726 115.71 98.7286 115.39 98.8966 114.974V113.942H96.9166C95.8366 113.942 95.2966 114.318 95.2966 115.07C95.2966 115.438 95.4366 115.73 95.7166 115.946C95.9966 116.154 96.3886 116.258 96.8926 116.258ZM104.96 113.582C105.408 113.686 105.752 113.866 105.992 114.122C106.24 114.378 106.364 114.69 106.364 115.058C106.364 115.426 106.236 115.754 105.98 116.042C105.732 116.33 105.392 116.554 104.96 116.714C104.528 116.866 104.052 116.942 103.532 116.942C103.076 116.942 102.628 116.878 102.188 116.75C101.748 116.614 101.364 116.418 101.036 116.162L101.324 115.526C101.612 115.742 101.948 115.91 102.332 116.03C102.716 116.15 103.104 116.21 103.496 116.21C104.08 116.21 104.556 116.102 104.924 115.886C105.3 115.662 105.488 115.362 105.488 114.986C105.488 114.65 105.336 114.39 105.032 114.206C104.728 114.014 104.312 113.918 103.784 113.918H102.704V113.294H103.736C104.208 113.294 104.588 113.206 104.876 113.03C105.164 112.846 105.308 112.602 105.308 112.298C105.308 111.962 105.144 111.698 104.816 111.506C104.496 111.314 104.076 111.218 103.556 111.218C102.876 111.218 102.204 111.39 101.54 111.734L101.3 111.074C102.052 110.682 102.832 110.486 103.64 110.486C104.12 110.486 104.552 110.558 104.936 110.702C105.328 110.838 105.632 111.034 105.848 111.29C106.072 111.546 106.184 111.842 106.184 112.178C106.184 112.498 106.072 112.782 105.848 113.03C105.632 113.278 105.336 113.462 104.96 113.582ZM110.47 110.51C111.294 110.51 111.926 110.718 112.366 111.134C112.806 111.542 113.026 112.15 113.026 112.958V116.87H112.21V115.886C112.018 116.214 111.734 116.47 111.358 116.654C110.99 116.838 110.55 116.93 110.038 116.93C109.334 116.93 108.774 116.762 108.358 116.426C107.942 116.09 107.734 115.646 107.734 115.094C107.734 114.558 107.926 114.126 108.31 113.798C108.702 113.47 109.322 113.306 110.17 113.306H112.174V112.922C112.174 112.378 112.022 111.966 111.718 111.686C111.414 111.398 110.97 111.254 110.386 111.254C109.986 111.254 109.602 111.322 109.234 111.458C108.866 111.586 108.55 111.766 108.286 111.998L107.902 111.362C108.222 111.09 108.606 110.882 109.054 110.738C109.502 110.586 109.974 110.51 110.47 110.51ZM110.17 116.258C110.65 116.258 111.062 116.15 111.406 115.934C111.75 115.71 112.006 115.39 112.174 114.974V113.942H110.194C109.114 113.942 108.574 114.318 108.574 115.07C108.574 115.438 108.714 115.73 108.994 115.946C109.274 116.154 109.666 116.258 110.17 116.258ZM121.87 116.126V118.454H121.066V116.87H115.294V110.558H116.146V116.126H119.998V110.558H120.85V116.126H121.87ZM123.497 110.558H124.349V115.574L128.561 110.558H129.317V116.87H128.465V111.854L124.265 116.87H123.497V110.558ZM131.759 110.558H132.611V115.574L136.823 110.558H137.579V116.87H136.727V111.854L132.527 116.87H131.759V110.558Z" fill="#7B8797"/>
<path d="M6.372 225.558V231.87H5.52V226.314H2.496L2.412 227.874C2.348 229.186 2.196 230.194 1.956 230.898C1.716 231.602 1.288 231.954 0.672 231.954C0.504 231.954 0.3 231.922 0.06 231.858L0.12 231.126C0.264 231.158 0.364 231.174 0.42 231.174C0.748 231.174 0.996 231.022 1.164 230.718C1.332 230.414 1.444 230.038 1.5 229.59C1.556 229.142 1.604 228.55 1.644 227.814L1.752 225.558H6.372ZM11.398 231.93C10.79 231.93 10.242 231.794 9.75403 231.522C9.26603 231.242 8.88203 230.858 8.60203 230.37C8.32203 229.882 8.18203 229.33 8.18203 228.714C8.18203 228.098 8.32203 227.546 8.60203 227.058C8.88203 226.57 9.26603 226.19 9.75403 225.918C10.242 225.646 10.79 225.51 11.398 225.51C12.006 225.51 12.554 225.646 13.042 225.918C13.53 226.19 13.91 226.57 14.182 227.058C14.462 227.546 14.602 228.098 14.602 228.714C14.602 229.33 14.462 229.882 14.182 230.37C13.91 230.858 13.53 231.242 13.042 231.522C12.554 231.794 12.006 231.93 11.398 231.93ZM11.398 231.174C11.846 231.174 12.246 231.074 12.598 230.874C12.958 230.666 13.238 230.374 13.438 229.998C13.638 229.622 13.738 229.194 13.738 228.714C13.738 228.234 13.638 227.806 13.438 227.43C13.238 227.054 12.958 226.766 12.598 226.566C12.246 226.358 11.846 226.254 11.398 226.254C10.95 226.254 10.546 226.358 10.186 226.566C9.83403 226.766 9.55403 227.054 9.34603 227.43C9.14603 227.806 9.04603 228.234 9.04603 228.714C9.04603 229.194 9.14603 229.622 9.34603 229.998C9.55403 230.374 9.83403 230.666 10.186 230.874C10.546 231.074 10.95 231.174 11.398 231.174ZM20.4429 228.606C21.2989 228.806 21.7269 229.322 21.7269 230.154C21.7269 230.706 21.5229 231.13 21.1149 231.426C20.7069 231.722 20.0989 231.87 19.2909 231.87H16.4229V225.558H19.2069C19.9269 225.558 20.4909 225.698 20.8989 225.978C21.3069 226.258 21.5109 226.658 21.5109 227.178C21.5109 227.522 21.4149 227.818 21.2229 228.066C21.0389 228.306 20.7789 228.486 20.4429 228.606ZM17.2509 228.366H19.1469C19.6349 228.366 20.0069 228.274 20.2629 228.09C20.5269 227.906 20.6589 227.638 20.6589 227.286C20.6589 226.934 20.5269 226.67 20.2629 226.494C20.0069 226.318 19.6349 226.23 19.1469 226.23H17.2509V228.366ZM19.2549 231.198C19.7989 231.198 20.2069 231.11 20.4789 230.934C20.7509 230.758 20.8869 230.482 20.8869 230.106C20.8869 229.73 20.7629 229.454 20.5149 229.278C20.2669 229.094 19.8749 229.002 19.3389 229.002H17.2509V231.198H19.2549ZM29.0877 225.558L25.9317 232.626C25.6757 233.218 25.3797 233.638 25.0437 233.886C24.7077 234.134 24.3037 234.258 23.8317 234.258C23.5277 234.258 23.2437 234.21 22.9797 234.114C22.7157 234.018 22.4877 233.874 22.2957 233.682L22.6917 233.046C23.0117 233.366 23.3957 233.526 23.8437 233.526C24.1317 233.526 24.3757 233.446 24.5757 233.286C24.7837 233.126 24.9757 232.854 25.1517 232.47L25.4277 231.858L22.6077 225.558H23.4957L25.8717 230.922L28.2477 225.558H29.0877ZM39.1271 225.558V231.87H30.4151V225.558H31.2671V231.126H34.3631V225.558H35.2151V231.126H38.2751V225.558H39.1271ZM43.8517 229.062H42.4117V231.87H41.5597V225.558H42.4117V228.33H43.8637L46.0837 225.558H47.0077L44.5237 228.618L47.1877 231.87H46.1797L43.8517 229.062ZM50.5871 225.51C51.4111 225.51 52.0431 225.718 52.4831 226.134C52.9231 226.542 53.1431 227.15 53.1431 227.958V231.87H52.3271V230.886C52.1351 231.214 51.8511 231.47 51.4751 231.654C51.1071 231.838 50.6671 231.93 50.1551 231.93C49.4511 231.93 48.8911 231.762 48.4751 231.426C48.0591 231.09 47.8511 230.646 47.8511 230.094C47.8511 229.558 48.0431 229.126 48.4271 228.798C48.8191 228.47 49.4391 228.306 50.2871 228.306H52.2911V227.922C52.2911 227.378 52.1391 226.966 51.8351 226.686C51.5311 226.398 51.0871 226.254 50.5031 226.254C50.1031 226.254 49.7191 226.322 49.3511 226.458C48.9831 226.586 48.6671 226.766 48.4031 226.998L48.0191 226.362C48.3391 226.09 48.7231 225.882 49.1711 225.738C49.6191 225.586 50.0911 225.51 50.5871 225.51ZM50.2871 231.258C50.7671 231.258 51.1791 231.15 51.5231 230.934C51.8671 230.71 52.1231 230.39 52.2911 229.974V228.942H50.3111C49.2311 228.942 48.6911 229.318 48.6911 230.07C48.6911 230.438 48.8311 230.73 49.1111 230.946C49.3911 231.154 49.7831 231.258 50.2871 231.258Z" fill="#7B8797"/>
<path d="M7.368 286.126V288.394H6.564V286.87H0.912V288.394H0.108V286.126H0.468C0.892 286.102 1.18 285.79 1.332 285.19C1.484 284.59 1.588 283.75 1.644 282.67L1.728 280.558H6.384V286.126H7.368ZM2.424 282.718C2.384 283.614 2.308 284.354 2.196 284.938C2.084 285.514 1.884 285.91 1.596 286.126H5.532V281.314H2.496L2.424 282.718ZM13.0484 283.606C13.9044 283.806 14.3324 284.322 14.3324 285.154C14.3324 285.706 14.1284 286.13 13.7204 286.426C13.3124 286.722 12.7044 286.87 11.8964 286.87H9.02841V280.558H11.8124C12.5324 280.558 13.0964 280.698 13.5044 280.978C13.9124 281.258 14.1164 281.658 14.1164 282.178C14.1164 282.522 14.0204 282.818 13.8284 283.066C13.6444 283.306 13.3844 283.486 13.0484 283.606ZM9.85641 283.366H11.7524C12.2404 283.366 12.6124 283.274 12.8684 283.09C13.1324 282.906 13.2644 282.638 13.2644 282.286C13.2644 281.934 13.1324 281.67 12.8684 281.494C12.6124 281.318 12.2404 281.23 11.7524 281.23H9.85641V283.366ZM11.8604 286.198C12.4044 286.198 12.8124 286.11 13.0844 285.934C13.3564 285.758 13.4924 285.482 13.4924 285.106C13.4924 284.73 13.3684 284.454 13.1204 284.278C12.8724 284.094 12.4804 284.002 11.9444 284.002H9.85641V286.198H11.8604ZM16.3292 280.558H17.1812V285.574L21.3932 280.558H22.1492V286.87H21.2972V281.854L17.0972 286.87H16.3292V280.558ZM29.0549 281.314H25.4429V286.87H24.5909V280.558H29.0549V281.314ZM32.4582 280.51C33.2822 280.51 33.9142 280.718 34.3542 281.134C34.7942 281.542 35.0142 282.15 35.0142 282.958V286.87H34.1982V285.886C34.0062 286.214 33.7222 286.47 33.3462 286.654C32.9782 286.838 32.5382 286.93 32.0262 286.93C31.3222 286.93 30.7622 286.762 30.3462 286.426C29.9302 286.09 29.7222 285.646 29.7222 285.094C29.7222 284.558 29.9142 284.126 30.2982 283.798C30.6902 283.47 31.3102 283.306 32.1582 283.306H34.1622V282.922C34.1622 282.378 34.0102 281.966 33.7062 281.686C33.4022 281.398 32.9582 281.254 32.3742 281.254C31.9742 281.254 31.5902 281.322 31.2222 281.458C30.8542 281.586 30.5382 281.766 30.2742 281.998L29.8902 281.362C30.2102 281.09 30.5942 280.882 31.0422 280.738C31.4902 280.586 31.9622 280.51 32.4582 280.51ZM32.1582 286.258C32.6382 286.258 33.0502 286.15 33.3942 285.934C33.7382 285.71 33.9942 285.39 34.1622 284.974V283.942H32.1822C31.1022 283.942 30.5622 284.318 30.5622 285.07C30.5622 285.438 30.7022 285.73 30.9822 285.946C31.2622 286.154 31.6542 286.258 32.1582 286.258ZM41.7223 281.314H39.3343V286.87H38.4823V281.314H36.0943V280.558H41.7223V281.314ZM48.1812 283.978H42.9012C42.9492 284.634 43.2012 285.166 43.6572 285.574C44.1132 285.974 44.6892 286.174 45.3852 286.174C45.7772 286.174 46.1372 286.106 46.4652 285.97C46.7932 285.826 47.0772 285.618 47.3172 285.346L47.7972 285.898C47.5172 286.234 47.1652 286.49 46.7412 286.666C46.3252 286.842 45.8652 286.93 45.3612 286.93C44.7132 286.93 44.1372 286.794 43.6332 286.522C43.1372 286.242 42.7492 285.858 42.4692 285.37C42.1892 284.882 42.0492 284.33 42.0492 283.714C42.0492 283.098 42.1812 282.546 42.4452 282.058C42.7172 281.57 43.0852 281.19 43.5492 280.918C44.0212 280.646 44.5492 280.51 45.1332 280.51C45.7172 280.51 46.2412 280.646 46.7052 280.918C47.1692 281.19 47.5332 281.57 47.7972 282.058C48.0612 282.538 48.1932 283.09 48.1932 283.714L48.1812 283.978ZM45.1332 281.242C44.5252 281.242 44.0132 281.438 43.5972 281.83C43.1892 282.214 42.9572 282.718 42.9012 283.342H47.3772C47.3212 282.718 47.0852 282.214 46.6692 281.83C46.2612 281.438 45.7492 281.242 45.1332 281.242ZM55.1103 280.558V286.87H54.2583V281.314H51.2343L51.1503 282.874C51.0863 284.186 50.9343 285.194 50.6943 285.898C50.4543 286.602 50.0263 286.954 49.4103 286.954C49.2423 286.954 49.0383 286.922 48.7983 286.858L48.8583 286.126C49.0023 286.158 49.1023 286.174 49.1583 286.174C49.4863 286.174 49.7343 286.022 49.9023 285.718C50.0703 285.414 50.1823 285.038 50.2383 284.59C50.2943 284.142 50.3423 283.55 50.3823 282.814L50.4903 280.558H55.1103ZM60.2443 282.79C61.0363 282.798 61.6363 282.974 62.0443 283.318C62.4603 283.662 62.6683 284.158 62.6683 284.806C62.6683 285.478 62.4443 285.994 61.9963 286.354C61.5563 286.714 60.9163 286.89 60.0763 286.882L57.5323 286.87V280.558H58.3843V282.766L60.2443 282.79ZM60.0283 286.234C60.6123 286.242 61.0523 286.126 61.3483 285.886C61.6523 285.638 61.8043 285.278 61.8043 284.806C61.8043 284.342 61.6563 283.998 61.3603 283.774C61.0643 283.55 60.6203 283.434 60.0283 283.426L58.3843 283.402V286.21L60.0283 286.234ZM6.372 295.558V301.87H5.52V296.314H2.496L2.412 297.874C2.348 299.186 2.196 300.194 1.956 300.898C1.716 301.602 1.288 301.954 0.672 301.954C0.504 301.954 0.3 301.922 0.06 301.858L0.12 301.126C0.264 301.158 0.364 301.174 0.42 301.174C0.748 301.174 0.996 301.022 1.164 300.718C1.332 300.414 1.444 300.038 1.5 299.59C1.556 299.142 1.604 298.55 1.644 297.814L1.752 295.558H6.372ZM11.398 301.93C10.79 301.93 10.242 301.794 9.75403 301.522C9.26603 301.242 8.88203 300.858 8.60203 300.37C8.32203 299.882 8.18203 299.33 8.18203 298.714C8.18203 298.098 8.32203 297.546 8.60203 297.058C8.88203 296.57 9.26603 296.19 9.75403 295.918C10.242 295.646 10.79 295.51 11.398 295.51C12.006 295.51 12.554 295.646 13.042 295.918C13.53 296.19 13.91 296.57 14.182 297.058C14.462 297.546 14.602 298.098 14.602 298.714C14.602 299.33 14.462 299.882 14.182 300.37C13.91 300.858 13.53 301.242 13.042 301.522C12.554 301.794 12.006 301.93 11.398 301.93ZM11.398 301.174C11.846 301.174 12.246 301.074 12.598 300.874C12.958 300.666 13.238 300.374 13.438 299.998C13.638 299.622 13.738 299.194 13.738 298.714C13.738 298.234 13.638 297.806 13.438 297.43C13.238 297.054 12.958 296.766 12.598 296.566C12.246 296.358 11.846 296.254 11.398 296.254C10.95 296.254 10.546 296.358 10.186 296.566C9.83403 296.766 9.55403 297.054 9.34603 297.43C9.14603 297.806 9.04603 298.234 9.04603 298.714C9.04603 299.194 9.14603 299.622 9.34603 299.998C9.55403 300.374 9.83403 300.666 10.186 300.874C10.546 301.074 10.95 301.174 11.398 301.174ZM22.0869 295.558V301.87H21.2349V296.314H17.2749V301.87H16.4229V295.558H22.0869ZM26.6809 295.51C27.5049 295.51 28.1369 295.718 28.5769 296.134C29.0169 296.542 29.2369 297.15 29.2369 297.958V301.87H28.4209V300.886C28.2289 301.214 27.9449 301.47 27.5689 301.654C27.2009 301.838 26.7609 301.93 26.2489 301.93C25.5449 301.93 24.9849 301.762 24.5689 301.426C24.1529 301.09 23.9449 300.646 23.9449 300.094C23.9449 299.558 24.1369 299.126 24.5209 298.798C24.9129 298.47 25.5329 298.306 26.3809 298.306H28.3849V297.922C28.3849 297.378 28.2329 296.966 27.9289 296.686C27.6249 296.398 27.1809 296.254 26.5969 296.254C26.1969 296.254 25.8129 296.322 25.4449 296.458C25.0769 296.586 24.7609 296.766 24.4969 296.998L24.1129 296.362C24.4329 296.09 24.8169 295.882 25.2649 295.738C25.7129 295.586 26.1849 295.51 26.6809 295.51ZM26.3809 301.258C26.8609 301.258 27.2729 301.15 27.6169 300.934C27.9609 300.71 28.2169 300.39 28.3849 299.974V298.942H26.4049C25.3249 298.942 24.7849 299.318 24.7849 300.07C24.7849 300.438 24.9249 300.73 25.2049 300.946C25.4849 301.154 25.8769 301.258 26.3809 301.258ZM34.145 301.93C33.521 301.93 32.961 301.794 32.465 301.522C31.977 301.25 31.593 300.87 31.313 300.382C31.033 299.886 30.893 299.33 30.893 298.714C30.893 298.098 31.033 297.546 31.313 297.058C31.593 296.57 31.977 296.19 32.465 295.918C32.961 295.646 33.521 295.51 34.145 295.51C34.689 295.51 35.173 295.618 35.597 295.834C36.029 296.042 36.369 296.35 36.617 296.758L35.981 297.19C35.773 296.878 35.509 296.646 35.189 296.494C34.869 296.334 34.521 296.254 34.145 296.254C33.689 296.254 33.277 296.358 32.909 296.566C32.549 296.766 32.265 297.054 32.057 297.43C31.857 297.806 31.757 298.234 31.757 298.714C31.757 299.202 31.857 299.634 32.057 300.01C32.265 300.378 32.549 300.666 32.909 300.874C33.277 301.074 33.689 301.174 34.145 301.174C34.521 301.174 34.869 301.098 35.189 300.946C35.509 300.794 35.773 300.562 35.981 300.25L36.617 300.682C36.369 301.09 36.029 301.402 35.597 301.618C35.165 301.826 34.681 301.93 34.145 301.93ZM42.5895 296.314H40.2015V301.87H39.3495V296.314H36.9615V295.558H42.5895V296.314ZM49.0484 298.978H43.7684C43.8164 299.634 44.0684 300.166 44.5244 300.574C44.9804 300.974 45.5564 301.174 46.2524 301.174C46.6444 301.174 47.0044 301.106 47.3324 300.97C47.6604 300.826 47.9444 300.618 48.1844 300.346L48.6644 300.898C48.3844 301.234 48.0324 301.49 47.6084 301.666C47.1924 301.842 46.7324 301.93 46.2284 301.93C45.5804 301.93 45.0044 301.794 44.5004 301.522C44.0044 301.242 43.6164 300.858 43.3364 300.37C43.0564 299.882 42.9164 299.33 42.9164 298.714C42.9164 298.098 43.0484 297.546 43.3124 297.058C43.5844 296.57 43.9524 296.19 44.4164 295.918C44.8884 295.646 45.4164 295.51 46.0004 295.51C46.5844 295.51 47.1084 295.646 47.5724 295.918C48.0364 296.19 48.4004 296.57 48.6644 297.058C48.9284 297.538 49.0604 298.09 49.0604 298.714L49.0484 298.978ZM46.0004 296.242C45.3924 296.242 44.8804 296.438 44.4644 296.83C44.0564 297.214 43.8244 297.718 43.7684 298.342H48.2444C48.1884 297.718 47.9524 297.214 47.5364 296.83C47.1284 296.438 46.6164 296.242 46.0004 296.242ZM50.9464 295.558H51.7984V300.574L56.0104 295.558H56.7664V301.87H55.9144V296.854L51.7144 301.87H50.9464V295.558ZM53.8144 294.646C53.2704 294.646 52.8384 294.51 52.5184 294.238C52.1984 293.966 52.0344 293.582 52.0264 293.086H52.6384C52.6464 293.398 52.7584 293.65 52.9744 293.842C53.1904 294.026 53.4704 294.118 53.8144 294.118C54.1584 294.118 54.4384 294.026 54.6544 293.842C54.8784 293.65 54.9944 293.398 55.0024 293.086H55.6144C55.6064 293.582 55.4384 293.966 55.1104 294.238C54.7904 294.51 54.3584 294.646 53.8144 294.646Z" fill="#7B8797"/>
<path d="M5.232 338.606C6.088 338.806 6.516 339.322 6.516 340.154C6.516 340.706 6.312 341.13 5.904 341.426C5.496 341.722 4.888 341.87 4.08 341.87H1.212V335.558H3.996C4.716 335.558 5.28 335.698 5.688 335.978C6.096 336.258 6.3 336.658 6.3 337.178C6.3 337.522 6.204 337.818 6.012 338.066C5.828 338.306 5.568 338.486 5.232 338.606ZM2.04 338.366H3.936C4.424 338.366 4.796 338.274 5.052 338.09C5.316 337.906 5.448 337.638 5.448 337.286C5.448 336.934 5.316 336.67 5.052 336.494C4.796 336.318 4.424 336.23 3.936 336.23H2.04V338.366ZM4.044 341.198C4.588 341.198 4.996 341.11 5.268 340.934C5.54 340.758 5.676 340.482 5.676 340.106C5.676 339.73 5.552 339.454 5.304 339.278C5.056 339.094 4.664 339.002 4.128 339.002H2.04V341.198H4.044ZM10.6848 335.51C11.5088 335.51 12.1408 335.718 12.5808 336.134C13.0208 336.542 13.2408 337.15 13.2408 337.958V341.87H12.4248V340.886C12.2328 341.214 11.9488 341.47 11.5728 341.654C11.2048 341.838 10.7648 341.93 10.2528 341.93C9.54878 341.93 8.98878 341.762 8.57278 341.426C8.15678 341.09 7.94878 340.646 7.94878 340.094C7.94878 339.558 8.14078 339.126 8.52478 338.798C8.91678 338.47 9.53678 338.306 10.3848 338.306H12.3888V337.922C12.3888 337.378 12.2368 336.966 11.9328 336.686C11.6288 336.398 11.1848 336.254 10.6008 336.254C10.2008 336.254 9.81678 336.322 9.44878 336.458C9.08078 336.586 8.76478 336.766 8.50078 336.998L8.11678 336.362C8.43678 336.09 8.82078 335.882 9.26878 335.738C9.71678 335.586 10.1888 335.51 10.6848 335.51ZM10.3848 341.258C10.8648 341.258 11.2768 341.15 11.6208 340.934C11.9648 340.71 12.2208 340.39 12.3888 339.974V338.942H10.4088C9.32878 338.942 8.78878 339.318 8.78878 340.07C8.78878 340.438 8.92878 340.73 9.20878 340.946C9.48878 341.154 9.88078 341.258 10.3848 341.258ZM17.8009 339.062H16.3609V341.87H15.5089V335.558H16.3609V338.33H17.8129L20.0329 335.558H20.9569L18.4729 338.618L21.1369 341.87H20.1289L17.8009 339.062ZM27.4823 335.558L24.3263 342.626C24.0703 343.218 23.7743 343.638 23.4383 343.886C23.1023 344.134 22.6983 344.258 22.2263 344.258C21.9223 344.258 21.6383 344.21 21.3743 344.114C21.1103 344.018 20.8822 343.874 20.6902 343.682L21.0863 343.046C21.4063 343.366 21.7903 343.526 22.2383 343.526C22.5263 343.526 22.7703 343.446 22.9703 343.286C23.1783 343.126 23.3703 342.854 23.5463 342.47L23.8223 341.858L21.0023 335.558H21.8903L24.2663 340.922L26.6423 335.558H27.4823ZM34.1151 335.558L30.9591 342.626C30.7031 343.218 30.4071 343.638 30.0711 343.886C29.7351 344.134 29.3311 344.258 28.8591 344.258C28.5551 344.258 28.2711 344.21 28.0071 344.114C27.7431 344.018 27.5151 343.874 27.3231 343.682L27.7191 343.046C28.0391 343.366 28.4231 343.526 28.8711 343.526C29.1591 343.526 29.4031 343.446 29.6031 343.286C29.8111 343.126 30.0031 342.854 30.1791 342.47L30.4551 341.858L27.6351 335.558H28.5231L30.8991 340.922L33.2751 335.558H34.1151ZM42.4985 335.558V341.87H41.7185V336.878L39.1625 341.102H38.7785L36.2225 336.866V341.87H35.4425V335.558H36.3065L38.9825 340.106L41.7065 335.558H42.4985ZM44.9229 335.558H45.7749V338.354H49.7469V335.558H50.5989V341.87H49.7469V339.086H45.7749V341.87H44.9229V335.558ZM55.1926 335.51C56.0166 335.51 56.6486 335.718 57.0886 336.134C57.5286 336.542 57.7486 337.15 57.7486 337.958V341.87H56.9326V340.886C56.7406 341.214 56.4566 341.47 56.0806 341.654C55.7126 341.838 55.2726 341.93 54.7606 341.93C54.0566 341.93 53.4966 341.762 53.0806 341.426C52.6646 341.09 52.4566 340.646 52.4566 340.094C52.4566 339.558 52.6486 339.126 53.0326 338.798C53.4246 338.47 54.0446 338.306 54.8926 338.306H56.8966V337.922C56.8966 337.378 56.7446 336.966 56.4406 336.686C56.1366 336.398 55.6926 336.254 55.1086 336.254C54.7086 336.254 54.3246 336.322 53.9566 336.458C53.5886 336.586 53.2726 336.766 53.0086 336.998L52.6246 336.362C52.9446 336.09 53.3286 335.882 53.7766 335.738C54.2246 335.586 54.6966 335.51 55.1926 335.51ZM54.8926 341.258C55.3726 341.258 55.7846 341.15 56.1286 340.934C56.4726 340.71 56.7286 340.39 56.8966 339.974V338.942H54.9166C53.8366 338.942 53.2966 339.318 53.2966 340.07C53.2966 340.438 53.4366 340.73 53.7166 340.946C53.9966 341.154 54.3886 341.258 54.8926 341.258ZM64.8647 335.558V341.87H64.0847V339.782H62.1047H61.8647L60.4007 341.87H59.4767L61.0487 339.662C60.5607 339.526 60.1847 339.294 59.9207 338.966C59.6567 338.638 59.5247 338.222 59.5247 337.718C59.5247 337.014 59.7647 336.478 60.2447 336.11C60.7247 335.742 61.3807 335.558 62.2127 335.558H64.8647ZM60.3887 337.742C60.3887 338.678 60.9847 339.146 62.1767 339.146H64.0847V336.314H62.2367C61.0047 336.314 60.3887 336.79 60.3887 337.742ZM3.852 356.93C3.228 356.93 2.668 356.794 2.172 356.522C1.684 356.25 1.3 355.87 1.02 355.382C0.74 354.886 0.6 354.33 0.6 353.714C0.6 353.098 0.74 352.546 1.02 352.058C1.3 351.57 1.684 351.19 2.172 350.918C2.668 350.646 3.228 350.51 3.852 350.51C4.396 350.51 4.88 350.618 5.304 350.834C5.736 351.042 6.076 351.35 6.324 351.758L5.688 352.19C5.48 351.878 5.216 351.646 4.896 351.494C4.576 351.334 4.228 351.254 3.852 351.254C3.396 351.254 2.984 351.358 2.616 351.566C2.256 351.766 1.972 352.054 1.764 352.43C1.564 352.806 1.464 353.234 1.464 353.714C1.464 354.202 1.564 354.634 1.764 355.01C1.972 355.378 2.256 355.666 2.616 355.874C2.984 356.074 3.396 356.174 3.852 356.174C4.228 356.174 4.576 356.098 4.896 355.946C5.216 355.794 5.48 355.562 5.688 355.25L6.324 355.682C6.076 356.09 5.736 356.402 5.304 356.618C4.872 356.826 4.388 356.93 3.852 356.93ZM7.97372 350.558H8.82572V355.574L13.0377 350.558H13.7937V356.87H12.9417V351.854L8.74172 356.87H7.97372V350.558ZM18.8754 356.93C18.2514 356.93 17.6914 356.794 17.1954 356.522C16.7074 356.25 16.3234 355.87 16.0434 355.382C15.7634 354.886 15.6234 354.33 15.6234 353.714C15.6234 353.098 15.7634 352.546 16.0434 352.058C16.3234 351.57 16.7074 351.19 17.1954 350.918C17.6914 350.646 18.2514 350.51 18.8754 350.51C19.4194 350.51 19.9034 350.618 20.3274 350.834C20.7594 351.042 21.0994 351.35 21.3474 351.758L20.7114 352.19C20.5034 351.878 20.2394 351.646 19.9194 351.494C19.5994 351.334 19.2514 351.254 18.8754 351.254C18.4194 351.254 18.0074 351.358 17.6394 351.566C17.2794 351.766 16.9954 352.054 16.7874 352.43C16.5874 352.806 16.4874 353.234 16.4874 353.714C16.4874 354.202 16.5874 354.634 16.7874 355.01C16.9954 355.378 17.2794 355.666 17.6394 355.874C18.0074 356.074 18.4194 356.174 18.8754 356.174C19.2514 356.174 19.5994 356.098 19.9194 355.946C20.2394 355.794 20.5034 355.562 20.7114 355.25L21.3474 355.682C21.0994 356.09 20.7594 356.402 20.3274 356.618C19.8954 356.826 19.4114 356.93 18.8754 356.93ZM27.32 351.314H24.932V356.87H24.08V351.314H21.692V350.558H27.32V351.314ZM33.7789 353.978H28.4989C28.5469 354.634 28.7989 355.166 29.2549 355.574C29.7109 355.974 30.2869 356.174 30.9829 356.174C31.3749 356.174 31.7349 356.106 32.0629 355.97C32.3909 355.826 32.6749 355.618 32.9149 355.346L33.3949 355.898C33.1149 356.234 32.7629 356.49 32.3389 356.666C31.9229 356.842 31.4629 356.93 30.9589 356.93C30.3109 356.93 29.7349 356.794 29.2309 356.522C28.7349 356.242 28.3469 355.858 28.0669 355.37C27.7869 354.882 27.6469 354.33 27.6469 353.714C27.6469 353.098 27.7789 352.546 28.0429 352.058C28.3149 351.57 28.6829 351.19 29.1469 350.918C29.6189 350.646 30.1469 350.51 30.7309 350.51C31.3149 350.51 31.8389 350.646 32.3029 350.918C32.7669 351.19 33.1309 351.57 33.3949 352.058C33.6589 352.538 33.7909 353.09 33.7909 353.714L33.7789 353.978ZM30.7309 351.242C30.1229 351.242 29.6109 351.438 29.1949 351.83C28.7869 352.214 28.5549 352.718 28.4989 353.342H32.9749C32.9189 352.718 32.6829 352.214 32.2669 351.83C31.8589 351.438 31.3469 351.242 30.7309 351.242ZM42.7328 350.558V356.87H41.9528V351.878L39.3968 356.102H39.0128L36.4568 351.866V356.87H35.6768V350.558H36.5408L39.2168 355.106L41.9408 350.558H42.7328ZM47.3293 350.51C48.1533 350.51 48.7853 350.718 49.2253 351.134C49.6653 351.542 49.8853 352.15 49.8853 352.958V356.87H49.0693V355.886C48.8773 356.214 48.5933 356.47 48.2173 356.654C47.8493 356.838 47.4093 356.93 46.8973 356.93C46.1933 356.93 45.6333 356.762 45.2173 356.426C44.8013 356.09 44.5933 355.646 44.5933 355.094C44.5933 354.558 44.7853 354.126 45.1693 353.798C45.5613 353.47 46.1813 353.306 47.0293 353.306H49.0333V352.922C49.0333 352.378 48.8813 351.966 48.5773 351.686C48.2733 351.398 47.8293 351.254 47.2453 351.254C46.8453 351.254 46.4613 351.322 46.0933 351.458C45.7253 351.586 45.4093 351.766 45.1453 351.998L44.7613 351.362C45.0813 351.09 45.4653 350.882 45.9133 350.738C46.3613 350.586 46.8333 350.51 47.3293 350.51ZM47.0293 356.258C47.5093 356.258 47.9213 356.15 48.2653 355.934C48.6093 355.71 48.8653 355.39 49.0333 354.974V353.942H47.0533C45.9733 353.942 45.4333 354.318 45.4333 355.07C45.4333 355.438 45.5733 355.73 45.8533 355.946C46.1333 356.154 46.5253 356.258 47.0293 356.258Z" fill="#7B8797"/>
<path d="M3.504 404.062H2.064V406.87H1.212V400.558H2.064V403.33H3.516L5.736 400.558H6.66L4.176 403.618L6.84 406.87H5.832L3.504 404.062ZM10.566 406.93C9.958 406.93 9.41 406.794 8.922 406.522C8.434 406.242 8.05 405.858 7.77 405.37C7.49 404.882 7.35 404.33 7.35 403.714C7.35 403.098 7.49 402.546 7.77 402.058C8.05 401.57 8.434 401.19 8.922 400.918C9.41 400.646 9.958 400.51 10.566 400.51C11.174 400.51 11.722 400.646 12.21 400.918C12.698 401.19 13.078 401.57 13.35 402.058C13.63 402.546 13.77 403.098 13.77 403.714C13.77 404.33 13.63 404.882 13.35 405.37C13.078 405.858 12.698 406.242 12.21 406.522C11.722 406.794 11.174 406.93 10.566 406.93ZM10.566 406.174C11.014 406.174 11.414 406.074 11.766 405.874C12.126 405.666 12.406 405.374 12.606 404.998C12.806 404.622 12.906 404.194 12.906 403.714C12.906 403.234 12.806 402.806 12.606 402.43C12.406 402.054 12.126 401.766 11.766 401.566C11.414 401.358 11.014 401.254 10.566 401.254C10.118 401.254 9.714 401.358 9.354 401.566C9.002 401.766 8.722 402.054 8.514 402.43C8.314 402.806 8.214 403.234 8.214 403.714C8.214 404.194 8.314 404.622 8.514 404.998C8.722 405.374 9.002 405.666 9.354 405.874C9.714 406.074 10.118 406.174 10.566 406.174ZM18.8429 400.51C19.4349 400.51 19.9709 400.646 20.4509 400.918C20.9309 401.182 21.3069 401.558 21.5789 402.046C21.8509 402.534 21.9869 403.09 21.9869 403.714C21.9869 404.346 21.8509 404.906 21.5789 405.394C21.3069 405.882 20.9309 406.262 20.4509 406.534C19.9789 406.798 19.4429 406.93 18.8429 406.93C18.3309 406.93 17.8669 406.826 17.4509 406.618C17.0429 406.402 16.7069 406.09 16.4429 405.682V409.198H15.5909V400.558H16.4069V401.806C16.6629 401.39 16.9989 401.07 17.4149 400.846C17.8389 400.622 18.3149 400.51 18.8429 400.51ZM18.7829 406.174C19.2229 406.174 19.6229 406.074 19.9829 405.874C20.3429 405.666 20.6229 405.374 20.8229 404.998C21.0309 404.622 21.1349 404.194 21.1349 403.714C21.1349 403.234 21.0309 402.81 20.8229 402.442C20.6229 402.066 20.3429 401.774 19.9829 401.566C19.6229 401.358 19.2229 401.254 18.7829 401.254C18.3349 401.254 17.9309 401.358 17.5709 401.566C17.2189 401.774 16.9389 402.066 16.7309 402.442C16.5309 402.81 16.4309 403.234 16.4309 403.714C16.4309 404.194 16.5309 404.622 16.7309 404.998C16.9389 405.374 17.2189 405.666 17.5709 405.874C17.9309 406.074 18.3349 406.174 18.7829 406.174ZM29.4815 400.558V406.87H28.6295V401.314H24.6695V406.87H23.8175V400.558H29.4815ZM37.2674 400.558L34.1114 407.626C33.8554 408.218 33.5594 408.638 33.2234 408.886C32.8874 409.134 32.4834 409.258 32.0114 409.258C31.7074 409.258 31.4234 409.21 31.1594 409.114C30.8954 409.018 30.6674 408.874 30.4754 408.682L30.8714 408.046C31.1914 408.366 31.5754 408.526 32.0234 408.526C32.3114 408.526 32.5554 408.446 32.7554 408.286C32.9634 408.126 33.1554 407.854 33.3314 407.47L33.6074 406.858L30.7874 400.558H31.6754L34.0514 405.922L36.4274 400.558H37.2674ZM41.059 406.93C40.435 406.93 39.875 406.794 39.379 406.522C38.891 406.25 38.507 405.87 38.227 405.382C37.947 404.886 37.807 404.33 37.807 403.714C37.807 403.098 37.947 402.546 38.227 402.058C38.507 401.57 38.891 401.19 39.379 400.918C39.875 400.646 40.435 400.51 41.059 400.51C41.603 400.51 42.087 400.618 42.511 400.834C42.943 401.042 43.283 401.35 43.531 401.758L42.895 402.19C42.687 401.878 42.423 401.646 42.103 401.494C41.783 401.334 41.435 401.254 41.059 401.254C40.603 401.254 40.191 401.358 39.823 401.566C39.463 401.766 39.179 402.054 38.971 402.43C38.771 402.806 38.671 403.234 38.671 403.714C38.671 404.202 38.771 404.634 38.971 405.01C39.179 405.378 39.463 405.666 39.823 405.874C40.191 406.074 40.603 406.174 41.059 406.174C41.435 406.174 41.783 406.098 42.103 405.946C42.423 405.794 42.687 405.562 42.895 405.25L43.531 405.682C43.283 406.09 42.943 406.402 42.511 406.618C42.079 406.826 41.595 406.93 41.059 406.93Z" fill="#7B8797"/>
<path d="M5.232 448.606C6.088 448.806 6.516 449.322 6.516 450.154C6.516 450.706 6.312 451.13 5.904 451.426C5.496 451.722 4.888 451.87 4.08 451.87H1.212V445.558H3.996C4.716 445.558 5.28 445.698 5.688 445.978C6.096 446.258 6.3 446.658 6.3 447.178C6.3 447.522 6.204 447.818 6.012 448.066C5.828 448.306 5.568 448.486 5.232 448.606ZM2.04 448.366H3.936C4.424 448.366 4.796 448.274 5.052 448.09C5.316 447.906 5.448 447.638 5.448 447.286C5.448 446.934 5.316 446.67 5.052 446.494C4.796 446.318 4.424 446.23 3.936 446.23H2.04V448.366ZM4.044 451.198C4.588 451.198 4.996 451.11 5.268 450.934C5.54 450.758 5.676 450.482 5.676 450.106C5.676 449.73 5.552 449.454 5.304 449.278C5.056 449.094 4.664 449.002 4.128 449.002H2.04V451.198H4.044ZM8.51278 445.558H9.36478V448.354H13.3368V445.558H14.1888V451.87H13.3368V449.086H9.36478V451.87H8.51278V445.558ZM21.9744 445.558L18.8184 452.626C18.5624 453.218 18.2664 453.638 17.9304 453.886C17.5944 454.134 17.1904 454.258 16.7184 454.258C16.4144 454.258 16.1304 454.21 15.8664 454.114C15.6024 454.018 15.3744 453.874 15.1824 453.682L15.5784 453.046C15.8984 453.366 16.2824 453.526 16.7304 453.526C17.0184 453.526 17.2624 453.446 17.4624 453.286C17.6704 453.126 17.8624 452.854 18.0384 452.47L18.3144 451.858L15.4944 445.558H16.3824L18.7584 450.922L21.1344 445.558H21.9744ZM27.7653 446.314H25.3773V451.87H24.5253V446.314H22.1373V445.558H27.7653V446.314ZM32.2492 445.51C32.8412 445.51 33.3772 445.646 33.8572 445.918C34.3372 446.182 34.7132 446.558 34.9852 447.046C35.2572 447.534 35.3932 448.09 35.3932 448.714C35.3932 449.346 35.2572 449.906 34.9852 450.394C34.7132 450.882 34.3372 451.262 33.8572 451.534C33.3852 451.798 32.8492 451.93 32.2492 451.93C31.7372 451.93 31.2732 451.826 30.8572 451.618C30.4492 451.402 30.1132 451.09 29.8492 450.682V454.198H28.9972V445.558H29.8132V446.806C30.0692 446.39 30.4052 446.07 30.8212 445.846C31.2452 445.622 31.7212 445.51 32.2492 445.51ZM32.1892 451.174C32.6292 451.174 33.0292 451.074 33.3892 450.874C33.7492 450.666 34.0292 450.374 34.2292 449.998C34.4372 449.622 34.5412 449.194 34.5412 448.714C34.5412 448.234 34.4372 447.81 34.2292 447.442C34.0292 447.066 33.7492 446.774 33.3892 446.566C33.0292 446.358 32.6292 446.254 32.1892 446.254C31.7412 446.254 31.3372 446.358 30.9772 446.566C30.6252 446.774 30.3452 447.066 30.1372 447.442C29.9372 447.81 29.8372 448.234 29.8372 448.714C29.8372 449.194 29.9372 449.622 30.1372 449.998C30.3452 450.374 30.6252 450.666 30.9772 450.874C31.3372 451.074 31.7412 451.174 32.1892 451.174ZM42.7437 448.978H37.4637C37.5117 449.634 37.7637 450.166 38.2197 450.574C38.6757 450.974 39.2517 451.174 39.9477 451.174C40.3397 451.174 40.6997 451.106 41.0277 450.97C41.3557 450.826 41.6397 450.618 41.8797 450.346L42.3597 450.898C42.0797 451.234 41.7277 451.49 41.3037 451.666C40.8877 451.842 40.4277 451.93 39.9237 451.93C39.2757 451.93 38.6997 451.794 38.1957 451.522C37.6997 451.242 37.3117 450.858 37.0317 450.37C36.7517 449.882 36.6117 449.33 36.6117 448.714C36.6117 448.098 36.7437 447.546 37.0077 447.058C37.2797 446.57 37.6477 446.19 38.1117 445.918C38.5837 445.646 39.1117 445.51 39.6957 445.51C40.2797 445.51 40.8037 445.646 41.2677 445.918C41.7317 446.19 42.0957 446.57 42.3597 447.058C42.6237 447.538 42.7557 448.09 42.7557 448.714L42.7437 448.978ZM39.6957 446.242C39.0877 446.242 38.5757 446.438 38.1597 446.83C37.7517 447.214 37.5197 447.718 37.4637 448.342H41.9397C41.8837 447.718 41.6477 447.214 41.2317 446.83C40.8237 446.438 40.3117 446.242 39.6957 446.242ZM44.6417 445.558H45.4937V448.354H49.4657V445.558H50.3177V451.87H49.4657V449.086H45.4937V451.87H44.6417V445.558ZM52.7393 445.558H53.5913V448.354H57.5633V445.558H58.4153V451.87H57.5633V449.086H53.5913V451.87H52.7393V445.558ZM60.837 445.558H61.689V450.574L65.901 445.558H66.657V451.87H65.805V446.854L61.605 451.87H60.837V445.558ZM69.0987 445.558H69.9507V450.574L74.1627 445.558H74.9187V451.87H74.0667V446.854L69.8667 451.87H69.0987V445.558ZM71.9667 444.646C71.4227 444.646 70.9907 444.51 70.6707 444.238C70.3507 443.966 70.1867 443.582 70.1787 443.086H70.7907C70.7987 443.398 70.9107 443.65 71.1267 443.842C71.3427 444.026 71.6227 444.118 71.9667 444.118C72.3107 444.118 72.5907 444.026 72.8067 443.842C73.0307 443.65 73.1467 443.398 73.1547 443.086H73.7667C73.7587 443.582 73.5907 443.966 73.2627 444.238C72.9427 444.51 72.5107 444.646 71.9667 444.646ZM3.504 464.062H2.064V466.87H1.212V460.558H2.064V463.33H3.516L5.736 460.558H6.66L4.176 463.618L6.84 466.87H5.832L3.504 464.062ZM10.566 466.93C9.958 466.93 9.41 466.794 8.922 466.522C8.434 466.242 8.05 465.858 7.77 465.37C7.49 464.882 7.35 464.33 7.35 463.714C7.35 463.098 7.49 462.546 7.77 462.058C8.05 461.57 8.434 461.19 8.922 460.918C9.41 460.646 9.958 460.51 10.566 460.51C11.174 460.51 11.722 460.646 12.21 460.918C12.698 461.19 13.078 461.57 13.35 462.058C13.63 462.546 13.77 463.098 13.77 463.714C13.77 464.33 13.63 464.882 13.35 465.37C13.078 465.858 12.698 466.242 12.21 466.522C11.722 466.794 11.174 466.93 10.566 466.93ZM10.566 466.174C11.014 466.174 11.414 466.074 11.766 465.874C12.126 465.666 12.406 465.374 12.606 464.998C12.806 464.622 12.906 464.194 12.906 463.714C12.906 463.234 12.806 462.806 12.606 462.43C12.406 462.054 12.126 461.766 11.766 461.566C11.414 461.358 11.014 461.254 10.566 461.254C10.118 461.254 9.714 461.358 9.354 461.566C9.002 461.766 8.722 462.054 8.514 462.43C8.314 462.806 8.214 463.234 8.214 463.714C8.214 464.194 8.314 464.622 8.514 464.998C8.722 465.374 9.002 465.666 9.354 465.874C9.714 466.074 10.118 466.174 10.566 466.174ZM15.5909 460.558H16.4429V463.354H20.4149V460.558H21.2669V466.87H20.4149V464.086H16.4429V466.87H15.5909V460.558ZM29.8446 466.126V468.394H29.0406V466.87H23.3886V468.394H22.5846V466.126H22.9446C23.3686 466.102 23.6566 465.79 23.8086 465.19C23.9606 464.59 24.0646 463.75 24.1206 462.67L24.2046 460.558H28.8606V466.126H29.8446ZM24.9006 462.718C24.8606 463.614 24.7846 464.354 24.6726 464.938C24.5606 465.514 24.3606 465.91 24.0726 466.126H28.0086V461.314H24.9726L24.9006 462.718ZM37.025 463.978H31.745C31.793 464.634 32.045 465.166 32.501 465.574C32.957 465.974 33.533 466.174 34.229 466.174C34.621 466.174 34.981 466.106 35.309 465.97C35.637 465.826 35.921 465.618 36.161 465.346L36.641 465.898C36.361 466.234 36.009 466.49 35.585 466.666C35.169 466.842 34.709 466.93 34.205 466.93C33.557 466.93 32.981 466.794 32.477 466.522C31.981 466.242 31.593 465.858 31.313 465.37C31.033 464.882 30.893 464.33 30.893 463.714C30.893 463.098 31.025 462.546 31.289 462.058C31.561 461.57 31.929 461.19 32.393 460.918C32.865 460.646 33.393 460.51 33.977 460.51C34.561 460.51 35.085 460.646 35.549 460.918C36.013 461.19 36.377 461.57 36.641 462.058C36.905 462.538 37.037 463.09 37.037 463.714L37.025 463.978ZM33.977 461.242C33.369 461.242 32.857 461.438 32.441 461.83C32.033 462.214 31.801 462.718 31.745 463.342H36.221C36.165 462.718 35.929 462.214 35.513 461.83C35.105 461.438 34.593 461.242 33.977 461.242ZM38.9229 460.558H39.7749V463.354H43.7469V460.558H44.5989V466.87H43.7469V464.086H39.7749V466.87H38.9229V460.558ZM49.6606 466.93C49.0366 466.93 48.4766 466.794 47.9806 466.522C47.4926 466.25 47.1086 465.87 46.8286 465.382C46.5486 464.886 46.4086 464.33 46.4086 463.714C46.4086 463.098 46.5486 462.546 46.8286 462.058C47.1086 461.57 47.4926 461.19 47.9806 460.918C48.4766 460.646 49.0366 460.51 49.6606 460.51C50.2046 460.51 50.6886 460.618 51.1126 460.834C51.5446 461.042 51.8846 461.35 52.1326 461.758L51.4966 462.19C51.2886 461.878 51.0246 461.646 50.7046 461.494C50.3846 461.334 50.0366 461.254 49.6606 461.254C49.2046 461.254 48.7926 461.358 48.4246 461.566C48.0646 461.766 47.7806 462.054 47.5726 462.43C47.3726 462.806 47.2726 463.234 47.2726 463.714C47.2726 464.202 47.3726 464.634 47.5726 465.01C47.7806 465.378 48.0646 465.666 48.4246 465.874C48.7926 466.074 49.2046 466.174 49.6606 466.174C50.0366 466.174 50.3846 466.098 50.7046 465.946C51.0246 465.794 51.2886 465.562 51.4966 465.25L52.1326 465.682C51.8846 466.09 51.5446 466.402 51.1126 466.618C50.6806 466.826 50.1966 466.93 49.6606 466.93ZM55.9543 460.51C56.7783 460.51 57.4103 460.718 57.8503 461.134C58.2903 461.542 58.5103 462.15 58.5103 462.958V466.87H57.6943V465.886C57.5023 466.214 57.2183 466.47 56.8423 466.654C56.4743 466.838 56.0343 466.93 55.5223 466.93C54.8183 466.93 54.2583 466.762 53.8423 466.426C53.4263 466.09 53.2183 465.646 53.2183 465.094C53.2183 464.558 53.4103 464.126 53.7943 463.798C54.1863 463.47 54.8063 463.306 55.6543 463.306H57.6583V462.922C57.6583 462.378 57.5063 461.966 57.2023 461.686C56.8983 461.398 56.4543 461.254 55.8703 461.254C55.4703 461.254 55.0863 461.322 54.7183 461.458C54.3503 461.586 54.0343 461.766 53.7703 461.998L53.3863 461.362C53.7063 461.09 54.0903 460.882 54.5383 460.738C54.9863 460.586 55.4583 460.51 55.9543 460.51ZM55.6543 466.258C56.1343 466.258 56.5463 466.15 56.8903 465.934C57.2343 465.71 57.4903 465.39 57.6583 464.974V463.942H55.6783C54.5983 463.942 54.0583 464.318 54.0583 465.07C54.0583 465.438 54.1983 465.73 54.4783 465.946C54.7583 466.154 55.1503 466.258 55.6543 466.258ZM65.2184 461.314H62.8304V466.87H61.9784V461.314H59.5904V460.558H65.2184V461.314ZM68.7613 466.93C68.1533 466.93 67.6053 466.794 67.1173 466.522C66.6293 466.242 66.2453 465.858 65.9653 465.37C65.6853 464.882 65.5453 464.33 65.5453 463.714C65.5453 463.098 65.6853 462.546 65.9653 462.058C66.2453 461.57 66.6293 461.19 67.1173 460.918C67.6053 460.646 68.1533 460.51 68.7613 460.51C69.3693 460.51 69.9173 460.646 70.4053 460.918C70.8933 461.19 71.2733 461.57 71.5453 462.058C71.8253 462.546 71.9653 463.098 71.9653 463.714C71.9653 464.33 71.8253 464.882 71.5453 465.37C71.2733 465.858 70.8933 466.242 70.4053 466.522C69.9173 466.794 69.3693 466.93 68.7613 466.93ZM68.7613 466.174C69.2093 466.174 69.6093 466.074 69.9613 465.874C70.3213 465.666 70.6013 465.374 70.8013 464.998C71.0013 464.622 71.1013 464.194 71.1013 463.714C71.1013 463.234 71.0013 462.806 70.8013 462.43C70.6013 462.054 70.3213 461.766 69.9613 461.566C69.6093 461.358 69.2093 461.254 68.7613 461.254C68.3133 461.254 67.9093 461.358 67.5493 461.566C67.1973 461.766 66.9173 462.054 66.7093 462.43C66.5093 462.806 66.4093 463.234 66.4093 463.714C66.4093 464.194 66.5093 464.622 66.7093 464.998C66.9173 465.374 67.1973 465.666 67.5493 465.874C67.9093 466.074 68.3133 466.174 68.7613 466.174ZM77.0382 460.51C77.6302 460.51 78.1662 460.646 78.6462 460.918C79.1262 461.182 79.5022 461.558 79.7742 462.046C80.0462 462.534 80.1822 463.09 80.1822 463.714C80.1822 464.346 80.0462 464.906 79.7742 465.394C79.5022 465.882 79.1262 466.262 78.6462 466.534C78.1742 466.798 77.6382 466.93 77.0382 466.93C76.5262 466.93 76.0622 466.826 75.6462 466.618C75.2382 466.402 74.9022 466.09 74.6382 465.682V469.198H73.7862V460.558H74.6022V461.806C74.8582 461.39 75.1942 461.07 75.6102 460.846C76.0342 460.622 76.5102 460.51 77.0382 460.51ZM76.9782 466.174C77.4182 466.174 77.8182 466.074 78.1782 465.874C78.5382 465.666 78.8182 465.374 79.0182 464.998C79.2262 464.622 79.3302 464.194 79.3302 463.714C79.3302 463.234 79.2262 462.81 79.0182 462.442C78.8182 462.066 78.5382 461.774 78.1782 461.566C77.8182 461.358 77.4182 461.254 76.9782 461.254C76.5302 461.254 76.1262 461.358 75.7662 461.566C75.4142 461.774 75.1342 462.066 74.9262 462.442C74.7262 462.81 74.6262 463.234 74.6262 463.714C74.6262 464.194 74.7262 464.622 74.9262 464.998C75.1342 465.374 75.4142 465.666 75.7662 465.874C76.1262 466.074 76.5302 466.174 76.9782 466.174Z" fill="#7B8797"/>
<path d="M6.876 585.558V591.87H6.024V586.314H2.064V591.87H1.212V585.558H6.876ZM12.5499 585.51C13.1419 585.51 13.6779 585.646 14.1579 585.918C14.6379 586.182 15.0139 586.558 15.2859 587.046C15.5579 587.534 15.6939 588.09 15.6939 588.714C15.6939 589.346 15.5579 589.906 15.2859 590.394C15.0139 590.882 14.6379 591.262 14.1579 591.534C13.6859 591.798 13.1499 591.93 12.5499 591.93C12.0379 591.93 11.5739 591.826 11.1579 591.618C10.7499 591.402 10.4139 591.09 10.1499 590.682V594.198H9.29794V585.558H10.1139V586.806C10.3699 586.39 10.7059 586.07 11.1219 585.846C11.5459 585.622 12.0219 585.51 12.5499 585.51ZM12.4899 591.174C12.9299 591.174 13.3299 591.074 13.6899 590.874C14.0499 590.666 14.3299 590.374 14.5299 589.998C14.7379 589.622 14.8419 589.194 14.8419 588.714C14.8419 588.234 14.7379 587.81 14.5299 587.442C14.3299 587.066 14.0499 586.774 13.6899 586.566C13.3299 586.358 12.9299 586.254 12.4899 586.254C12.0419 586.254 11.6379 586.358 11.2779 586.566C10.9259 586.774 10.6459 587.066 10.4379 587.442C10.2379 587.81 10.1379 588.234 10.1379 588.714C10.1379 589.194 10.2379 589.622 10.4379 589.998C10.6459 590.374 10.9259 590.666 11.2779 590.874C11.6379 591.074 12.0419 591.174 12.4899 591.174ZM17.5245 585.558H18.3765V590.574L22.5885 585.558H23.3445V591.87H22.4925V586.854L18.2925 591.87H17.5245V585.558ZM31.3062 588.978H26.0262C26.0742 589.634 26.3262 590.166 26.7822 590.574C27.2382 590.974 27.8142 591.174 28.5102 591.174C28.9022 591.174 29.2622 591.106 29.5902 590.97C29.9182 590.826 30.2022 590.618 30.4422 590.346L30.9222 590.898C30.6422 591.234 30.2902 591.49 29.8662 591.666C29.4502 591.842 28.9902 591.93 28.4862 591.93C27.8382 591.93 27.2622 591.794 26.7582 591.522C26.2622 591.242 25.8742 590.858 25.5942 590.37C25.3142 589.882 25.1742 589.33 25.1742 588.714C25.1742 588.098 25.3062 587.546 25.5702 587.058C25.8422 586.57 26.2102 586.19 26.6742 585.918C27.1462 585.646 27.6742 585.51 28.2582 585.51C28.8422 585.51 29.3662 585.646 29.8302 585.918C30.2942 586.19 30.6582 586.57 30.9222 587.058C31.1862 587.538 31.3182 588.09 31.3182 588.714L31.3062 588.978ZM28.2582 586.242C27.6502 586.242 27.1382 586.438 26.7222 586.83C26.3142 587.214 26.0822 587.718 26.0262 588.342H30.5022C30.4462 587.718 30.2102 587.214 29.7942 586.83C29.3862 586.438 28.8742 586.242 28.2582 586.242ZM40.2602 585.558V591.87H39.4802V586.878L36.9242 591.102H36.5402L33.9842 586.866V591.87H33.2042V585.558H34.0682L36.7442 590.106L39.4682 585.558H40.2602ZM42.6847 585.558H43.5367V588.354H47.5087V585.558H48.3607V591.87H47.5087V589.086H43.5367V591.87H42.6847V585.558ZM50.7823 585.558H51.6343V590.574L55.8463 585.558H56.6023V591.87H55.7503V586.854L51.5503 591.87H50.7823V585.558ZM61.336 589.062H59.896V591.87H59.044V585.558H59.896V588.33H61.348L63.568 585.558H64.492L62.008 588.618L64.672 591.87H63.664L61.336 589.062ZM71.7613 591.93C71.1533 591.93 70.6053 591.794 70.1173 591.522C69.6293 591.242 69.2453 590.858 68.9653 590.37C68.6853 589.882 68.5453 589.33 68.5453 588.714C68.5453 588.098 68.6853 587.546 68.9653 587.058C69.2453 586.57 69.6293 586.19 70.1173 585.918C70.6053 585.646 71.1533 585.51 71.7613 585.51C72.3693 585.51 72.9173 585.646 73.4053 585.918C73.8933 586.19 74.2733 586.57 74.5453 587.058C74.8253 587.546 74.9653 588.098 74.9653 588.714C74.9653 589.33 74.8253 589.882 74.5453 590.37C74.2733 590.858 73.8933 591.242 73.4053 591.522C72.9173 591.794 72.3693 591.93 71.7613 591.93ZM71.7613 591.174C72.2093 591.174 72.6093 591.074 72.9613 590.874C73.3213 590.666 73.6013 590.374 73.8013 589.998C74.0013 589.622 74.1013 589.194 74.1013 588.714C74.1013 588.234 74.0013 587.806 73.8013 587.43C73.6013 587.054 73.3213 586.766 72.9613 586.566C72.6093 586.358 72.2093 586.254 71.7613 586.254C71.3133 586.254 70.9093 586.358 70.5493 586.566C70.1973 586.766 69.9173 587.054 69.7093 587.43C69.5093 587.806 69.4093 588.234 69.4093 588.714C69.4093 589.194 69.5093 589.622 69.7093 589.998C69.9173 590.374 70.1973 590.666 70.5493 590.874C70.9093 591.074 71.3133 591.174 71.7613 591.174ZM79.4262 591.93C78.8022 591.93 78.2422 591.794 77.7462 591.522C77.2582 591.25 76.8742 590.87 76.5942 590.382C76.3142 589.886 76.1742 589.33 76.1742 588.714C76.1742 588.098 76.3142 587.546 76.5942 587.058C76.8742 586.57 77.2582 586.19 77.7462 585.918C78.2422 585.646 78.8022 585.51 79.4262 585.51C79.9702 585.51 80.4542 585.618 80.8782 585.834C81.3102 586.042 81.6502 586.35 81.8982 586.758L81.2622 587.19C81.0542 586.878 80.7902 586.646 80.4702 586.494C80.1502 586.334 79.8022 586.254 79.4262 586.254C78.9702 586.254 78.5582 586.358 78.1902 586.566C77.8302 586.766 77.5462 587.054 77.3382 587.43C77.1382 587.806 77.0382 588.234 77.0382 588.714C77.0382 589.202 77.1382 589.634 77.3382 590.01C77.5462 590.378 77.8302 590.666 78.1902 590.874C78.5582 591.074 78.9702 591.174 79.4262 591.174C79.8022 591.174 80.1502 591.098 80.4702 590.946C80.7902 590.794 81.0542 590.562 81.2622 590.25L81.8982 590.682C81.6502 591.09 81.3102 591.402 80.8782 591.618C80.4462 591.826 79.9622 591.93 79.4262 591.93ZM85.7199 585.51C86.5439 585.51 87.1759 585.718 87.6159 586.134C88.0559 586.542 88.2759 587.15 88.2759 587.958V591.87H87.4599V590.886C87.2679 591.214 86.9839 591.47 86.6079 591.654C86.2399 591.838 85.7999 591.93 85.2879 591.93C84.5839 591.93 84.0239 591.762 83.6079 591.426C83.1919 591.09 82.9839 590.646 82.9839 590.094C82.9839 589.558 83.1759 589.126 83.5599 588.798C83.9519 588.47 84.5719 588.306 85.4199 588.306H87.4239V587.922C87.4239 587.378 87.2719 586.966 86.9679 586.686C86.6639 586.398 86.2199 586.254 85.6359 586.254C85.2359 586.254 84.8519 586.322 84.4839 586.458C84.1159 586.586 83.7999 586.766 83.5359 586.998L83.1519 586.362C83.4719 586.09 83.8559 585.882 84.3039 585.738C84.7519 585.586 85.2239 585.51 85.7199 585.51ZM85.4199 591.258C85.8999 591.258 86.3119 591.15 86.6559 590.934C86.9999 590.71 87.2559 590.39 87.4239 589.974V588.942H85.4439C84.3639 588.942 83.8239 589.318 83.8239 590.07C83.8239 590.438 83.9639 590.73 84.2439 590.946C84.5239 591.154 84.9159 591.258 85.4199 591.258ZM96.7 591.126V593.394H95.896V591.87H90.244V593.394H89.44V591.126H89.8C90.224 591.102 90.512 590.79 90.664 590.19C90.816 589.59 90.92 588.75 90.976 587.67L91.06 585.558H95.716V591.126H96.7ZM91.756 587.718C91.716 588.614 91.64 589.354 91.528 589.938C91.416 590.514 91.216 590.91 90.928 591.126H94.864V586.314H91.828L91.756 587.718ZM100.652 589.062H99.2124V591.87H98.3604V585.558H99.2124V588.33H100.664L102.884 585.558H103.808L101.324 588.618L103.988 591.87H102.98L100.652 589.062ZM107.388 585.51C108.212 585.51 108.844 585.718 109.284 586.134C109.724 586.542 109.944 587.15 109.944 587.958V591.87H109.128V590.886C108.936 591.214 108.652 591.47 108.276 591.654C107.908 591.838 107.468 591.93 106.956 591.93C106.252 591.93 105.692 591.762 105.276 591.426C104.86 591.09 104.652 590.646 104.652 590.094C104.652 589.558 104.844 589.126 105.228 588.798C105.62 588.47 106.24 588.306 107.088 588.306H109.092V587.922C109.092 587.378 108.94 586.966 108.636 586.686C108.332 586.398 107.888 586.254 107.304 586.254C106.904 586.254 106.52 586.322 106.152 586.458C105.784 586.586 105.468 586.766 105.204 586.998L104.82 586.362C105.14 586.09 105.524 585.882 105.972 585.738C106.42 585.586 106.892 585.51 107.388 585.51ZM107.088 591.258C107.568 591.258 107.98 591.15 108.324 590.934C108.668 590.71 108.924 590.39 109.092 589.974V588.942H107.112C106.032 588.942 105.492 589.318 105.492 590.07C105.492 590.438 105.632 590.73 105.912 590.946C106.192 591.154 106.584 591.258 107.088 591.258Z" fill="#7B8797"/>
<path d="M6.876 540.558V546.87H6.024V541.314H2.064V546.87H1.212V540.558H6.876ZM12.5499 540.51C13.1419 540.51 13.6779 540.646 14.1579 540.918C14.6379 541.182 15.0139 541.558 15.2859 542.046C15.5579 542.534 15.6939 543.09 15.6939 543.714C15.6939 544.346 15.5579 544.906 15.2859 545.394C15.0139 545.882 14.6379 546.262 14.1579 546.534C13.6859 546.798 13.1499 546.93 12.5499 546.93C12.0379 546.93 11.5739 546.826 11.1579 546.618C10.7499 546.402 10.4139 546.09 10.1499 545.682V549.198H9.29794V540.558H10.1139V541.806C10.3699 541.39 10.7059 541.07 11.1219 540.846C11.5459 540.622 12.0219 540.51 12.5499 540.51ZM12.4899 546.174C12.9299 546.174 13.3299 546.074 13.6899 545.874C14.0499 545.666 14.3299 545.374 14.5299 544.998C14.7379 544.622 14.8419 544.194 14.8419 543.714C14.8419 543.234 14.7379 542.81 14.5299 542.442C14.3299 542.066 14.0499 541.774 13.6899 541.566C13.3299 541.358 12.9299 541.254 12.4899 541.254C12.0419 541.254 11.6379 541.358 11.2779 541.566C10.9259 541.774 10.6459 542.066 10.4379 542.442C10.2379 542.81 10.1379 543.234 10.1379 543.714C10.1379 544.194 10.2379 544.622 10.4379 544.998C10.6459 545.374 10.9259 545.666 11.2779 545.874C11.6379 546.074 12.0419 546.174 12.4899 546.174ZM17.5245 540.558H18.3765V545.574L22.5885 540.558H23.3445V546.87H22.4925V541.854L18.2925 546.87H17.5245V540.558ZM31.3062 543.978H26.0262C26.0742 544.634 26.3262 545.166 26.7822 545.574C27.2382 545.974 27.8142 546.174 28.5102 546.174C28.9022 546.174 29.2622 546.106 29.5902 545.97C29.9182 545.826 30.2022 545.618 30.4422 545.346L30.9222 545.898C30.6422 546.234 30.2902 546.49 29.8662 546.666C29.4502 546.842 28.9902 546.93 28.4862 546.93C27.8382 546.93 27.2622 546.794 26.7582 546.522C26.2622 546.242 25.8742 545.858 25.5942 545.37C25.3142 544.882 25.1742 544.33 25.1742 543.714C25.1742 543.098 25.3062 542.546 25.5702 542.058C25.8422 541.57 26.2102 541.19 26.6742 540.918C27.1462 540.646 27.6742 540.51 28.2582 540.51C28.8422 540.51 29.3662 540.646 29.8302 540.918C30.2942 541.19 30.6582 541.57 30.9222 542.058C31.1862 542.538 31.3182 543.09 31.3182 543.714L31.3062 543.978ZM28.2582 541.242C27.6502 541.242 27.1382 541.438 26.7222 541.83C26.3142 542.214 26.0822 542.718 26.0262 543.342H30.5022C30.4462 542.718 30.2102 542.214 29.7942 541.83C29.3862 541.438 28.8742 541.242 28.2582 541.242ZM40.2602 540.558V546.87H39.4802V541.878L36.9242 546.102H36.5402L33.9842 541.866V546.87H33.2042V540.558H34.0682L36.7442 545.106L39.4682 540.558H40.2602ZM42.6847 540.558H43.5367V543.354H47.5087V540.558H48.3607V546.87H47.5087V544.086H43.5367V546.87H42.6847V540.558ZM50.7823 540.558H51.6343V545.574L55.8463 540.558H56.6023V546.87H55.7503V541.854L51.5503 546.87H50.7823V540.558ZM61.336 544.062H59.896V546.87H59.044V540.558H59.896V543.33H61.348L63.568 540.558H64.492L62.008 543.618L64.672 546.87H63.664L61.336 544.062ZM75.3133 546.126V548.394H74.5093V546.87H68.8573V548.394H68.0533V546.126H68.4133C68.8373 546.102 69.1253 545.79 69.2773 545.19C69.4293 544.59 69.5333 543.75 69.5893 542.67L69.6733 540.558H74.3293V546.126H75.3133ZM70.3693 542.718C70.3293 543.614 70.2533 544.354 70.1413 544.938C70.0293 545.514 69.8293 545.91 69.5413 546.126H73.4773V541.314H70.4413L70.3693 542.718ZM76.9737 540.558H77.8257V545.574L82.0377 540.558H82.7937V546.87H81.9417V541.854L77.7417 546.87H76.9737V540.558ZM87.8754 546.93C87.2514 546.93 86.6914 546.794 86.1954 546.522C85.7074 546.25 85.3234 545.87 85.0434 545.382C84.7634 544.886 84.6234 544.33 84.6234 543.714C84.6234 543.098 84.7634 542.546 85.0434 542.058C85.3234 541.57 85.7074 541.19 86.1954 540.918C86.6914 540.646 87.2514 540.51 87.8754 540.51C88.4194 540.51 88.9034 540.618 89.3274 540.834C89.7594 541.042 90.0994 541.35 90.3474 541.758L89.7114 542.19C89.5034 541.878 89.2394 541.646 88.9194 541.494C88.5994 541.334 88.2514 541.254 87.8754 541.254C87.4194 541.254 87.0074 541.358 86.6394 541.566C86.2794 541.766 85.9954 542.054 85.7874 542.43C85.5874 542.806 85.4874 543.234 85.4874 543.714C85.4874 544.202 85.5874 544.634 85.7874 545.01C85.9954 545.378 86.2794 545.666 86.6394 545.874C87.0074 546.074 87.4194 546.174 87.8754 546.174C88.2514 546.174 88.5994 546.098 88.9194 545.946C89.2394 545.794 89.5034 545.562 89.7114 545.25L90.3474 545.682C90.0994 546.09 89.7594 546.402 89.3274 546.618C88.8954 546.826 88.4114 546.93 87.8754 546.93ZM96.32 541.314H93.932V546.87H93.08V541.314H90.692V540.558H96.32V541.314ZM97.5518 540.558H98.4038V545.574L102.616 540.558H103.372V546.87H102.52V541.854L98.3198 546.87H97.5518V540.558ZM110.974 540.558V546.87H110.122V541.314H107.098L107.014 542.874C106.95 544.186 106.798 545.194 106.558 545.898C106.318 546.602 105.89 546.954 105.274 546.954C105.106 546.954 104.902 546.922 104.662 546.858L104.722 546.126C104.866 546.158 104.966 546.174 105.022 546.174C105.35 546.174 105.598 546.022 105.766 545.718C105.934 545.414 106.046 545.038 106.102 544.59C106.158 544.142 106.206 543.55 106.246 542.814L106.354 540.558H110.974ZM118.556 540.558V546.87H117.704V541.314H114.68L114.596 542.874C114.532 544.186 114.38 545.194 114.14 545.898C113.9 546.602 113.472 546.954 112.856 546.954C112.688 546.954 112.484 546.922 112.244 546.858L112.304 546.126C112.448 546.158 112.548 546.174 112.604 546.174C112.932 546.174 113.18 546.022 113.348 545.718C113.516 545.414 113.628 545.038 113.684 544.59C113.74 544.142 113.788 543.55 113.828 542.814L113.936 540.558H118.556ZM125.826 540.558V546.87H125.046V544.782H123.066H122.826L121.362 546.87H120.438L122.01 544.662C121.522 544.526 121.146 544.294 120.882 543.966C120.618 543.638 120.486 543.222 120.486 542.718C120.486 542.014 120.726 541.478 121.206 541.11C121.686 540.742 122.342 540.558 123.174 540.558H125.826ZM121.35 542.742C121.35 543.678 121.946 544.146 123.138 544.146H125.046V541.314H123.198C121.966 541.314 121.35 541.79 121.35 542.742ZM132.695 541.314H130.307V546.87H129.455V541.314H127.067V540.558H132.695V541.314ZM136.099 540.51C136.923 540.51 137.555 540.718 137.995 541.134C138.435 541.542 138.655 542.15 138.655 542.958V546.87H137.839V545.886C137.647 546.214 137.363 546.47 136.987 546.654C136.619 546.838 136.179 546.93 135.667 546.93C134.963 546.93 134.403 546.762 133.987 546.426C133.571 546.09 133.363 545.646 133.363 545.094C133.363 544.558 133.555 544.126 133.939 543.798C134.331 543.47 134.951 543.306 135.799 543.306H137.803V542.922C137.803 542.378 137.651 541.966 137.347 541.686C137.043 541.398 136.599 541.254 136.015 541.254C135.615 541.254 135.231 541.322 134.863 541.458C134.495 541.586 134.179 541.766 133.915 541.998L133.531 541.362C133.851 541.09 134.235 540.882 134.683 540.738C135.131 540.586 135.603 540.51 136.099 540.51ZM135.799 546.258C136.279 546.258 136.691 546.15 137.035 545.934C137.379 545.71 137.635 545.39 137.803 544.974V543.942H135.823C134.743 543.942 134.203 544.318 134.203 545.07C134.203 545.438 134.343 545.73 134.623 545.946C134.903 546.154 135.295 546.258 135.799 546.258Z" fill="#7B8797"/>
<path d="M370.817 65.8494V41.8604H345.291V65.8677H330.799C324.98 65.8677 320.277 70.5886 320.277 76.3892V172.272C320.277 178.091 324.998 182.794 330.799 182.794H385.328C391.147 182.794 395.849 178.073 395.849 172.272V76.3892C395.849 70.5704 391.128 65.8677 385.328 65.8677H370.817V65.8494Z" stroke="#202945" stroke-miterlimit="10" stroke-linejoin="round"/>
<path d="M367.763 41.8601H348.367V6.76396C348.367 3.58006 350.947 1 354.131 1H361.999C365.183 1 367.763 3.58006 367.763 6.76396V41.8601V41.8601Z" stroke="#202945" stroke-miterlimit="10" stroke-linejoin="round"/>
<path d="M358.062 74.5407V19.7374C358.062 16.1509 360.972 13.2598 364.54 13.2598H410.999" stroke="#202945" stroke-miterlimit="10" stroke-linejoin="round"/>
<path d="M378.83 89.8562V83.4335C378.83 80.7803 380.989 78.6211 383.642 78.6211C386.296 78.6211 388.455 80.7803 388.455 83.4335V217.523L362.654 243.324" stroke="#202945" stroke-miterlimit="10" stroke-linejoin="round"/>
<path d="M379.891 203.727H396.981" stroke="#202945" stroke-miterlimit="10" stroke-linejoin="round"/>
<path d="M354.862 196.188H361.248C363.645 196.188 365.585 198.128 365.585 200.525V206.911C365.585 209.308 363.645 211.247 361.248 211.247H354.862C352.465 211.247 350.525 209.308 350.525 206.911V200.525C350.525 198.146 352.465 196.188 354.862 196.188Z" stroke="#202945" stroke-miterlimit="10" stroke-linejoin="round"/>
<path d="M358.062 182.794V196.188" stroke="#202945" stroke-miterlimit="10" stroke-linejoin="round"/>
<path d="M358.062 211.266V224.148" stroke="#202945" stroke-miterlimit="10" stroke-linejoin="round"/>
<path d="M328.126 319.115L321.648 312.638L353.487 280.799V270.606H362.637V282.683C362.637 283.891 362.161 285.062 361.301 285.922L328.126 319.115Z" stroke="#202945" stroke-miterlimit="10" stroke-linejoin="round"/>
<path d="M312.649 334.834L306.172 328.356L300.993 332.949H286.52V342.098H302.896C304.104 342.098 305.275 341.623 306.135 340.763L312.649 334.834Z" stroke="#202945" stroke-miterlimit="10" stroke-linejoin="round"/>
<path d="M332.773 323.763L322.123 334.413C319.433 337.103 315.06 337.103 312.352 334.413L306.588 328.649C303.898 325.959 303.898 321.586 306.588 318.878L317.237 308.228L332.773 323.763Z" stroke="#202945" stroke-miterlimit="10" stroke-linejoin="round"/>
<path d="M345.639 251.723V257.359H349.17V264.989H345.639V270.625H392.098V251.723H345.639Z" stroke="#202945" stroke-miterlimit="10" stroke-linejoin="round"/>
<path d="M290.872 293.608H244.395V304.331H290.872V293.608Z" stroke="#202945" stroke-miterlimit="10" stroke-linejoin="round"/>
<path d="M248.733 321.97H220.279V340.305H248.733V321.97Z" stroke="#202945" stroke-miterlimit="10" stroke-linejoin="round"/>
<path d="M217.808 343.489H208.769C207.415 343.489 206.299 342.391 206.299 341.019V321.256C206.299 319.902 207.397 318.786 208.769 318.786H217.808C219.163 318.786 220.279 319.884 220.279 321.256V341.019C220.279 342.373 219.181 343.489 217.808 343.489Z" stroke="#202945" stroke-miterlimit="10" stroke-linejoin="round"/>
<path d="M206.314 340.396H198.373C196.982 340.396 195.848 339.261 195.848 337.871V324.403C195.848 323.012 196.982 321.878 198.373 321.878H206.314V340.396Z" stroke="#202945" stroke-miterlimit="10" stroke-linejoin="round"/>
<path d="M239.693 310.681H231.861V321.952H239.693V310.681Z" stroke="#202945" stroke-miterlimit="10" stroke-linejoin="round"/>
<path d="M195.85 324.642H182.492V337.999H195.85V324.642Z" stroke="#202945" stroke-miterlimit="10" stroke-linejoin="round"/>
<path d="M168.364 367.533V354.596H157.476V367.533H149.297V372.309H157.476V378.439H168.364V372.309H176.195V367.533H168.364Z" stroke="#202945" stroke-miterlimit="10" stroke-linejoin="round"/>
<path d="M162.746 397.835V378.438" stroke="#202945" stroke-miterlimit="10" stroke-linejoin="round"/>
<path d="M143.004 231.467V239.92H124.925C117.24 239.92 111 246.16 111 253.845V286.526H124.522V262.464C124.522 259.042 127.304 256.261 130.726 256.261H143.004V336.883C143.004 346.673 150.927 354.596 160.716 354.596H164.779C174.568 354.596 182.491 346.673 182.491 336.883V231.467C182.491 227.642 179.399 224.55 175.575 224.55H149.92C146.096 224.55 143.004 227.661 143.004 231.467Z" stroke="#202945" stroke-miterlimit="10" stroke-linejoin="round"/>
<path d="M362.635 224.148H353.486V251.724H362.635V224.148Z" stroke="#202945" stroke-miterlimit="10" stroke-linejoin="round"/>
<path d="M274.769 466.234H260.479V546.911H274.769V466.234Z" stroke="#202945" stroke-miterlimit="10" stroke-linejoin="round"/>
<path d="M267.633 466.233V358.511" stroke="#202945" stroke-miterlimit="10" stroke-linejoin="round"/>
<path d="M292.393 477.303H242.859V482.756H292.393V477.303Z" stroke="#202945" stroke-miterlimit="10" stroke-linejoin="round"/>
<path d="M286.519 460.103V304.33H248.733V460.103H242.859V473.223H292.393V460.103H286.519Z" stroke="#202945" stroke-miterlimit="10" stroke-linejoin="round"/>
<path d="M237.531 546.234L253.67 530.114V460.104H260.477V357.14C260.477 353.188 263.679 349.985 267.632 349.985C271.584 349.985 274.787 353.188 274.787 357.14V460.104H281.594V507.332" stroke="#202945" stroke-miterlimit="10" stroke-linejoin="round"/>
<path d="M238.134 558.531L235.188 561.477C239.982 567.314 242.855 574.779 242.855 582.922C242.855 601.605 227.722 616.737 209.04 616.737C190.357 616.737 175.225 601.605 175.225 582.922C175.225 564.24 190.357 549.107 209.04 549.107C216.286 549.107 222.983 551.376 228.491 555.255L231.748 552.016" stroke="#202945" stroke-miterlimit="10" stroke-linejoin="round"/>
<path d="M302.491 538.256L282.93 518.695C282.07 517.835 281.594 516.682 281.594 515.456V554.065H253.671V542.995L243.973 552.693" stroke="#202945" stroke-miterlimit="10" stroke-linejoin="round"/>
<path d="M253.674 519.938H244.525V503.379H242.859V486.837H292.393V503.379H290.746V513.571L308.953 531.796" stroke="#202945" stroke-miterlimit="10" stroke-linejoin="round"/>
<path d="M338.226 534.596C330.76 534.596 323.899 537.048 318.299 541.128L314.731 537.56L308.254 544.038L311.694 547.478C307.137 553.242 304.393 560.506 304.393 568.429C304.393 587.112 319.525 602.244 338.208 602.244C356.89 602.244 372.023 587.112 372.023 568.429C372.041 549.747 356.909 534.596 338.226 534.596Z" stroke="#202945" stroke-miterlimit="10" stroke-linejoin="round"/>
<path d="M245.754 554.451L235.312 544.009L229.529 549.793L239.97 560.234L245.754 554.451Z" stroke="#202945" stroke-miterlimit="10" stroke-linejoin="round"/>
<path d="M310.904 529.828L300.463 540.269L306.247 546.053L316.688 535.611L310.904 529.828Z" stroke="#202945" stroke-miterlimit="10" stroke-linejoin="round"/>
<path d="M151.514 224.55V324.641L158.943 343.489H166.555L173.984 324.641V224.55H151.514Z" stroke="#202945" stroke-miterlimit="10" stroke-linejoin="round"/>
<path d="M267.633 568.43V554.065L277.77 564.221" stroke="#202945" stroke-miterlimit="10" stroke-linejoin="round"/>
<line x1="151" y1="116.62" x2="320" y2="116.62" stroke="#7B8797" stroke-width="0.5"/>
<line x1="61" y1="231.62" x2="143" y2="231.62" stroke="#7B8797" stroke-width="0.5"/>
<line x1="61" y1="301.62" x2="244" y2="301.62" stroke="#7B8797" stroke-width="0.5"/>
<line x1="61" y1="356.62" x2="120" y2="356.62" stroke="#7B8797" stroke-width="0.5"/>
<line x1="50" y1="406.62" x2="249" y2="406.62" stroke="#7B8797" stroke-width="0.5"/>
<line x1="85" y1="466.62" x2="253" y2="466.62" stroke="#7B8797" stroke-width="0.5"/>
<line x1="145" y1="546.62" x2="310" y2="546.62" stroke="#7B8797" stroke-width="0.5"/>
<line x1="115" y1="591.62" x2="176" y2="591.62" stroke="#7B8797" stroke-width="0.5"/>
</svg>
