<svg width="35" height="23" viewBox="0 0 35 23" fill="none" xmlns="http://www.w3.org/2000/svg">
<path d="M33.8573 4.96623C33.8573 4.96623 33.5057 2.71974 32.509 1.7253C31.2189 0.419344 29.754 0.419344 29.109 0.365428C24.3606 0.0519187 17.209 0 17.209 0C17.209 0 10.0573 0.0519187 5.30898 0.365428C4.66392 0.417347 3.1991 0.469265 1.90898 1.7253C0.854043 2.71775 0.560626 4.96623 0.560626 4.96623C0.560626 4.96623 0.208984 7.63205 0.208984 10.2979V12.754C0.208984 15.4199 0.560626 18.0338 0.560626 18.0338C0.560626 18.0338 0.912277 20.2803 1.90898 21.2747C3.1991 22.5807 4.8991 22.5287 5.66063 22.6865C8.35734 22.9481 17.209 23 17.209 23C17.209 23 24.3606 23 29.109 22.6346C29.754 22.5827 31.2189 22.5307 32.509 21.2747C33.5057 20.2823 33.8573 18.0338 33.8573 18.0338C33.8573 18.0338 34.209 15.3679 34.209 12.754V10.2979C34.209 7.63205 33.8573 4.96623 33.8573 4.96623ZM13.1057 17.5625V6.22026L24.2442 12.0212L13.1057 17.5625Z" fill="#202945"/>
</svg>
